<svg width="2048" height="512" viewBox="0 0 2048 512" fill="none" xmlns="http://www.w3.org/2000/svg">
<rect width="512" height="512" transform="translate(1536)" fill="black"/>
<path d="M1683.88 279.768C1680.21 279.768 1676.93 278.872 1674.03 277.08C1671.13 275.245 1668.84 272.6 1667.18 269.144C1665.52 265.688 1664.68 261.507 1664.68 256.6C1664.68 251.693 1665.52 247.512 1667.18 244.056C1668.84 240.6 1671.13 237.976 1674.03 236.184C1676.93 234.349 1680.21 233.432 1683.88 233.432C1687.6 233.432 1690.88 234.349 1693.74 236.184C1696.64 237.976 1698.92 240.6 1700.59 244.056C1702.25 247.512 1703.08 251.693 1703.08 256.6C1703.08 261.507 1702.25 265.688 1700.59 269.144C1698.92 272.6 1696.64 275.245 1693.74 277.08C1690.88 278.872 1687.6 279.768 1683.88 279.768ZM1683.88 271C1685.63 271 1687.15 270.509 1688.43 269.528C1689.75 268.547 1690.77 266.989 1691.5 264.856C1692.27 262.723 1692.65 259.971 1692.65 256.6C1692.65 253.229 1692.27 250.477 1691.5 248.344C1690.77 246.211 1689.75 244.653 1688.43 243.672C1687.15 242.691 1685.63 242.2 1683.88 242.2C1682.18 242.2 1680.66 242.691 1679.34 243.672C1678.06 244.653 1677.04 246.211 1676.27 248.344C1675.54 250.477 1675.18 253.229 1675.18 256.6C1675.18 259.971 1675.54 262.723 1676.27 264.856C1677.04 266.989 1678.06 268.547 1679.34 269.528C1680.66 270.509 1682.18 271 1683.88 271ZM1727.32 279.768C1723.65 279.768 1720.37 278.872 1717.47 277.08C1714.56 275.245 1712.28 272.6 1710.62 269.144C1708.95 265.688 1708.12 261.507 1708.12 256.6C1708.12 251.693 1708.95 247.512 1710.62 244.056C1712.28 240.6 1714.56 237.976 1717.47 236.184C1720.37 234.349 1723.65 233.432 1727.32 233.432C1731.03 233.432 1734.32 234.349 1737.18 236.184C1740.08 237.976 1742.36 240.6 1744.03 244.056C1745.69 247.512 1746.52 251.693 1746.52 256.6C1746.52 261.507 1745.69 265.688 1744.03 269.144C1742.36 272.6 1740.08 275.245 1737.18 277.08C1734.32 278.872 1731.03 279.768 1727.32 279.768ZM1727.32 271C1729.07 271 1730.59 270.509 1731.87 269.528C1733.19 268.547 1734.21 266.989 1734.94 264.856C1735.71 262.723 1736.09 259.971 1736.09 256.6C1736.09 253.229 1735.71 250.477 1734.94 248.344C1734.21 246.211 1733.19 244.653 1731.87 243.672C1730.59 242.691 1729.07 242.2 1727.32 242.2C1725.61 242.2 1724.1 242.691 1722.78 243.672C1721.5 244.653 1720.47 246.211 1719.71 248.344C1718.98 250.477 1718.62 253.229 1718.62 256.6C1718.62 259.971 1718.98 262.723 1719.71 264.856C1720.47 266.989 1721.5 268.547 1722.78 269.528C1724.1 270.509 1725.61 271 1727.32 271ZM1770.76 279.768C1767.09 279.768 1763.8 278.872 1760.9 277.08C1758 275.245 1755.72 272.6 1754.05 269.144C1752.39 265.688 1751.56 261.507 1751.56 256.6C1751.56 251.693 1752.39 247.512 1754.05 244.056C1755.72 240.6 1758 237.976 1760.9 236.184C1763.8 234.349 1767.09 233.432 1770.76 233.432C1774.47 233.432 1777.76 234.349 1780.61 236.184C1783.52 237.976 1785.8 240.6 1787.46 244.056C1789.13 247.512 1789.96 251.693 1789.96 256.6C1789.96 261.507 1789.13 265.688 1787.46 269.144C1785.8 272.6 1783.52 275.245 1780.61 277.08C1777.76 278.872 1774.47 279.768 1770.76 279.768ZM1770.76 271C1772.51 271 1774.02 270.509 1775.3 269.528C1776.63 268.547 1777.65 266.989 1778.37 264.856C1779.14 262.723 1779.53 259.971 1779.53 256.6C1779.53 253.229 1779.14 250.477 1778.37 248.344C1777.65 246.211 1776.63 244.653 1775.3 243.672C1774.02 242.691 1772.51 242.2 1770.76 242.2C1769.05 242.2 1767.54 242.691 1766.21 243.672C1764.93 244.653 1763.91 246.211 1763.14 248.344C1762.42 250.477 1762.05 253.229 1762.05 256.6C1762.05 259.971 1762.42 262.723 1763.14 264.856C1763.91 266.989 1764.93 268.547 1766.21 269.528C1767.54 270.509 1769.05 271 1770.76 271ZM1814.2 279.768C1810.53 279.768 1807.24 278.872 1804.34 277.08C1801.44 275.245 1799.16 272.6 1797.49 269.144C1795.83 265.688 1795 261.507 1795 256.6C1795 251.693 1795.83 247.512 1797.49 244.056C1799.16 240.6 1801.44 237.976 1804.34 236.184C1807.24 234.349 1810.53 233.432 1814.2 233.432C1817.91 233.432 1821.19 234.349 1824.05 236.184C1826.95 237.976 1829.24 240.6 1830.9 244.056C1832.56 247.512 1833.4 251.693 1833.4 256.6C1833.4 261.507 1832.56 265.688 1830.9 269.144C1829.24 272.6 1826.95 275.245 1824.05 277.08C1821.19 278.872 1817.91 279.768 1814.2 279.768ZM1814.2 271C1815.95 271 1817.46 270.509 1818.74 269.528C1820.06 268.547 1821.09 266.989 1821.81 264.856C1822.58 262.723 1822.96 259.971 1822.96 256.6C1822.96 253.229 1822.58 250.477 1821.81 248.344C1821.09 246.211 1820.06 244.653 1818.74 243.672C1817.46 242.691 1815.95 242.2 1814.2 242.2C1812.49 242.2 1810.97 242.691 1809.65 243.672C1808.37 244.653 1807.35 246.211 1806.58 248.344C1805.85 250.477 1805.49 253.229 1805.49 256.6C1805.49 259.971 1805.85 262.723 1806.58 264.856C1807.35 266.989 1808.37 268.547 1809.65 269.528C1810.97 270.509 1812.49 271 1814.2 271ZM1857.63 279.768C1853.96 279.768 1850.68 278.872 1847.78 277.08C1844.88 275.245 1842.59 272.6 1840.93 269.144C1839.27 265.688 1838.43 261.507 1838.43 256.6C1838.43 251.693 1839.27 247.512 1840.93 244.056C1842.59 240.6 1844.88 237.976 1847.78 236.184C1850.68 234.349 1853.96 233.432 1857.63 233.432C1861.35 233.432 1864.63 234.349 1867.49 236.184C1870.39 237.976 1872.67 240.6 1874.34 244.056C1876 247.512 1876.83 251.693 1876.83 256.6C1876.83 261.507 1876 265.688 1874.34 269.144C1872.67 272.6 1870.39 275.245 1867.49 277.08C1864.63 278.872 1861.35 279.768 1857.63 279.768ZM1857.63 271C1859.38 271 1860.9 270.509 1862.18 269.528C1863.5 268.547 1864.52 266.989 1865.25 264.856C1866.02 262.723 1866.4 259.971 1866.4 256.6C1866.4 253.229 1866.02 250.477 1865.25 248.344C1864.52 246.211 1863.5 244.653 1862.18 243.672C1860.9 242.691 1859.38 242.2 1857.63 242.2C1855.93 242.2 1854.41 242.691 1853.09 243.672C1851.81 244.653 1850.79 246.211 1850.02 248.344C1849.29 250.477 1848.93 253.229 1848.93 256.6C1848.93 259.971 1849.29 262.723 1850.02 264.856C1850.79 266.989 1851.81 268.547 1853.09 269.528C1854.41 270.509 1855.93 271 1857.63 271ZM1901.07 279.768C1897.4 279.768 1894.12 278.872 1891.22 277.08C1888.31 275.245 1886.03 272.6 1884.37 269.144C1882.7 265.688 1881.87 261.507 1881.87 256.6C1881.87 251.693 1882.7 247.512 1884.37 244.056C1886.03 240.6 1888.31 237.976 1891.22 236.184C1894.12 234.349 1897.4 233.432 1901.07 233.432C1904.78 233.432 1908.07 234.349 1910.93 236.184C1913.83 237.976 1916.11 240.6 1917.78 244.056C1919.44 247.512 1920.27 251.693 1920.27 256.6C1920.27 261.507 1919.44 265.688 1917.78 269.144C1916.11 272.6 1913.83 275.245 1910.93 277.08C1908.07 278.872 1904.78 279.768 1901.07 279.768ZM1901.07 271C1902.82 271 1904.34 270.509 1905.62 269.528C1906.94 268.547 1907.96 266.989 1908.69 264.856C1909.46 262.723 1909.84 259.971 1909.84 256.6C1909.84 253.229 1909.46 250.477 1908.69 248.344C1907.96 246.211 1906.94 244.653 1905.62 243.672C1904.34 242.691 1902.82 242.2 1901.07 242.2C1899.36 242.2 1897.85 242.691 1896.53 243.672C1895.25 244.653 1894.22 246.211 1893.46 248.344C1892.73 250.477 1892.37 253.229 1892.37 256.6C1892.37 259.971 1892.73 262.723 1893.46 264.856C1894.22 266.989 1895.25 268.547 1896.53 269.528C1897.85 270.509 1899.36 271 1901.07 271Z" fill="white"/>
<rect width="512" height="512" transform="translate(1024)" fill="#DEE3E5"/>
<path d="M1156.78 279V234.2H1177.13C1182 234.2 1186.28 235.139 1190 237.016C1193.71 238.851 1196.61 241.432 1198.7 244.76C1200.79 248.088 1201.84 252.035 1201.84 256.6C1201.84 261.123 1200.79 265.069 1198.7 268.44C1196.61 271.768 1193.71 274.371 1190 276.248C1186.28 278.083 1182 279 1177.13 279H1156.78ZM1167.15 270.488H1176.62C1179.61 270.488 1182.19 269.933 1184.36 268.824C1186.58 267.672 1188.29 266.051 1189.48 263.96C1190.72 261.869 1191.34 259.416 1191.34 256.6C1191.34 253.741 1190.72 251.288 1189.48 249.24C1188.29 247.149 1186.58 245.549 1184.36 244.44C1182.19 243.288 1179.61 242.712 1176.62 242.712H1167.15V270.488ZM1219.19 252.248H1240.76V260.312H1219.19V252.248ZM1219.96 270.68H1244.34V279H1209.66V234.2H1243.51V242.52H1219.96V270.68ZM1262.13 252.248H1283.7V260.312H1262.13V252.248ZM1262.9 270.68H1287.28V279H1252.59V234.2H1286.45V242.52H1262.9V270.68ZM1306.87 279.768C1303.75 279.768 1300.66 279.363 1297.59 278.552C1294.52 277.699 1291.91 276.504 1289.78 274.968L1293.81 267.032C1295.52 268.269 1297.5 269.251 1299.76 269.976C1302.03 270.701 1304.31 271.064 1306.61 271.064C1309.21 271.064 1311.26 270.552 1312.76 269.528C1314.25 268.504 1315 267.096 1315 265.304C1315 263.597 1314.33 262.253 1313.01 261.272C1311.69 260.291 1309.56 259.8 1306.61 259.8H1301.88V252.952L1314.36 238.808L1315.51 242.52H1292.02V234.2H1323.38V240.92L1310.96 255.064L1305.72 252.056H1308.72C1314.23 252.056 1318.39 253.293 1321.2 255.768C1324.02 258.243 1325.43 261.421 1325.43 265.304C1325.43 267.821 1324.77 270.189 1323.44 272.408C1322.12 274.584 1320.09 276.355 1317.36 277.72C1314.63 279.085 1311.13 279.768 1306.87 279.768ZM1342.57 252.248H1364.13V260.312H1342.57V252.248ZM1343.33 270.68H1367.72V279H1333.03V234.2H1366.89V242.52H1343.33V270.68ZM1388.2 279.768C1385.08 279.768 1381.99 279.363 1378.92 278.552C1375.89 277.699 1373.28 276.504 1371.11 274.968L1375.2 267.032C1376.91 268.269 1378.87 269.251 1381.09 269.976C1383.35 270.701 1385.64 271.064 1387.94 271.064C1390.54 271.064 1392.59 270.552 1394.08 269.528C1395.58 268.504 1396.32 267.075 1396.32 265.24C1396.32 264.088 1396.03 263.064 1395.43 262.168C1394.83 261.272 1393.76 260.589 1392.23 260.12C1390.74 259.651 1388.62 259.416 1385.89 259.416H1374.44L1376.74 234.2H1404.07V242.52H1380.45L1385.83 237.784L1384.23 255.768L1378.85 251.032H1388.32C1392.76 251.032 1396.32 251.651 1399.01 252.888C1401.74 254.083 1403.73 255.725 1404.96 257.816C1406.2 259.907 1406.82 262.275 1406.82 264.92C1406.82 267.565 1406.16 270.019 1404.84 272.28C1403.51 274.499 1401.47 276.312 1398.69 277.72C1395.96 279.085 1392.46 279.768 1388.2 279.768Z" fill="black"/>
<rect width="512" height="512" transform="translate(512)" fill="#4583C1"/>
<path d="M653.015 269.592V262.616L674.135 234.2H685.015L664.343 262.616L659.287 261.144H694.551V269.592H653.015ZM677.143 279V269.592L677.463 261.144V252.76H687.255V279H677.143ZM712.884 279.768C709.77 279.768 706.676 279.363 703.604 278.552C700.575 277.699 697.972 276.504 695.796 274.968L699.892 267.032C701.599 268.269 703.562 269.251 705.78 269.976C708.042 270.701 710.324 271.064 712.628 271.064C715.231 271.064 717.279 270.552 718.772 269.528C720.266 268.504 721.012 267.075 721.012 265.24C721.012 264.088 720.714 263.064 720.116 262.168C719.519 261.272 718.452 260.589 716.916 260.12C715.423 259.651 713.311 259.416 710.58 259.416H699.124L701.428 234.2H728.756V242.52H705.14L710.516 237.784L708.916 255.768L703.54 251.032H713.012C717.45 251.032 721.012 251.651 723.7 252.888C726.431 254.083 728.415 255.725 729.652 257.816C730.89 259.907 731.508 262.275 731.508 264.92C731.508 267.565 730.847 270.019 729.524 272.28C728.202 274.499 726.154 276.312 723.38 277.72C720.65 279.085 717.151 279.768 712.884 279.768ZM754.275 279.768C750.52 279.768 747.235 279.213 744.419 278.104C741.603 276.952 739.405 275.352 737.827 273.304C736.248 271.213 735.459 268.781 735.459 266.008C735.459 263.235 736.227 260.888 737.763 258.968C739.341 257.005 741.539 255.533 744.355 254.552C747.171 253.528 750.477 253.016 754.275 253.016C758.115 253.016 761.443 253.528 764.259 254.552C767.117 255.533 769.315 257.005 770.851 258.968C772.429 260.888 773.219 263.235 773.219 266.008C773.219 268.781 772.429 271.213 770.851 273.304C769.272 275.352 767.053 276.952 764.195 278.104C761.379 279.213 758.072 279.768 754.275 279.768ZM754.275 272.152C756.877 272.152 758.925 271.576 760.419 270.424C761.955 269.272 762.723 267.693 762.723 265.688C762.723 263.683 761.955 262.125 760.419 261.016C758.925 259.864 756.877 259.288 754.275 259.288C751.715 259.288 749.688 259.864 748.195 261.016C746.701 262.125 745.955 263.683 745.955 265.688C745.955 267.693 746.701 269.272 748.195 270.424C749.688 271.576 751.715 272.152 754.275 272.152ZM754.275 258.264C750.819 258.264 747.789 257.795 745.187 256.856C742.627 255.917 740.621 254.552 739.171 252.76C737.763 250.925 737.059 248.749 737.059 246.232C737.059 243.587 737.784 241.325 739.235 239.448C740.685 237.528 742.712 236.056 745.315 235.032C747.917 233.965 750.904 233.432 754.275 233.432C757.731 233.432 760.739 233.965 763.299 235.032C765.901 236.056 767.928 237.528 769.379 239.448C770.872 241.325 771.619 243.587 771.619 246.232C771.619 248.749 770.893 250.925 769.443 252.76C768.035 254.552 766.029 255.917 763.427 256.856C760.824 257.795 757.773 258.264 754.275 258.264ZM754.275 252.184C756.451 252.184 758.157 251.693 759.395 250.712C760.675 249.731 761.315 248.387 761.315 246.68C761.315 244.888 760.653 243.501 759.331 242.52C758.051 241.539 756.365 241.048 754.275 241.048C752.227 241.048 750.563 241.539 749.283 242.52C748.003 243.501 747.363 244.888 747.363 246.68C747.363 248.387 747.981 249.731 749.219 250.712C750.456 251.693 752.141 252.184 754.275 252.184ZM792.493 279.768C789.378 279.768 786.285 279.363 783.213 278.552C780.141 277.699 777.538 276.504 775.405 274.968L779.437 267.032C781.143 268.269 783.127 269.251 785.389 269.976C787.65 270.701 789.933 271.064 792.237 271.064C794.839 271.064 796.887 270.552 798.381 269.528C799.874 268.504 800.621 267.096 800.621 265.304C800.621 263.597 799.959 262.253 798.637 261.272C797.314 260.291 795.181 259.8 792.237 259.8H787.501V252.952L799.981 238.808L801.133 242.52H777.645V234.2H809.005V240.92L796.589 255.064L791.341 252.056H794.349C799.853 252.056 804.013 253.293 806.829 255.768C809.645 258.243 811.053 261.421 811.053 265.304C811.053 267.821 810.391 270.189 809.069 272.408C807.746 274.584 805.719 276.355 802.989 277.72C800.258 279.085 796.759 279.768 792.493 279.768ZM840.096 279.768C836.64 279.768 833.418 279.213 830.432 278.104C827.488 276.952 824.928 275.331 822.752 273.24C820.576 271.149 818.869 268.696 817.632 265.88C816.437 263.064 815.84 259.971 815.84 256.6C815.84 253.229 816.437 250.136 817.632 247.32C818.869 244.504 820.576 242.051 822.752 239.96C824.97 237.869 827.552 236.269 830.496 235.16C833.44 234.008 836.661 233.432 840.16 233.432C844.042 233.432 847.541 234.115 850.656 235.48C853.813 236.803 856.458 238.765 858.592 241.368L851.936 247.512C850.4 245.763 848.693 244.461 846.816 243.608C844.938 242.712 842.89 242.264 840.672 242.264C838.581 242.264 836.661 242.605 834.912 243.288C833.162 243.971 831.648 244.952 830.368 246.232C829.088 247.512 828.085 249.027 827.36 250.776C826.677 252.525 826.336 254.467 826.336 256.6C826.336 258.733 826.677 260.675 827.36 262.424C828.085 264.173 829.088 265.688 830.368 266.968C831.648 268.248 833.162 269.229 834.912 269.912C836.661 270.595 838.581 270.936 840.672 270.936C842.89 270.936 844.938 270.509 846.816 269.656C848.693 268.76 850.4 267.416 851.936 265.624L858.592 271.768C856.458 274.371 853.813 276.355 850.656 277.72C847.541 279.085 844.021 279.768 840.096 279.768ZM870.314 279V238.04L874.794 242.52H861.354V234.2H880.682V279H870.314Z" fill="white"/>
<rect width="512" height="512" fill="#E94C8E"/>
<path d="M140.942 252.248H162.51V260.312H140.942V252.248ZM141.71 270.68H166.094V279H131.406V234.2H165.262V242.52H141.71V270.68ZM187.271 233.432C191.41 233.432 194.973 234.285 197.959 235.992C200.946 237.699 203.25 240.195 204.871 243.48C206.493 246.723 207.303 250.776 207.303 255.64C207.303 260.803 206.322 265.176 204.359 268.76C202.439 272.344 199.773 275.075 196.359 276.952C192.946 278.829 188.978 279.768 184.455 279.768C182.109 279.768 179.847 279.512 177.671 279C175.495 278.488 173.618 277.72 172.039 276.696L175.879 269.08C177.117 269.933 178.439 270.531 179.847 270.872C181.255 271.171 182.727 271.32 184.263 271.32C188.103 271.32 191.154 270.147 193.415 267.8C195.719 265.453 196.871 261.976 196.871 257.368C196.871 256.6 196.85 255.747 196.807 254.808C196.765 253.869 196.658 252.931 196.487 251.992L199.303 254.68C198.578 256.344 197.554 257.752 196.231 258.904C194.909 260.013 193.373 260.867 191.623 261.464C189.874 262.019 187.911 262.296 185.735 262.296C182.877 262.296 180.274 261.72 177.927 260.568C175.623 259.416 173.767 257.795 172.359 255.704C170.994 253.613 170.311 251.16 170.311 248.344C170.311 245.272 171.058 242.627 172.551 240.408C174.087 238.189 176.135 236.483 178.695 235.288C181.298 234.051 184.157 233.432 187.271 233.432ZM187.911 241.176C186.418 241.176 185.117 241.453 184.007 242.008C182.898 242.52 182.023 243.288 181.383 244.312C180.743 245.293 180.423 246.467 180.423 247.832C180.423 249.88 181.106 251.523 182.471 252.76C183.879 253.955 185.735 254.552 188.039 254.552C189.533 254.552 190.855 254.275 192.007 253.72C193.202 253.123 194.119 252.312 194.759 251.288C195.399 250.264 195.719 249.112 195.719 247.832C195.719 246.552 195.399 245.421 194.759 244.44C194.162 243.416 193.287 242.627 192.135 242.072C190.983 241.475 189.575 241.176 187.911 241.176ZM211.765 269.592V262.616L232.885 234.2H243.765L223.093 262.616L218.037 261.144H253.301V269.592H211.765ZM235.893 279V269.592L236.213 261.144V252.76H246.005V279H235.893ZM281.283 279.768C277.827 279.768 274.606 279.213 271.619 278.104C268.675 276.952 266.115 275.331 263.939 273.24C261.763 271.149 260.057 268.696 258.819 265.88C257.625 263.064 257.027 259.971 257.027 256.6C257.027 253.229 257.625 250.136 258.819 247.32C260.057 244.504 261.763 242.051 263.939 239.96C266.158 237.869 268.739 236.269 271.683 235.16C274.627 234.008 277.849 233.432 281.347 233.432C285.23 233.432 288.729 234.115 291.843 235.48C295.001 236.803 297.646 238.765 299.779 241.368L293.123 247.512C291.587 245.763 289.881 244.461 288.003 243.608C286.126 242.712 284.078 242.264 281.859 242.264C279.769 242.264 277.849 242.605 276.099 243.288C274.35 243.971 272.835 244.952 271.555 246.232C270.275 247.512 269.273 249.027 268.547 250.776C267.865 252.525 267.523 254.467 267.523 256.6C267.523 258.733 267.865 260.675 268.547 262.424C269.273 264.173 270.275 265.688 271.555 266.968C272.835 268.248 274.35 269.229 276.099 269.912C277.849 270.595 279.769 270.936 281.859 270.936C284.078 270.936 286.126 270.509 288.003 269.656C289.881 268.76 291.587 267.416 293.123 265.624L299.779 271.768C297.646 274.371 295.001 276.355 291.843 277.72C288.729 279.085 285.209 279.768 281.283 279.768ZM321.775 279.768C318.02 279.768 314.735 279.213 311.919 278.104C309.103 276.952 306.905 275.352 305.327 273.304C303.748 271.213 302.959 268.781 302.959 266.008C302.959 263.235 303.727 260.888 305.263 258.968C306.841 257.005 309.039 255.533 311.855 254.552C314.671 253.528 317.977 253.016 321.775 253.016C325.615 253.016 328.943 253.528 331.759 254.552C334.617 255.533 336.815 257.005 338.351 258.968C339.929 260.888 340.719 263.235 340.719 266.008C340.719 268.781 339.929 271.213 338.351 273.304C336.772 275.352 334.553 276.952 331.695 278.104C328.879 279.213 325.572 279.768 321.775 279.768ZM321.775 272.152C324.377 272.152 326.425 271.576 327.919 270.424C329.455 269.272 330.223 267.693 330.223 265.688C330.223 263.683 329.455 262.125 327.919 261.016C326.425 259.864 324.377 259.288 321.775 259.288C319.215 259.288 317.188 259.864 315.695 261.016C314.201 262.125 313.455 263.683 313.455 265.688C313.455 267.693 314.201 269.272 315.695 270.424C317.188 271.576 319.215 272.152 321.775 272.152ZM321.775 258.264C318.319 258.264 315.289 257.795 312.687 256.856C310.127 255.917 308.121 254.552 306.671 252.76C305.263 250.925 304.559 248.749 304.559 246.232C304.559 243.587 305.284 241.325 306.735 239.448C308.185 237.528 310.212 236.056 312.815 235.032C315.417 233.965 318.404 233.432 321.775 233.432C325.231 233.432 328.239 233.965 330.799 235.032C333.401 236.056 335.428 237.528 336.879 239.448C338.372 241.325 339.119 243.587 339.119 246.232C339.119 248.749 338.393 250.925 336.943 252.76C335.535 254.552 333.529 255.917 330.927 256.856C328.324 257.795 325.273 258.264 321.775 258.264ZM321.775 252.184C323.951 252.184 325.657 251.693 326.895 250.712C328.175 249.731 328.815 248.387 328.815 246.68C328.815 244.888 328.153 243.501 326.831 242.52C325.551 241.539 323.865 241.048 321.775 241.048C319.727 241.048 318.063 241.539 316.783 242.52C315.503 243.501 314.863 244.888 314.863 246.68C314.863 248.387 315.481 249.731 316.719 250.712C317.956 251.693 319.641 252.184 321.775 252.184ZM357.817 252.248H379.385V260.312H357.817V252.248ZM358.585 270.68H382.969V279H348.281V234.2H382.137V242.52H358.585V270.68Z" fill="white"/>
</svg>
