<svg width="2128" height="592" viewBox="0 0 2128 592" fill="none" xmlns="http://www.w3.org/2000/svg">
<rect width="512" height="512" transform="translate(1576 40)" fill="black"/>
<path d="M1723.88 319.768C1720.21 319.768 1716.93 318.872 1714.03 317.08C1711.13 315.245 1708.84 312.6 1707.18 309.144C1705.52 305.688 1704.68 301.507 1704.68 296.6C1704.68 291.693 1705.52 287.512 1707.18 284.056C1708.84 280.6 1711.13 277.976 1714.03 276.184C1716.93 274.349 1720.21 273.432 1723.88 273.432C1727.6 273.432 1730.88 274.349 1733.74 276.184C1736.64 277.976 1738.92 280.6 1740.59 284.056C1742.25 287.512 1743.08 291.693 1743.08 296.6C1743.08 301.507 1742.25 305.688 1740.59 309.144C1738.92 312.6 1736.64 315.245 1733.74 317.08C1730.88 318.872 1727.6 319.768 1723.88 319.768ZM1723.88 311C1725.63 311 1727.15 310.509 1728.43 309.528C1729.75 308.547 1730.77 306.989 1731.5 304.856C1732.27 302.723 1732.65 299.971 1732.65 296.6C1732.65 293.229 1732.27 290.477 1731.5 288.344C1730.77 286.211 1729.75 284.653 1728.43 283.672C1727.15 282.691 1725.63 282.2 1723.88 282.2C1722.18 282.2 1720.66 282.691 1719.34 283.672C1718.06 284.653 1717.04 286.211 1716.27 288.344C1715.54 290.477 1715.18 293.229 1715.18 296.6C1715.18 299.971 1715.54 302.723 1716.27 304.856C1717.04 306.989 1718.06 308.547 1719.34 309.528C1720.66 310.509 1722.18 311 1723.88 311ZM1767.32 319.768C1763.65 319.768 1760.37 318.872 1757.47 317.08C1754.56 315.245 1752.28 312.6 1750.62 309.144C1748.95 305.688 1748.12 301.507 1748.12 296.6C1748.12 291.693 1748.95 287.512 1750.62 284.056C1752.28 280.6 1754.56 277.976 1757.47 276.184C1760.37 274.349 1763.65 273.432 1767.32 273.432C1771.03 273.432 1774.32 274.349 1777.18 276.184C1780.08 277.976 1782.36 280.6 1784.03 284.056C1785.69 287.512 1786.52 291.693 1786.52 296.6C1786.52 301.507 1785.69 305.688 1784.03 309.144C1782.36 312.6 1780.08 315.245 1777.18 317.08C1774.32 318.872 1771.03 319.768 1767.32 319.768ZM1767.32 311C1769.07 311 1770.59 310.509 1771.87 309.528C1773.19 308.547 1774.21 306.989 1774.94 304.856C1775.71 302.723 1776.09 299.971 1776.09 296.6C1776.09 293.229 1775.71 290.477 1774.94 288.344C1774.21 286.211 1773.19 284.653 1771.87 283.672C1770.59 282.691 1769.07 282.2 1767.32 282.2C1765.61 282.2 1764.1 282.691 1762.78 283.672C1761.5 284.653 1760.47 286.211 1759.71 288.344C1758.98 290.477 1758.62 293.229 1758.62 296.6C1758.62 299.971 1758.98 302.723 1759.71 304.856C1760.47 306.989 1761.5 308.547 1762.78 309.528C1764.1 310.509 1765.61 311 1767.32 311ZM1810.76 319.768C1807.09 319.768 1803.8 318.872 1800.9 317.08C1798 315.245 1795.72 312.6 1794.05 309.144C1792.39 305.688 1791.56 301.507 1791.56 296.6C1791.56 291.693 1792.39 287.512 1794.05 284.056C1795.72 280.6 1798 277.976 1800.9 276.184C1803.8 274.349 1807.09 273.432 1810.76 273.432C1814.47 273.432 1817.76 274.349 1820.61 276.184C1823.52 277.976 1825.8 280.6 1827.46 284.056C1829.13 287.512 1829.96 291.693 1829.96 296.6C1829.96 301.507 1829.13 305.688 1827.46 309.144C1825.8 312.6 1823.52 315.245 1820.61 317.08C1817.76 318.872 1814.47 319.768 1810.76 319.768ZM1810.76 311C1812.51 311 1814.02 310.509 1815.3 309.528C1816.63 308.547 1817.65 306.989 1818.37 304.856C1819.14 302.723 1819.53 299.971 1819.53 296.6C1819.53 293.229 1819.14 290.477 1818.37 288.344C1817.65 286.211 1816.63 284.653 1815.3 283.672C1814.02 282.691 1812.51 282.2 1810.76 282.2C1809.05 282.2 1807.54 282.691 1806.21 283.672C1804.93 284.653 1803.91 286.211 1803.14 288.344C1802.42 290.477 1802.05 293.229 1802.05 296.6C1802.05 299.971 1802.42 302.723 1803.14 304.856C1803.91 306.989 1804.93 308.547 1806.21 309.528C1807.54 310.509 1809.05 311 1810.76 311ZM1854.2 319.768C1850.53 319.768 1847.24 318.872 1844.34 317.08C1841.44 315.245 1839.16 312.6 1837.49 309.144C1835.83 305.688 1835 301.507 1835 296.6C1835 291.693 1835.83 287.512 1837.49 284.056C1839.16 280.6 1841.44 277.976 1844.34 276.184C1847.24 274.349 1850.53 273.432 1854.2 273.432C1857.91 273.432 1861.19 274.349 1864.05 276.184C1866.95 277.976 1869.24 280.6 1870.9 284.056C1872.56 287.512 1873.4 291.693 1873.4 296.6C1873.4 301.507 1872.56 305.688 1870.9 309.144C1869.24 312.6 1866.95 315.245 1864.05 317.08C1861.19 318.872 1857.91 319.768 1854.2 319.768ZM1854.2 311C1855.95 311 1857.46 310.509 1858.74 309.528C1860.06 308.547 1861.09 306.989 1861.81 304.856C1862.58 302.723 1862.96 299.971 1862.96 296.6C1862.96 293.229 1862.58 290.477 1861.81 288.344C1861.09 286.211 1860.06 284.653 1858.74 283.672C1857.46 282.691 1855.95 282.2 1854.2 282.2C1852.49 282.2 1850.97 282.691 1849.65 283.672C1848.37 284.653 1847.35 286.211 1846.58 288.344C1845.85 290.477 1845.49 293.229 1845.49 296.6C1845.49 299.971 1845.85 302.723 1846.58 304.856C1847.35 306.989 1848.37 308.547 1849.65 309.528C1850.97 310.509 1852.49 311 1854.2 311ZM1897.63 319.768C1893.96 319.768 1890.68 318.872 1887.78 317.08C1884.88 315.245 1882.59 312.6 1880.93 309.144C1879.27 305.688 1878.43 301.507 1878.43 296.6C1878.43 291.693 1879.27 287.512 1880.93 284.056C1882.59 280.6 1884.88 277.976 1887.78 276.184C1890.68 274.349 1893.96 273.432 1897.63 273.432C1901.35 273.432 1904.63 274.349 1907.49 276.184C1910.39 277.976 1912.67 280.6 1914.34 284.056C1916 287.512 1916.83 291.693 1916.83 296.6C1916.83 301.507 1916 305.688 1914.34 309.144C1912.67 312.6 1910.39 315.245 1907.49 317.08C1904.63 318.872 1901.35 319.768 1897.63 319.768ZM1897.63 311C1899.38 311 1900.9 310.509 1902.18 309.528C1903.5 308.547 1904.52 306.989 1905.25 304.856C1906.02 302.723 1906.4 299.971 1906.4 296.6C1906.4 293.229 1906.02 290.477 1905.25 288.344C1904.52 286.211 1903.5 284.653 1902.18 283.672C1900.9 282.691 1899.38 282.2 1897.63 282.2C1895.93 282.2 1894.41 282.691 1893.09 283.672C1891.81 284.653 1890.79 286.211 1890.02 288.344C1889.29 290.477 1888.93 293.229 1888.93 296.6C1888.93 299.971 1889.29 302.723 1890.02 304.856C1890.79 306.989 1891.81 308.547 1893.09 309.528C1894.41 310.509 1895.93 311 1897.63 311ZM1941.07 319.768C1937.4 319.768 1934.12 318.872 1931.22 317.08C1928.31 315.245 1926.03 312.6 1924.37 309.144C1922.7 305.688 1921.87 301.507 1921.87 296.6C1921.87 291.693 1922.7 287.512 1924.37 284.056C1926.03 280.6 1928.31 277.976 1931.22 276.184C1934.12 274.349 1937.4 273.432 1941.07 273.432C1944.78 273.432 1948.07 274.349 1950.93 276.184C1953.83 277.976 1956.11 280.6 1957.78 284.056C1959.44 287.512 1960.27 291.693 1960.27 296.6C1960.27 301.507 1959.44 305.688 1957.78 309.144C1956.11 312.6 1953.83 315.245 1950.93 317.08C1948.07 318.872 1944.78 319.768 1941.07 319.768ZM1941.07 311C1942.82 311 1944.34 310.509 1945.62 309.528C1946.94 308.547 1947.96 306.989 1948.69 304.856C1949.46 302.723 1949.84 299.971 1949.84 296.6C1949.84 293.229 1949.46 290.477 1948.69 288.344C1947.96 286.211 1946.94 284.653 1945.62 283.672C1944.34 282.691 1942.82 282.2 1941.07 282.2C1939.36 282.2 1937.85 282.691 1936.53 283.672C1935.25 284.653 1934.22 286.211 1933.46 288.344C1932.73 290.477 1932.37 293.229 1932.37 296.6C1932.37 299.971 1932.73 302.723 1933.46 304.856C1934.22 306.989 1935.25 308.547 1936.53 309.528C1937.85 310.509 1939.36 311 1941.07 311Z" fill="white"/>
<rect width="512" height="512" transform="translate(1064 40)" fill="#DEE3E5"/>
<path d="M1196.78 319V274.2H1217.13C1222 274.2 1226.28 275.139 1230 277.016C1233.71 278.851 1236.61 281.432 1238.7 284.76C1240.79 288.088 1241.84 292.035 1241.84 296.6C1241.84 301.123 1240.79 305.069 1238.7 308.44C1236.61 311.768 1233.71 314.371 1230 316.248C1226.28 318.083 1222 319 1217.13 319H1196.78ZM1207.15 310.488H1216.62C1219.61 310.488 1222.19 309.933 1224.36 308.824C1226.58 307.672 1228.29 306.051 1229.48 303.96C1230.72 301.869 1231.34 299.416 1231.34 296.6C1231.34 293.741 1230.72 291.288 1229.48 289.24C1228.29 287.149 1226.58 285.549 1224.36 284.44C1222.19 283.288 1219.61 282.712 1216.62 282.712H1207.15V310.488ZM1259.19 292.248H1280.76V300.312H1259.19V292.248ZM1259.96 310.68H1284.34V319H1249.66V274.2H1283.51V282.52H1259.96V310.68ZM1302.13 292.248H1323.7V300.312H1302.13V292.248ZM1302.9 310.68H1327.28V319H1292.59V274.2H1326.45V282.52H1302.9V310.68ZM1346.87 319.768C1343.75 319.768 1340.66 319.363 1337.59 318.552C1334.52 317.699 1331.91 316.504 1329.78 314.968L1333.81 307.032C1335.52 308.269 1337.5 309.251 1339.76 309.976C1342.03 310.701 1344.31 311.064 1346.61 311.064C1349.21 311.064 1351.26 310.552 1352.76 309.528C1354.25 308.504 1355 307.096 1355 305.304C1355 303.597 1354.33 302.253 1353.01 301.272C1351.69 300.291 1349.56 299.8 1346.61 299.8H1341.88V292.952L1354.36 278.808L1355.51 282.52H1332.02V274.2H1363.38V280.92L1350.96 295.064L1345.72 292.056H1348.72C1354.23 292.056 1358.39 293.293 1361.2 295.768C1364.02 298.243 1365.43 301.421 1365.43 305.304C1365.43 307.821 1364.77 310.189 1363.44 312.408C1362.12 314.584 1360.09 316.355 1357.36 317.72C1354.63 319.085 1351.13 319.768 1346.87 319.768ZM1382.57 292.248H1404.13V300.312H1382.57V292.248ZM1383.33 310.68H1407.72V319H1373.03V274.2H1406.89V282.52H1383.33V310.68ZM1428.2 319.768C1425.08 319.768 1421.99 319.363 1418.92 318.552C1415.89 317.699 1413.28 316.504 1411.11 314.968L1415.2 307.032C1416.91 308.269 1418.87 309.251 1421.09 309.976C1423.35 310.701 1425.64 311.064 1427.94 311.064C1430.54 311.064 1432.59 310.552 1434.08 309.528C1435.58 308.504 1436.32 307.075 1436.32 305.24C1436.32 304.088 1436.03 303.064 1435.43 302.168C1434.83 301.272 1433.76 300.589 1432.23 300.12C1430.74 299.651 1428.62 299.416 1425.89 299.416H1414.44L1416.74 274.2H1444.07V282.52H1420.45L1425.83 277.784L1424.23 295.768L1418.85 291.032H1428.32C1432.76 291.032 1436.32 291.651 1439.01 292.888C1441.74 294.083 1443.73 295.725 1444.96 297.816C1446.2 299.907 1446.82 302.275 1446.82 304.92C1446.82 307.565 1446.16 310.019 1444.84 312.28C1443.51 314.499 1441.47 316.312 1438.69 317.72C1435.96 319.085 1432.46 319.768 1428.2 319.768Z" fill="black"/>
<rect width="512" height="512" transform="translate(552 40)" fill="#4583C1"/>
<path d="M693.015 309.592V302.616L714.135 274.2H725.015L704.343 302.616L699.287 301.144H734.551V309.592H693.015ZM717.143 319V309.592L717.463 301.144V292.76H727.255V319H717.143ZM752.884 319.768C749.77 319.768 746.676 319.363 743.604 318.552C740.575 317.699 737.972 316.504 735.796 314.968L739.892 307.032C741.599 308.269 743.562 309.251 745.78 309.976C748.042 310.701 750.324 311.064 752.628 311.064C755.231 311.064 757.279 310.552 758.772 309.528C760.266 308.504 761.012 307.075 761.012 305.24C761.012 304.088 760.714 303.064 760.116 302.168C759.519 301.272 758.452 300.589 756.916 300.12C755.423 299.651 753.311 299.416 750.58 299.416H739.124L741.428 274.2H768.756V282.52H745.14L750.516 277.784L748.916 295.768L743.54 291.032H753.012C757.45 291.032 761.012 291.651 763.7 292.888C766.431 294.083 768.415 295.725 769.652 297.816C770.89 299.907 771.508 302.275 771.508 304.92C771.508 307.565 770.847 310.019 769.524 312.28C768.202 314.499 766.154 316.312 763.38 317.72C760.65 319.085 757.151 319.768 752.884 319.768ZM794.275 319.768C790.52 319.768 787.235 319.213 784.419 318.104C781.603 316.952 779.405 315.352 777.827 313.304C776.248 311.213 775.459 308.781 775.459 306.008C775.459 303.235 776.227 300.888 777.763 298.968C779.341 297.005 781.539 295.533 784.355 294.552C787.171 293.528 790.477 293.016 794.275 293.016C798.115 293.016 801.443 293.528 804.259 294.552C807.117 295.533 809.315 297.005 810.851 298.968C812.429 300.888 813.219 303.235 813.219 306.008C813.219 308.781 812.429 311.213 810.851 313.304C809.272 315.352 807.053 316.952 804.195 318.104C801.379 319.213 798.072 319.768 794.275 319.768ZM794.275 312.152C796.877 312.152 798.925 311.576 800.419 310.424C801.955 309.272 802.723 307.693 802.723 305.688C802.723 303.683 801.955 302.125 800.419 301.016C798.925 299.864 796.877 299.288 794.275 299.288C791.715 299.288 789.688 299.864 788.195 301.016C786.701 302.125 785.955 303.683 785.955 305.688C785.955 307.693 786.701 309.272 788.195 310.424C789.688 311.576 791.715 312.152 794.275 312.152ZM794.275 298.264C790.819 298.264 787.789 297.795 785.187 296.856C782.627 295.917 780.621 294.552 779.171 292.76C777.763 290.925 777.059 288.749 777.059 286.232C777.059 283.587 777.784 281.325 779.235 279.448C780.685 277.528 782.712 276.056 785.315 275.032C787.917 273.965 790.904 273.432 794.275 273.432C797.731 273.432 800.739 273.965 803.299 275.032C805.901 276.056 807.928 277.528 809.379 279.448C810.872 281.325 811.619 283.587 811.619 286.232C811.619 288.749 810.893 290.925 809.443 292.76C808.035 294.552 806.029 295.917 803.427 296.856C800.824 297.795 797.773 298.264 794.275 298.264ZM794.275 292.184C796.451 292.184 798.157 291.693 799.395 290.712C800.675 289.731 801.315 288.387 801.315 286.68C801.315 284.888 800.653 283.501 799.331 282.52C798.051 281.539 796.365 281.048 794.275 281.048C792.227 281.048 790.563 281.539 789.283 282.52C788.003 283.501 787.363 284.888 787.363 286.68C787.363 288.387 787.981 289.731 789.219 290.712C790.456 291.693 792.141 292.184 794.275 292.184ZM832.493 319.768C829.378 319.768 826.285 319.363 823.213 318.552C820.141 317.699 817.538 316.504 815.405 314.968L819.437 307.032C821.143 308.269 823.127 309.251 825.389 309.976C827.65 310.701 829.933 311.064 832.237 311.064C834.839 311.064 836.887 310.552 838.381 309.528C839.874 308.504 840.621 307.096 840.621 305.304C840.621 303.597 839.959 302.253 838.637 301.272C837.314 300.291 835.181 299.8 832.237 299.8H827.501V292.952L839.981 278.808L841.133 282.52H817.645V274.2H849.005V280.92L836.589 295.064L831.341 292.056H834.349C839.853 292.056 844.013 293.293 846.829 295.768C849.645 298.243 851.053 301.421 851.053 305.304C851.053 307.821 850.391 310.189 849.069 312.408C847.746 314.584 845.719 316.355 842.989 317.72C840.258 319.085 836.759 319.768 832.493 319.768ZM880.096 319.768C876.64 319.768 873.418 319.213 870.432 318.104C867.488 316.952 864.928 315.331 862.752 313.24C860.576 311.149 858.869 308.696 857.632 305.88C856.437 303.064 855.84 299.971 855.84 296.6C855.84 293.229 856.437 290.136 857.632 287.32C858.869 284.504 860.576 282.051 862.752 279.96C864.97 277.869 867.552 276.269 870.496 275.16C873.44 274.008 876.661 273.432 880.16 273.432C884.042 273.432 887.541 274.115 890.656 275.48C893.813 276.803 896.458 278.765 898.592 281.368L891.936 287.512C890.4 285.763 888.693 284.461 886.816 283.608C884.938 282.712 882.89 282.264 880.672 282.264C878.581 282.264 876.661 282.605 874.912 283.288C873.162 283.971 871.648 284.952 870.368 286.232C869.088 287.512 868.085 289.027 867.36 290.776C866.677 292.525 866.336 294.467 866.336 296.6C866.336 298.733 866.677 300.675 867.36 302.424C868.085 304.173 869.088 305.688 870.368 306.968C871.648 308.248 873.162 309.229 874.912 309.912C876.661 310.595 878.581 310.936 880.672 310.936C882.89 310.936 884.938 310.509 886.816 309.656C888.693 308.76 890.4 307.416 891.936 305.624L898.592 311.768C896.458 314.371 893.813 316.355 890.656 317.72C887.541 319.085 884.021 319.768 880.096 319.768ZM910.314 319V278.04L914.794 282.52H901.354V274.2H920.682V319H910.314Z" fill="white"/>
<rect width="512" height="512" transform="translate(40 40)" fill="#E94C8E"/>
<path d="M180.942 292.248H202.51V300.312H180.942V292.248ZM181.71 310.68H206.094V319H171.406V274.2H205.262V282.52H181.71V310.68ZM227.271 273.432C231.41 273.432 234.973 274.285 237.959 275.992C240.946 277.699 243.25 280.195 244.871 283.48C246.493 286.723 247.303 290.776 247.303 295.64C247.303 300.803 246.322 305.176 244.359 308.76C242.439 312.344 239.773 315.075 236.359 316.952C232.946 318.829 228.978 319.768 224.455 319.768C222.109 319.768 219.847 319.512 217.671 319C215.495 318.488 213.618 317.72 212.039 316.696L215.879 309.08C217.117 309.933 218.439 310.531 219.847 310.872C221.255 311.171 222.727 311.32 224.263 311.32C228.103 311.32 231.154 310.147 233.415 307.8C235.719 305.453 236.871 301.976 236.871 297.368C236.871 296.6 236.85 295.747 236.807 294.808C236.765 293.869 236.658 292.931 236.487 291.992L239.303 294.68C238.578 296.344 237.554 297.752 236.231 298.904C234.909 300.013 233.373 300.867 231.623 301.464C229.874 302.019 227.911 302.296 225.735 302.296C222.877 302.296 220.274 301.72 217.927 300.568C215.623 299.416 213.767 297.795 212.359 295.704C210.994 293.613 210.311 291.16 210.311 288.344C210.311 285.272 211.058 282.627 212.551 280.408C214.087 278.189 216.135 276.483 218.695 275.288C221.298 274.051 224.157 273.432 227.271 273.432ZM227.911 281.176C226.418 281.176 225.117 281.453 224.007 282.008C222.898 282.52 222.023 283.288 221.383 284.312C220.743 285.293 220.423 286.467 220.423 287.832C220.423 289.88 221.106 291.523 222.471 292.76C223.879 293.955 225.735 294.552 228.039 294.552C229.533 294.552 230.855 294.275 232.007 293.72C233.202 293.123 234.119 292.312 234.759 291.288C235.399 290.264 235.719 289.112 235.719 287.832C235.719 286.552 235.399 285.421 234.759 284.44C234.162 283.416 233.287 282.627 232.135 282.072C230.983 281.475 229.575 281.176 227.911 281.176ZM251.765 309.592V302.616L272.885 274.2H283.765L263.093 302.616L258.037 301.144H293.301V309.592H251.765ZM275.893 319V309.592L276.213 301.144V292.76H286.005V319H275.893ZM321.283 319.768C317.827 319.768 314.606 319.213 311.619 318.104C308.675 316.952 306.115 315.331 303.939 313.24C301.763 311.149 300.057 308.696 298.819 305.88C297.625 303.064 297.027 299.971 297.027 296.6C297.027 293.229 297.625 290.136 298.819 287.32C300.057 284.504 301.763 282.051 303.939 279.96C306.158 277.869 308.739 276.269 311.683 275.16C314.627 274.008 317.849 273.432 321.347 273.432C325.23 273.432 328.729 274.115 331.843 275.48C335.001 276.803 337.646 278.765 339.779 281.368L333.123 287.512C331.587 285.763 329.881 284.461 328.003 283.608C326.126 282.712 324.078 282.264 321.859 282.264C319.769 282.264 317.849 282.605 316.099 283.288C314.35 283.971 312.835 284.952 311.555 286.232C310.275 287.512 309.273 289.027 308.547 290.776C307.865 292.525 307.523 294.467 307.523 296.6C307.523 298.733 307.865 300.675 308.547 302.424C309.273 304.173 310.275 305.688 311.555 306.968C312.835 308.248 314.35 309.229 316.099 309.912C317.849 310.595 319.769 310.936 321.859 310.936C324.078 310.936 326.126 310.509 328.003 309.656C329.881 308.76 331.587 307.416 333.123 305.624L339.779 311.768C337.646 314.371 335.001 316.355 331.843 317.72C328.729 319.085 325.209 319.768 321.283 319.768ZM361.775 319.768C358.02 319.768 354.735 319.213 351.919 318.104C349.103 316.952 346.905 315.352 345.327 313.304C343.748 311.213 342.959 308.781 342.959 306.008C342.959 303.235 343.727 300.888 345.263 298.968C346.841 297.005 349.039 295.533 351.855 294.552C354.671 293.528 357.977 293.016 361.775 293.016C365.615 293.016 368.943 293.528 371.759 294.552C374.617 295.533 376.815 297.005 378.351 298.968C379.929 300.888 380.719 303.235 380.719 306.008C380.719 308.781 379.929 311.213 378.351 313.304C376.772 315.352 374.553 316.952 371.695 318.104C368.879 319.213 365.572 319.768 361.775 319.768ZM361.775 312.152C364.377 312.152 366.425 311.576 367.919 310.424C369.455 309.272 370.223 307.693 370.223 305.688C370.223 303.683 369.455 302.125 367.919 301.016C366.425 299.864 364.377 299.288 361.775 299.288C359.215 299.288 357.188 299.864 355.695 301.016C354.201 302.125 353.455 303.683 353.455 305.688C353.455 307.693 354.201 309.272 355.695 310.424C357.188 311.576 359.215 312.152 361.775 312.152ZM361.775 298.264C358.319 298.264 355.289 297.795 352.687 296.856C350.127 295.917 348.121 294.552 346.671 292.76C345.263 290.925 344.559 288.749 344.559 286.232C344.559 283.587 345.284 281.325 346.735 279.448C348.185 277.528 350.212 276.056 352.815 275.032C355.417 273.965 358.404 273.432 361.775 273.432C365.231 273.432 368.239 273.965 370.799 275.032C373.401 276.056 375.428 277.528 376.879 279.448C378.372 281.325 379.119 283.587 379.119 286.232C379.119 288.749 378.393 290.925 376.943 292.76C375.535 294.552 373.529 295.917 370.927 296.856C368.324 297.795 365.273 298.264 361.775 298.264ZM361.775 292.184C363.951 292.184 365.657 291.693 366.895 290.712C368.175 289.731 368.815 288.387 368.815 286.68C368.815 284.888 368.153 283.501 366.831 282.52C365.551 281.539 363.865 281.048 361.775 281.048C359.727 281.048 358.063 281.539 356.783 282.52C355.503 283.501 354.863 284.888 354.863 286.68C354.863 288.387 355.481 289.731 356.719 290.712C357.956 291.693 359.641 292.184 361.775 292.184ZM397.817 292.248H419.385V300.312H397.817V292.248ZM398.585 310.68H422.969V319H388.281V274.2H422.137V282.52H398.585V310.68Z" fill="white"/>
<rect x="40" y="4" width="45.5781" height="30" rx="3" fill="#444444"/>
<rect x="40.5" y="4.5" width="44.5781" height="29" rx="2.5" stroke="white" stroke-opacity="0.0980392"/>
<path d="M53.4063 16.5H52.4375C52.3802 16.2214 52.2799 15.9766 52.1367 15.7656C51.9961 15.5547 51.8242 15.3776 51.6211 15.2344C51.4206 15.0885 51.1979 14.9792 50.9531 14.9062C50.7083 14.8333 50.4531 14.7969 50.1875 14.7969C49.7031 14.7969 49.2643 14.9193 48.8711 15.1641C48.4805 15.4089 48.1693 15.7695 47.9375 16.2461C47.7083 16.7227 47.5938 17.3073 47.5938 18C47.5938 18.6927 47.7083 19.2773 47.9375 19.7539C48.1693 20.2305 48.4805 20.5911 48.8711 20.8359C49.2643 21.0807 49.7031 21.2031 50.1875 21.2031C50.4531 21.2031 50.7083 21.1667 50.9531 21.0937C51.1979 21.0208 51.4206 20.9128 51.6211 20.7695C51.8242 20.6237 51.9961 20.4453 52.1367 20.2344C52.2799 20.0208 52.3802 19.776 52.4375 19.5H53.4063C53.3333 19.9089 53.2005 20.2747 53.0078 20.5977C52.8151 20.9206 52.5755 21.1953 52.2891 21.4219C52.0026 21.6458 51.681 21.8164 51.3242 21.9336C50.9701 22.0508 50.5911 22.1094 50.1875 22.1094C49.5052 22.1094 48.8984 21.9427 48.3672 21.6094C47.8359 21.276 47.418 20.8021 47.1133 20.1875C46.8086 19.5729 46.6563 18.8437 46.6563 18C46.6563 17.1562 46.8086 16.4271 47.1133 15.8125C47.418 15.1979 47.8359 14.724 48.3672 14.3906C48.8984 14.0573 49.5052 13.8906 50.1875 13.8906C50.5911 13.8906 50.9701 13.9492 51.3242 14.0664C51.681 14.1836 52.0026 14.3555 52.2891 14.582C52.5755 14.806 52.8151 15.0794 53.0078 15.4023C53.2005 15.7227 53.3333 16.0885 53.4063 16.5ZM57.2842 22.125C56.7425 22.125 56.2673 21.9961 55.8584 21.7383C55.4521 21.4805 55.1344 21.1198 54.9053 20.6562C54.6787 20.1927 54.5654 19.651 54.5654 19.0312C54.5654 18.4062 54.6787 17.8607 54.9053 17.3945C55.1344 16.9284 55.4521 16.5664 55.8584 16.3086C56.2673 16.0508 56.7425 15.9219 57.2842 15.9219C57.8258 15.9219 58.2998 16.0508 58.7061 16.3086C59.1149 16.5664 59.4326 16.9284 59.6592 17.3945C59.8883 17.8607 60.0029 18.4062 60.0029 19.0312C60.0029 19.651 59.8883 20.1927 59.6592 20.6562C59.4326 21.1198 59.1149 21.4805 58.7061 21.7383C58.2998 21.9961 57.8258 22.125 57.2842 22.125ZM57.2842 21.2969C57.6956 21.2969 58.0342 21.1914 58.2998 20.9805C58.5654 20.7695 58.762 20.4922 58.8896 20.1484C59.0173 19.8047 59.0811 19.4323 59.0811 19.0312C59.0811 18.6302 59.0173 18.2565 58.8896 17.9102C58.762 17.5638 58.5654 17.2839 58.2998 17.0703C58.0342 16.8568 57.6956 16.75 57.2842 16.75C56.8727 16.75 56.5342 16.8568 56.2686 17.0703C56.0029 17.2839 55.8063 17.5638 55.6787 17.9102C55.5511 18.2565 55.4873 18.6302 55.4873 19.0312C55.4873 19.4323 55.5511 19.8047 55.6787 20.1484C55.8063 20.4922 56.0029 20.7695 56.2686 20.9805C56.5342 21.1914 56.8727 21.2969 57.2842 21.2969ZM62.332 14V22H61.4102V14H62.332ZM66.458 22.125C65.9163 22.125 65.4411 21.9961 65.0322 21.7383C64.626 21.4805 64.3083 21.1198 64.0791 20.6562C63.8525 20.1927 63.7393 19.651 63.7393 19.0312C63.7393 18.4062 63.8525 17.8607 64.0791 17.3945C64.3083 16.9284 64.626 16.5664 65.0322 16.3086C65.4411 16.0508 65.9163 15.9219 66.458 15.9219C66.9997 15.9219 67.4736 16.0508 67.8799 16.3086C68.2887 16.5664 68.6064 16.9284 68.833 17.3945C69.0622 17.8607 69.1768 18.4062 69.1768 19.0312C69.1768 19.651 69.0622 20.1927 68.833 20.6562C68.6064 21.1198 68.2887 21.4805 67.8799 21.7383C67.4736 21.9961 66.9997 22.125 66.458 22.125ZM66.458 21.2969C66.8695 21.2969 67.208 21.1914 67.4736 20.9805C67.7393 20.7695 67.9359 20.4922 68.0635 20.1484C68.1911 19.8047 68.2549 19.4323 68.2549 19.0312C68.2549 18.6302 68.1911 18.2565 68.0635 17.9102C67.9359 17.5638 67.7393 17.2839 67.4736 17.0703C67.208 16.8568 66.8695 16.75 66.458 16.75C66.0465 16.75 65.708 16.8568 65.4424 17.0703C65.1768 17.2839 64.9801 17.5638 64.8525 17.9102C64.7249 18.2565 64.6611 18.6302 64.6611 19.0312C64.6611 19.4323 64.7249 19.8047 64.8525 20.1484C64.9801 20.4922 65.1768 20.7695 65.4424 20.9805C65.708 21.1914 66.0465 21.2969 66.458 21.2969ZM70.584 22V16H71.4746V16.9062H71.5371C71.6465 16.6094 71.8444 16.3685 72.1309 16.1836C72.4173 15.9987 72.7402 15.9062 73.0996 15.9062C73.1673 15.9062 73.252 15.9076 73.3535 15.9102C73.4551 15.9128 73.5319 15.9167 73.584 15.9219V16.8594C73.5527 16.8516 73.4811 16.8398 73.3691 16.8242C73.2598 16.806 73.1439 16.7969 73.0215 16.7969C72.7298 16.7969 72.4694 16.8581 72.2402 16.9805C72.0137 17.1003 71.834 17.2669 71.7012 17.4805C71.571 17.6914 71.5059 17.9323 71.5059 18.2031V22H70.584ZM78.9268 17.3437L78.0986 17.5781C78.0465 17.4401 77.9697 17.306 77.8682 17.1758C77.7692 17.043 77.6338 16.9336 77.4619 16.8477C77.29 16.7617 77.07 16.7187 76.8018 16.7187C76.4346 16.7187 76.1286 16.8034 75.8838 16.9727C75.6416 17.1393 75.5205 17.3516 75.5205 17.6094C75.5205 17.8385 75.6038 18.0195 75.7705 18.1523C75.9372 18.2852 76.1976 18.3958 76.5518 18.4844L77.4424 18.7031C77.9788 18.8333 78.3786 19.0326 78.6416 19.3008C78.9046 19.5664 79.0361 19.9089 79.0361 20.3281C79.0361 20.6719 78.9372 20.9792 78.7393 21.25C78.5439 21.5208 78.2705 21.7344 77.9189 21.8906C77.5674 22.0469 77.1585 22.125 76.6924 22.125C76.0804 22.125 75.5739 21.9922 75.1729 21.7266C74.7718 21.4609 74.5179 21.0729 74.4111 20.5625L75.2861 20.3437C75.3695 20.6667 75.527 20.9089 75.7588 21.0703C75.9932 21.2318 76.2992 21.3125 76.6768 21.3125C77.1064 21.3125 77.4476 21.2214 77.7002 21.0391C77.9554 20.8542 78.083 20.6328 78.083 20.375C78.083 20.1667 78.0101 19.9922 77.8643 19.8516C77.7184 19.7083 77.4945 19.6016 77.1924 19.5312L76.1924 19.2969C75.6429 19.1667 75.2393 18.9648 74.9814 18.6914C74.7262 18.4154 74.5986 18.0703 74.5986 17.6562C74.5986 17.3177 74.6937 17.0182 74.8838 16.7578C75.0765 16.4974 75.3382 16.293 75.6689 16.1445C76.0023 15.9961 76.3799 15.9219 76.8018 15.9219C77.3955 15.9219 77.8617 16.0521 78.2002 16.3125C78.5413 16.5729 78.7835 16.9167 78.9268 17.3437Z" fill="white"/>
</svg>
