<svg width="2816" height="1068" viewBox="0 0 2816 1068" fill="none" xmlns="http://www.w3.org/2000/svg">
<path d="M2374.75 965.966C2380.69 971.76 2383.66 980.355 2383.66 991.747V1033.53C2383.66 1035.09 2382.39 1036.36 2380.83 1036.36H2363.89C2362.33 1036.36 2361.06 1035.09 2361.06 1033.53V995.223C2361.06 989.045 2359.71 984.433 2357.01 981.391C2354.31 978.35 2350.39 976.829 2345.28 976.829C2339.58 976.829 2335.04 978.592 2331.66 982.115C2328.28 985.642 2326.59 990.878 2326.59 997.83V1033.53C2326.59 1035.09 2325.33 1036.36 2323.76 1036.36H2306.83C2305.27 1036.36 2304 1035.09 2304 1033.53V961.265C2304 959.702 2305.27 958.435 2306.83 958.435H2322.75C2324.31 958.435 2325.58 959.702 2325.58 961.265V966.152C2325.58 966.662 2326.19 966.903 2326.55 966.544C2329.37 963.75 2332.76 961.555 2336.73 959.956C2341.17 958.17 2346.05 957.277 2351.36 957.277C2361.01 957.277 2368.81 960.173 2374.75 965.966Z" fill="black"/>
<path d="M2483.61 961.266V1033.53C2483.61 1035.09 2482.34 1036.36 2480.78 1036.36H2465C2463.44 1036.36 2462.17 1035.09 2462.17 1033.53V1028.53C2462.17 1028.01 2461.55 1027.77 2461.19 1028.14C2458.41 1031.01 2455.16 1033.24 2451.46 1034.84C2447.3 1036.62 2442.81 1037.51 2437.99 1037.51C2427.75 1037.51 2419.64 1034.57 2413.66 1028.68C2407.67 1022.79 2404.68 1014.05 2404.68 1002.47V961.266C2404.68 959.702 2405.94 958.435 2407.51 958.435H2424.44C2426 958.435 2427.27 959.702 2427.27 961.266V999.133C2427.27 1011.69 2432.53 1017.96 2443.06 1017.96C2448.46 1017.96 2452.81 1016.2 2456.09 1012.68C2459.37 1009.15 2461.02 1003.91 2461.02 996.961V961.266C2461.02 959.702 2462.28 958.435 2463.85 958.435H2480.78C2482.34 958.435 2483.61 959.702 2483.61 961.266Z" fill="black"/>
<path d="M2575.36 965.966C2581.3 971.76 2584.27 980.355 2584.27 991.747V1033.53C2584.27 1035.09 2583 1036.36 2581.44 1036.36H2564.51C2562.94 1036.36 2561.68 1035.09 2561.68 1033.53V995.223C2561.68 989.045 2560.32 984.433 2557.62 981.391C2554.91 978.35 2551 976.829 2545.89 976.829C2540.19 976.829 2535.65 978.592 2532.27 982.115C2528.89 985.642 2527.2 990.878 2527.2 997.83V1033.53C2527.2 1035.09 2525.94 1036.36 2524.37 1036.36H2507.44C2505.88 1036.36 2504.61 1035.09 2504.61 1033.53V961.265C2504.61 959.702 2505.88 958.435 2507.44 958.435H2523.36C2524.92 958.435 2526.19 959.702 2526.19 961.265V966.152C2526.19 966.662 2526.8 966.903 2527.16 966.544C2529.98 963.75 2533.37 961.555 2537.34 959.956C2541.78 958.17 2546.66 957.277 2551.97 957.277C2561.63 957.277 2569.42 960.173 2575.36 965.966Z" fill="black"/>
<path d="M2620.84 1032.37C2614.22 1028.95 2609.06 1024.19 2605.34 1018.11C2601.62 1012.02 2599.77 1005.12 2599.77 997.395C2599.77 989.672 2601.62 982.767 2605.34 976.684C2609.06 970.601 2614.22 965.847 2620.84 962.418C2627.45 958.992 2634.91 957.277 2643.22 957.277C2651.42 957.277 2658.59 958.992 2664.72 962.418C2670.02 965.382 2674.08 969.444 2676.89 974.607C2677.63 975.968 2677.08 977.677 2675.72 978.411L2662.92 985.283C2661.64 985.975 2660.06 985.554 2659.23 984.355C2655.26 978.662 2649.88 975.816 2643.07 975.816C2637.18 975.816 2632.3 977.748 2628.44 981.608C2624.58 985.471 2622.65 990.733 2622.65 997.395C2622.65 1004.06 2624.58 1009.32 2628.44 1013.18C2632.3 1017.05 2637.18 1018.98 2643.07 1018.98C2649.95 1018.98 2655.33 1016.14 2659.22 1010.48C2660.06 1009.26 2661.65 1008.83 2662.95 1009.54C2666.28 1011.36 2672.35 1014.67 2675.71 1016.5C2677.08 1017.25 2677.61 1018.97 2676.85 1020.33C2674.04 1025.32 2670 1029.31 2664.72 1032.3C2658.59 1035.78 2651.42 1037.51 2643.22 1037.51C2634.91 1037.51 2627.45 1035.8 2620.84 1032.37Z" fill="black"/>
<path d="M2763.39 965.966C2769.33 971.76 2772.29 980.355 2772.29 991.747V1033.53C2772.29 1035.09 2771.03 1036.36 2769.46 1036.36H2752.53C2750.97 1036.36 2749.7 1035.09 2749.7 1033.53V995.223C2749.7 989.045 2748.35 984.433 2745.65 981.391C2742.94 978.35 2739.03 976.829 2733.91 976.829C2728.22 976.829 2723.68 978.592 2720.3 982.115C2716.92 985.642 2715.23 990.878 2715.23 997.83V1033.53C2715.23 1035.09 2713.96 1036.36 2712.4 1036.36H2695.47C2693.9 1036.36 2692.64 1035.09 2692.64 1033.53V931.719C2692.64 930.156 2693.9 928.889 2695.47 928.889H2712.4C2713.96 928.889 2715.23 930.156 2715.23 931.719V965.198C2715.23 965.706 2715.83 965.958 2716.21 965.615C2719 963.074 2722.29 961.09 2726.09 959.666C2730.34 958.073 2734.97 957.277 2740 957.277C2749.65 957.277 2757.45 960.173 2763.39 965.966Z" fill="black"/>
<path d="M2793.48 958.435H2810.42C2811.98 958.435 2813.25 959.702 2813.25 961.265V1033.53C2813.25 1035.09 2811.98 1036.36 2810.42 1036.36H2793.48C2791.92 1036.36 2790.65 1035.09 2790.65 1033.53V961.265C2790.65 959.702 2791.92 958.435 2793.48 958.435Z" fill="black"/>
<path d="M2307.66 1066.72C2306.75 1066.24 2306.05 1065.57 2305.54 1064.72C2305.03 1063.86 2304.78 1062.89 2304.78 1061.81C2304.78 1060.73 2305.03 1059.76 2305.54 1058.92C2306.05 1058.07 2306.75 1057.4 2307.65 1056.92C2308.54 1056.44 2309.57 1056.2 2310.72 1056.2C2311.8 1056.2 2312.75 1056.42 2313.56 1056.86C2314.38 1057.3 2314.99 1057.93 2315.4 1058.75L2313.43 1059.9C2313.11 1059.39 2312.72 1059.01 2312.25 1058.76C2311.77 1058.51 2311.26 1058.38 2310.7 1058.38C2309.74 1058.38 2308.94 1058.69 2308.31 1059.32C2307.68 1059.94 2307.37 1060.77 2307.37 1061.81C2307.37 1062.85 2307.68 1063.68 2308.3 1064.31C2308.93 1064.93 2309.72 1065.24 2310.7 1065.24C2311.26 1065.24 2311.77 1065.12 2312.25 1064.86C2312.72 1064.61 2313.11 1064.23 2313.43 1063.72L2315.4 1064.87C2314.98 1065.69 2314.36 1066.33 2313.54 1066.77C2312.73 1067.22 2311.78 1067.44 2310.72 1067.44C2309.58 1067.44 2308.56 1067.2 2307.66 1066.72Z" fill="black"/>
<path d="M2354.4 1064.3C2355.02 1063.67 2355.32 1062.84 2355.32 1061.81C2355.32 1060.78 2355.02 1059.96 2354.4 1059.33C2353.78 1058.7 2353 1058.38 2352.06 1058.38C2351.11 1058.38 2350.34 1058.7 2349.73 1059.33C2349.12 1059.96 2348.81 1060.78 2348.81 1061.81C2348.81 1062.84 2349.12 1063.67 2349.73 1064.3C2350.34 1064.93 2351.11 1065.24 2352.06 1065.24C2353 1065.24 2353.78 1064.93 2354.4 1064.3ZM2349.06 1066.72C2348.17 1066.24 2347.47 1065.57 2346.97 1064.72C2346.47 1063.86 2346.22 1062.89 2346.22 1061.81C2346.22 1060.73 2346.47 1059.77 2346.97 1058.92C2347.47 1058.07 2348.17 1057.4 2349.06 1056.92C2349.95 1056.44 2350.95 1056.2 2352.06 1056.2C2353.18 1056.2 2354.19 1056.44 2355.08 1056.92C2355.97 1057.4 2356.66 1058.07 2357.16 1058.92C2357.66 1059.77 2357.91 1060.73 2357.91 1061.81C2357.91 1062.89 2357.66 1063.86 2357.16 1064.72C2356.66 1065.57 2355.97 1066.24 2355.08 1066.72C2354.19 1067.2 2353.18 1067.44 2352.06 1067.44C2350.95 1067.44 2349.95 1067.2 2349.06 1066.72Z" fill="black"/>
<path d="M2404.8 1057.41C2405.61 1058.21 2406.01 1059.41 2406.01 1061.01V1067.3H2403.44V1061.34C2403.44 1060.38 2403.23 1059.66 2402.81 1059.17C2402.38 1058.69 2401.77 1058.44 2400.98 1058.44C2400.12 1058.44 2399.42 1058.73 2398.9 1059.3C2398.38 1059.86 2398.12 1060.68 2398.12 1061.73V1067.3H2395.56V1061.34C2395.56 1060.38 2395.34 1059.66 2394.92 1059.17C2394.49 1058.69 2393.88 1058.44 2393.09 1058.44C2392.21 1058.44 2391.52 1058.72 2391.01 1059.29C2390.49 1059.85 2390.23 1060.66 2390.23 1061.73V1067.3H2387.67V1056.33H2390.11V1057.72C2390.52 1057.23 2391.04 1056.85 2391.65 1056.59C2392.27 1056.33 2392.95 1056.2 2393.71 1056.2C2394.53 1056.2 2395.26 1056.36 2395.89 1056.67C2396.53 1056.97 2397.03 1057.43 2397.4 1058.03C2397.86 1057.46 2398.44 1057.01 2399.15 1056.69C2399.86 1056.37 2400.65 1056.2 2401.51 1056.2C2402.89 1056.2 2403.99 1056.6 2404.8 1057.41Z" fill="black"/>
<path d="M2446.24 1057.41C2447.05 1058.21 2447.45 1059.41 2447.45 1061.01V1067.3H2444.89V1061.34C2444.89 1060.38 2444.67 1059.66 2444.25 1059.17C2443.82 1058.69 2443.22 1058.44 2442.42 1058.44C2441.56 1058.44 2440.87 1058.73 2440.35 1059.3C2439.83 1059.86 2439.57 1060.68 2439.57 1061.73V1067.3H2437V1061.34C2437 1060.38 2436.79 1059.66 2436.36 1059.17C2435.94 1058.69 2435.33 1058.44 2434.53 1058.44C2433.66 1058.44 2432.96 1058.72 2432.45 1059.29C2431.94 1059.85 2431.68 1060.66 2431.68 1061.73V1067.3H2429.11V1056.33H2431.56V1057.72C2431.97 1057.23 2432.48 1056.85 2433.1 1056.59C2433.71 1056.33 2434.4 1056.2 2435.15 1056.2C2435.97 1056.2 2436.7 1056.36 2437.34 1056.67C2437.97 1056.97 2438.48 1057.43 2438.85 1058.03C2439.3 1057.46 2439.88 1057.01 2440.59 1056.69C2441.31 1056.37 2442.09 1056.2 2442.96 1056.2C2444.34 1056.2 2445.43 1056.6 2446.24 1057.41Z" fill="black"/>
<path d="M2481.26 1056.33V1067.3H2478.81V1065.9C2478.4 1066.39 2477.89 1066.77 2477.27 1067.04C2476.66 1067.31 2475.99 1067.44 2475.28 1067.44C2473.81 1067.44 2472.66 1067.03 2471.82 1066.22C2470.98 1065.4 2470.55 1064.19 2470.55 1062.59V1056.33H2473.12V1062.24C2473.12 1063.23 2473.35 1063.97 2473.79 1064.45C2474.23 1064.94 2474.87 1065.18 2475.69 1065.18C2476.61 1065.18 2477.34 1064.9 2477.88 1064.33C2478.42 1063.76 2478.69 1062.94 2478.69 1061.87V1056.33H2481.26Z" fill="black"/>
<path d="M2521.55 1057.42C2522.38 1058.22 2522.8 1059.42 2522.8 1061.01V1067.3H2520.24V1061.34C2520.24 1060.38 2520.01 1059.66 2519.56 1059.17C2519.11 1058.69 2518.46 1058.44 2517.63 1058.44C2516.68 1058.44 2515.94 1058.73 2515.39 1059.3C2514.84 1059.86 2514.57 1060.68 2514.57 1061.75V1067.3H2512V1056.33H2514.44V1057.74C2514.87 1057.24 2515.4 1056.85 2516.05 1056.59C2516.69 1056.33 2517.41 1056.2 2518.22 1056.2C2519.61 1056.2 2520.71 1056.61 2521.55 1057.42Z" fill="black"/>
<path d="M2553.79 1056.33H2556.36V1067.3H2553.79V1056.33ZM2553.91 1054.08C2553.6 1053.78 2553.44 1053.42 2553.44 1052.98C2553.44 1052.54 2553.6 1052.18 2553.91 1051.88C2554.23 1051.59 2554.62 1051.44 2555.09 1051.44C2555.55 1051.44 2555.94 1051.58 2556.26 1051.86C2556.57 1052.14 2556.73 1052.49 2556.73 1052.92C2556.73 1053.37 2556.57 1053.75 2556.27 1054.06C2555.96 1054.37 2555.56 1054.52 2555.09 1054.52C2554.62 1054.52 2554.23 1054.37 2553.91 1054.08Z" fill="black"/>
<path d="M2597.76 1066.72C2596.86 1066.24 2596.15 1065.57 2595.65 1064.72C2595.14 1063.86 2594.89 1062.89 2594.89 1061.81C2594.89 1060.73 2595.14 1059.76 2595.65 1058.92C2596.15 1058.07 2596.85 1057.4 2597.75 1056.92C2598.65 1056.44 2599.67 1056.2 2600.82 1056.2C2601.9 1056.2 2602.85 1056.42 2603.67 1056.86C2604.48 1057.3 2605.09 1057.93 2605.51 1058.75L2603.53 1059.9C2603.22 1059.39 2602.82 1059.01 2602.35 1058.76C2601.88 1058.51 2601.36 1058.38 2600.8 1058.38C2599.84 1058.38 2599.05 1058.69 2598.42 1059.32C2597.79 1059.94 2597.47 1060.77 2597.47 1061.81C2597.47 1062.85 2597.79 1063.68 2598.41 1064.31C2599.03 1064.93 2599.83 1065.24 2600.8 1065.24C2601.36 1065.24 2601.88 1065.12 2602.35 1064.86C2602.82 1064.61 2603.22 1064.23 2603.53 1063.72L2605.51 1064.87C2605.08 1065.69 2604.46 1066.33 2603.65 1066.77C2602.83 1067.22 2601.89 1067.44 2600.82 1067.44C2599.69 1067.44 2598.67 1067.2 2597.76 1066.72Z" fill="black"/>
<path d="M2642.67 1065.13C2643.17 1064.83 2643.52 1064.41 2643.72 1063.87V1062.59H2641.07C2639.6 1062.59 2638.86 1063.08 2638.86 1064.05C2638.86 1064.52 2639.04 1064.89 2639.41 1065.16C2639.78 1065.43 2640.29 1065.57 2640.95 1065.57C2641.59 1065.57 2642.17 1065.42 2642.67 1065.13ZM2645.01 1057.36C2645.86 1058.14 2646.29 1059.31 2646.29 1060.87V1067.3H2643.87V1065.96C2643.55 1066.44 2643.1 1066.81 2642.52 1067.06C2641.94 1067.31 2641.24 1067.44 2640.42 1067.44C2639.6 1067.44 2638.88 1067.3 2638.26 1067.02C2637.64 1066.74 2637.17 1066.35 2636.83 1065.85C2636.5 1065.35 2636.33 1064.78 2636.33 1064.15C2636.33 1063.17 2636.7 1062.38 2637.43 1061.78C2638.16 1061.18 2639.31 1060.89 2640.89 1060.89H2643.72V1060.72C2643.72 1059.96 2643.49 1059.37 2643.04 1058.96C2642.58 1058.55 2641.9 1058.34 2640.99 1058.34C2640.38 1058.34 2639.77 1058.44 2639.17 1058.63C2638.58 1058.82 2638.08 1059.09 2637.66 1059.43L2636.66 1057.56C2637.23 1057.12 2637.92 1056.79 2638.73 1056.55C2639.54 1056.32 2640.4 1056.2 2641.3 1056.2C2642.92 1056.2 2644.15 1056.59 2645.01 1057.36Z" fill="black"/>
<path d="M2685.82 1066.7C2685.52 1066.95 2685.16 1067.13 2684.73 1067.25C2684.29 1067.38 2683.84 1067.44 2683.36 1067.44C2682.16 1067.44 2681.22 1067.12 2680.57 1066.49C2679.91 1065.87 2679.58 1064.95 2679.58 1063.74V1058.46H2677.77V1056.41H2679.58V1053.9H2682.15V1056.41H2685.09V1058.46H2682.15V1063.68C2682.15 1064.21 2682.28 1064.62 2682.54 1064.9C2682.8 1065.18 2683.17 1065.32 2683.67 1065.32C2684.24 1065.32 2684.72 1065.17 2685.11 1064.87L2685.82 1066.7Z" fill="black"/>
<path d="M2719.57 1056.33H2722.13V1067.3H2719.57V1056.33ZM2719.69 1054.08C2719.37 1053.78 2719.22 1053.42 2719.22 1052.98C2719.22 1052.54 2719.37 1052.18 2719.69 1051.88C2720 1051.59 2720.39 1051.44 2720.86 1051.44C2721.33 1051.44 2721.72 1051.58 2722.03 1051.86C2722.35 1052.14 2722.5 1052.49 2722.5 1052.92C2722.5 1053.37 2722.35 1053.75 2722.04 1054.06C2721.73 1054.37 2721.34 1054.52 2720.86 1054.52C2720.39 1054.52 2720 1054.37 2719.69 1054.08Z" fill="black"/>
<path d="M2768.84 1064.3C2769.45 1063.67 2769.76 1062.84 2769.76 1061.81C2769.76 1060.78 2769.45 1059.96 2768.84 1059.33C2768.22 1058.7 2767.44 1058.38 2766.49 1058.38C2765.55 1058.38 2764.77 1058.7 2764.16 1059.33C2763.55 1059.96 2763.25 1060.78 2763.25 1061.81C2763.25 1062.84 2763.55 1063.67 2764.16 1064.3C2764.77 1064.93 2765.55 1065.24 2766.49 1065.24C2767.44 1065.24 2768.22 1064.93 2768.84 1064.3ZM2763.49 1066.72C2762.6 1066.24 2761.91 1065.57 2761.41 1064.72C2760.91 1063.86 2760.66 1062.89 2760.66 1061.81C2760.66 1060.73 2760.91 1059.77 2761.41 1058.92C2761.91 1058.07 2762.6 1057.4 2763.49 1056.92C2764.38 1056.44 2765.38 1056.2 2766.49 1056.2C2767.62 1056.2 2768.62 1056.44 2769.51 1056.92C2770.4 1057.4 2771.1 1058.07 2771.6 1058.92C2772.1 1059.77 2772.35 1060.73 2772.35 1061.81C2772.35 1062.89 2772.1 1063.86 2771.6 1064.72C2771.1 1065.57 2770.4 1066.24 2769.51 1066.72C2768.62 1067.2 2767.62 1067.44 2766.49 1067.44C2765.38 1067.44 2764.38 1067.2 2763.49 1066.72Z" fill="black"/>
<path d="M2811.65 1057.42C2812.49 1058.22 2812.91 1059.42 2812.91 1061.01V1067.3H2810.34V1061.34C2810.34 1060.38 2810.11 1059.66 2809.66 1059.17C2809.21 1058.69 2808.57 1058.44 2807.73 1058.44C2806.79 1058.44 2806.04 1058.73 2805.49 1059.3C2804.94 1059.86 2804.67 1060.68 2804.67 1061.75V1067.3H2802.1V1056.33H2804.55V1057.74C2804.97 1057.24 2805.51 1056.85 2806.15 1056.59C2806.79 1056.33 2807.52 1056.2 2808.33 1056.2C2809.71 1056.2 2810.82 1056.61 2811.65 1057.42Z" fill="black"/>
<path d="M2791.81 943.952C2789.21 941.539 2787.9 938.546 2787.9 934.972C2787.9 931.401 2789.21 928.407 2791.81 925.992C2794.42 923.58 2797.8 922.371 2801.95 922.371C2806.1 922.371 2809.48 923.53 2812.09 925.847C2814.7 928.165 2816 931.061 2816 934.538C2816 938.303 2814.7 941.417 2812.09 943.879C2809.48 946.341 2806.1 947.572 2801.95 947.572C2797.8 947.572 2794.42 946.367 2791.81 943.952Z" fill="black"/>
<path d="M1606.75 965.738C1612.69 971.531 1615.66 980.127 1615.66 991.519V1033.3C1615.66 1034.86 1614.39 1036.13 1612.83 1036.13H1595.89C1594.33 1036.13 1593.06 1034.86 1593.06 1033.3V994.994C1593.06 988.816 1591.71 984.204 1589.01 981.162C1586.31 978.121 1582.39 976.601 1577.28 976.601C1571.58 976.601 1567.04 978.363 1563.66 981.887C1560.28 985.413 1558.59 990.649 1558.59 997.602V1033.3C1558.59 1034.86 1557.33 1036.13 1555.76 1036.13H1538.83C1537.27 1036.13 1536 1034.86 1536 1033.3V961.037C1536 959.474 1537.27 958.207 1538.83 958.207H1554.75C1556.31 958.207 1557.58 959.474 1557.58 961.037V965.924C1557.58 966.434 1558.19 966.674 1558.55 966.315C1561.37 963.522 1564.76 961.326 1568.73 959.728C1573.17 957.942 1578.05 957.048 1583.36 957.048C1593.01 957.048 1600.81 959.944 1606.75 965.738Z" fill="#DEE3E5"/>
<path d="M1715.61 961.037V1033.3C1715.61 1034.86 1714.34 1036.13 1712.78 1036.13H1697C1695.44 1036.13 1694.17 1034.86 1694.17 1033.3V1028.3C1694.17 1027.79 1693.55 1027.55 1693.19 1027.92C1690.41 1030.78 1687.16 1033.01 1683.46 1034.61C1679.3 1036.39 1674.81 1037.29 1669.99 1037.29C1659.75 1037.29 1651.64 1034.34 1645.66 1028.45C1639.67 1022.56 1636.68 1013.82 1636.68 1002.24V961.037C1636.68 959.474 1637.94 958.207 1639.51 958.207H1656.44C1658 958.207 1659.27 959.474 1659.27 961.037V998.905C1659.27 1011.46 1664.53 1017.73 1675.06 1017.73C1680.46 1017.73 1684.81 1015.97 1688.09 1012.45C1691.37 1008.92 1693.02 1003.68 1693.02 996.733V961.037C1693.02 959.474 1694.28 958.207 1695.85 958.207H1712.78C1714.34 958.207 1715.61 959.474 1715.61 961.037Z" fill="#DEE3E5"/>
<path d="M1807.36 965.738C1813.3 971.531 1816.27 980.127 1816.27 991.519V1033.3C1816.27 1034.86 1815 1036.13 1813.44 1036.13H1796.51C1794.94 1036.13 1793.68 1034.86 1793.68 1033.3V994.994C1793.68 988.816 1792.32 984.204 1789.62 981.162C1786.91 978.121 1783 976.601 1777.89 976.601C1772.19 976.601 1767.65 978.363 1764.27 981.887C1760.89 985.413 1759.2 990.649 1759.2 997.602V1033.3C1759.2 1034.86 1757.94 1036.13 1756.37 1036.13H1739.44C1737.88 1036.13 1736.61 1034.86 1736.61 1033.3V961.037C1736.61 959.474 1737.88 958.207 1739.44 958.207H1755.36C1756.92 958.207 1758.19 959.474 1758.19 961.037V965.924C1758.19 966.434 1758.8 966.674 1759.16 966.315C1761.98 963.522 1765.37 961.326 1769.34 959.728C1773.78 957.942 1778.66 957.048 1783.97 957.048C1793.63 957.048 1801.42 959.944 1807.36 965.738Z" fill="#DEE3E5"/>
<path d="M1852.84 1032.14C1846.22 1028.72 1841.06 1023.96 1837.34 1017.88C1833.62 1011.79 1831.77 1004.89 1831.77 997.166C1831.77 989.444 1833.62 982.538 1837.34 976.456C1841.06 970.373 1846.22 965.618 1852.84 962.19C1859.45 958.764 1866.91 957.048 1875.22 957.048C1883.42 957.048 1890.59 958.764 1896.72 962.19C1902.02 965.153 1906.08 969.215 1908.89 974.379C1909.63 975.739 1909.08 977.449 1907.72 978.182L1894.92 985.055C1893.64 985.746 1892.06 985.325 1891.23 984.126C1887.26 978.434 1881.88 975.587 1875.07 975.587C1869.18 975.587 1864.3 977.52 1860.44 981.38C1856.58 985.243 1854.65 990.504 1854.65 997.166C1854.65 1003.83 1856.58 1009.09 1860.44 1012.95C1864.3 1016.82 1869.18 1018.75 1875.07 1018.75C1881.95 1018.75 1887.33 1015.92 1891.22 1010.25C1892.06 1009.04 1893.65 1008.6 1894.95 1009.31C1898.28 1011.13 1904.35 1014.44 1907.71 1016.28C1909.08 1017.02 1909.61 1018.74 1908.85 1020.1C1906.04 1025.09 1902 1029.08 1896.72 1032.07C1890.59 1035.55 1883.42 1037.29 1875.22 1037.29C1866.91 1037.29 1859.45 1035.57 1852.84 1032.14Z" fill="#DEE3E5"/>
<path d="M1995.39 965.738C2001.33 971.531 2004.29 980.127 2004.29 991.519V1033.3C2004.29 1034.86 2003.03 1036.13 2001.46 1036.13H1984.53C1982.97 1036.13 1981.7 1034.86 1981.7 1033.3V994.994C1981.7 988.816 1980.35 984.204 1977.65 981.162C1974.94 978.121 1971.03 976.601 1965.91 976.601C1960.22 976.601 1955.68 978.363 1952.3 981.887C1948.92 985.413 1947.23 990.649 1947.23 997.602V1033.3C1947.23 1034.86 1945.96 1036.13 1944.4 1036.13H1927.47C1925.9 1036.13 1924.64 1034.86 1924.64 1033.3V931.491C1924.64 929.927 1925.9 928.66 1927.47 928.66H1944.4C1945.96 928.66 1947.23 929.927 1947.23 931.491V964.97C1947.23 965.478 1947.83 965.729 1948.21 965.387C1951 962.846 1954.29 960.862 1958.09 959.438C1962.34 957.844 1966.97 957.048 1972 957.048C1981.65 957.048 1989.45 959.944 1995.39 965.738Z" fill="#DEE3E5"/>
<path d="M2025.48 958.207H2042.42C2043.98 958.207 2045.25 959.474 2045.25 961.037V1033.3C2045.25 1034.86 2043.98 1036.13 2042.42 1036.13H2025.48C2023.92 1036.13 2022.65 1034.86 2022.65 1033.3V961.037C2022.65 959.474 2023.92 958.207 2025.48 958.207Z" fill="#DEE3E5"/>
<path d="M1539.66 1066.49C1538.75 1066.01 1538.05 1065.35 1537.54 1064.49C1537.03 1063.63 1536.78 1062.67 1536.78 1061.58C1536.78 1060.5 1537.03 1059.54 1537.54 1058.69C1538.05 1057.84 1538.75 1057.17 1539.65 1056.69C1540.54 1056.22 1541.57 1055.98 1542.72 1055.98C1543.8 1055.98 1544.75 1056.19 1545.56 1056.63C1546.38 1057.07 1546.99 1057.7 1547.4 1058.52L1545.43 1059.67C1545.11 1059.17 1544.72 1058.79 1544.25 1058.53C1543.77 1058.28 1543.26 1058.15 1542.7 1058.15C1541.74 1058.15 1540.94 1058.46 1540.31 1059.09C1539.68 1059.71 1539.37 1060.54 1539.37 1061.58C1539.37 1062.62 1539.68 1063.46 1540.3 1064.08C1540.93 1064.7 1541.72 1065.01 1542.7 1065.01C1543.26 1065.01 1543.77 1064.89 1544.25 1064.63C1544.72 1064.38 1545.11 1064 1545.43 1063.49L1547.4 1064.64C1546.98 1065.47 1546.36 1066.1 1545.54 1066.54C1544.73 1066.99 1543.78 1067.21 1542.72 1067.21C1541.58 1067.21 1540.56 1066.97 1539.66 1066.49Z" fill="#DEE3E5"/>
<path d="M1586.4 1064.07C1587.02 1063.44 1587.32 1062.61 1587.32 1061.58C1587.32 1060.56 1587.02 1059.73 1586.4 1059.1C1585.78 1058.47 1585 1058.15 1584.06 1058.15C1583.11 1058.15 1582.34 1058.47 1581.73 1059.1C1581.12 1059.73 1580.81 1060.56 1580.81 1061.58C1580.81 1062.61 1581.12 1063.44 1581.73 1064.07C1582.34 1064.7 1583.11 1065.01 1584.06 1065.01C1585 1065.01 1585.78 1064.7 1586.4 1064.07ZM1581.06 1066.49C1580.17 1066.01 1579.47 1065.35 1578.97 1064.49C1578.47 1063.63 1578.22 1062.67 1578.22 1061.58C1578.22 1060.5 1578.47 1059.54 1578.97 1058.69C1579.47 1057.84 1580.17 1057.17 1581.06 1056.69C1581.95 1056.22 1582.95 1055.98 1584.06 1055.98C1585.18 1055.98 1586.19 1056.22 1587.08 1056.69C1587.97 1057.17 1588.66 1057.84 1589.16 1058.69C1589.66 1059.54 1589.91 1060.5 1589.91 1061.58C1589.91 1062.67 1589.66 1063.63 1589.16 1064.49C1588.66 1065.35 1587.97 1066.01 1587.08 1066.49C1586.19 1066.97 1585.18 1067.21 1584.06 1067.21C1582.95 1067.21 1581.95 1066.97 1581.06 1066.49Z" fill="#DEE3E5"/>
<path d="M1636.8 1057.18C1637.61 1057.98 1638.01 1059.18 1638.01 1060.78V1067.07H1635.44V1061.11C1635.44 1060.15 1635.23 1059.43 1634.81 1058.94C1634.38 1058.46 1633.77 1058.21 1632.98 1058.21C1632.12 1058.21 1631.42 1058.5 1630.9 1059.07C1630.38 1059.64 1630.12 1060.45 1630.12 1061.5V1067.07H1627.56V1061.11C1627.56 1060.15 1627.34 1059.43 1626.92 1058.94C1626.49 1058.46 1625.88 1058.21 1625.09 1058.21C1624.21 1058.21 1623.52 1058.5 1623.01 1059.06C1622.49 1059.62 1622.24 1060.43 1622.24 1061.5V1067.07H1619.67V1056.1H1622.11V1057.5C1622.52 1057 1623.04 1056.63 1623.65 1056.37C1624.27 1056.11 1624.95 1055.98 1625.71 1055.98C1626.53 1055.98 1627.26 1056.13 1627.89 1056.44C1628.53 1056.75 1629.03 1057.2 1629.4 1057.8C1629.86 1057.23 1630.44 1056.78 1631.15 1056.46C1631.86 1056.14 1632.65 1055.98 1633.51 1055.98C1634.9 1055.98 1635.99 1056.38 1636.8 1057.18Z" fill="#DEE3E5"/>
<path d="M1678.24 1057.18C1679.05 1057.98 1679.45 1059.18 1679.45 1060.78V1067.07H1676.89V1061.11C1676.89 1060.15 1676.67 1059.43 1676.25 1058.94C1675.82 1058.46 1675.22 1058.21 1674.42 1058.21C1673.56 1058.21 1672.87 1058.5 1672.35 1059.07C1671.83 1059.64 1671.57 1060.45 1671.57 1061.5V1067.07H1669V1061.11C1669 1060.15 1668.79 1059.43 1668.36 1058.94C1667.94 1058.46 1667.33 1058.21 1666.53 1058.21C1665.66 1058.21 1664.96 1058.5 1664.45 1059.06C1663.94 1059.62 1663.68 1060.43 1663.68 1061.5V1067.07H1661.11V1056.1H1663.56V1057.5C1663.97 1057 1664.48 1056.63 1665.1 1056.37C1665.71 1056.11 1666.4 1055.98 1667.15 1055.98C1667.97 1055.98 1668.7 1056.13 1669.34 1056.44C1669.97 1056.75 1670.48 1057.2 1670.85 1057.8C1671.3 1057.23 1671.88 1056.78 1672.59 1056.46C1673.31 1056.14 1674.09 1055.98 1674.96 1055.98C1676.34 1055.98 1677.43 1056.38 1678.24 1057.18Z" fill="#DEE3E5"/>
<path d="M1713.26 1056.1V1067.07H1710.81V1065.67C1710.4 1066.16 1709.89 1066.54 1709.27 1066.81C1708.66 1067.08 1707.99 1067.21 1707.28 1067.21C1705.81 1067.21 1704.66 1066.8 1703.82 1065.99C1702.98 1065.17 1702.55 1063.97 1702.55 1062.36V1056.1H1705.12V1062.01C1705.12 1063 1705.35 1063.74 1705.79 1064.22C1706.23 1064.71 1706.87 1064.95 1707.69 1064.95C1708.61 1064.95 1709.34 1064.67 1709.88 1064.1C1710.42 1063.53 1710.69 1062.71 1710.69 1061.64V1056.1H1713.26Z" fill="#DEE3E5"/>
<path d="M1753.55 1057.19C1754.38 1058 1754.8 1059.19 1754.8 1060.78V1067.07H1752.24V1061.11C1752.24 1060.15 1752.01 1059.43 1751.56 1058.94C1751.11 1058.46 1750.46 1058.21 1749.63 1058.21C1748.68 1058.21 1747.94 1058.5 1747.39 1059.07C1746.84 1059.64 1746.57 1060.45 1746.57 1061.52V1067.07H1744V1056.1H1746.44V1057.52C1746.87 1057.01 1747.4 1056.63 1748.05 1056.37C1748.69 1056.11 1749.41 1055.98 1750.22 1055.98C1751.61 1055.98 1752.71 1056.38 1753.55 1057.19Z" fill="#DEE3E5"/>
<path d="M1785.79 1056.1H1788.36V1067.07H1785.79V1056.1ZM1785.91 1053.85C1785.6 1053.56 1785.44 1053.19 1785.44 1052.75C1785.44 1052.31 1785.6 1051.95 1785.91 1051.65C1786.23 1051.36 1786.62 1051.21 1787.09 1051.21C1787.55 1051.21 1787.94 1051.35 1788.26 1051.63C1788.57 1051.91 1788.73 1052.26 1788.73 1052.69C1788.73 1053.14 1788.57 1053.52 1788.27 1053.83C1787.96 1054.14 1787.56 1054.29 1787.09 1054.29C1786.62 1054.29 1786.23 1054.14 1785.91 1053.85Z" fill="#DEE3E5"/>
<path d="M1829.76 1066.49C1828.86 1066.01 1828.15 1065.35 1827.65 1064.49C1827.14 1063.63 1826.89 1062.67 1826.89 1061.58C1826.89 1060.5 1827.14 1059.54 1827.65 1058.69C1828.15 1057.84 1828.85 1057.17 1829.75 1056.69C1830.65 1056.22 1831.67 1055.98 1832.82 1055.98C1833.9 1055.98 1834.85 1056.19 1835.67 1056.63C1836.48 1057.07 1837.09 1057.7 1837.51 1058.52L1835.53 1059.67C1835.22 1059.17 1834.82 1058.79 1834.35 1058.53C1833.88 1058.28 1833.36 1058.15 1832.8 1058.15C1831.84 1058.15 1831.05 1058.46 1830.42 1059.09C1829.79 1059.71 1829.47 1060.54 1829.47 1061.58C1829.47 1062.62 1829.79 1063.46 1830.41 1064.08C1831.03 1064.7 1831.83 1065.01 1832.8 1065.01C1833.36 1065.01 1833.88 1064.89 1834.35 1064.63C1834.82 1064.38 1835.22 1064 1835.53 1063.49L1837.51 1064.64C1837.08 1065.47 1836.46 1066.1 1835.65 1066.54C1834.83 1066.99 1833.89 1067.21 1832.82 1067.21C1831.69 1067.21 1830.67 1066.97 1829.76 1066.49Z" fill="#DEE3E5"/>
<path d="M1874.67 1064.9C1875.17 1064.61 1875.52 1064.19 1875.72 1063.64V1062.36H1873.07C1871.6 1062.36 1870.86 1062.85 1870.86 1063.82C1870.86 1064.29 1871.04 1064.66 1871.41 1064.93C1871.78 1065.21 1872.29 1065.34 1872.95 1065.34C1873.59 1065.34 1874.17 1065.2 1874.67 1064.9ZM1877.01 1057.14C1877.86 1057.91 1878.29 1059.08 1878.29 1060.64V1067.07H1875.87V1065.73C1875.55 1066.21 1875.1 1066.58 1874.52 1066.83C1873.94 1067.08 1873.24 1067.21 1872.42 1067.21C1871.6 1067.21 1870.88 1067.07 1870.26 1066.79C1869.64 1066.51 1869.17 1066.12 1868.83 1065.62C1868.5 1065.12 1868.33 1064.55 1868.33 1063.93C1868.33 1062.94 1868.7 1062.15 1869.43 1061.55C1870.16 1060.96 1871.31 1060.66 1872.89 1060.66H1875.72V1060.49C1875.72 1059.73 1875.5 1059.14 1875.04 1058.73C1874.58 1058.32 1873.9 1058.11 1872.99 1058.11C1872.38 1058.11 1871.77 1058.21 1871.17 1058.4C1870.58 1058.59 1870.08 1058.86 1869.67 1059.2L1868.66 1057.33C1869.23 1056.89 1869.92 1056.56 1870.73 1056.33C1871.54 1056.09 1872.4 1055.98 1873.3 1055.98C1874.92 1055.98 1876.15 1056.36 1877.01 1057.14Z" fill="#DEE3E5"/>
<path d="M1917.82 1066.47C1917.52 1066.72 1917.16 1066.9 1916.73 1067.03C1916.29 1067.15 1915.84 1067.21 1915.36 1067.21C1914.15 1067.21 1913.22 1066.9 1912.57 1066.27C1911.91 1065.64 1911.58 1064.72 1911.58 1063.51V1058.23H1909.77V1056.18H1911.58V1053.68H1914.15V1056.18H1917.09V1058.23H1914.15V1063.45C1914.15 1063.99 1914.28 1064.39 1914.54 1064.67C1914.8 1064.96 1915.17 1065.1 1915.67 1065.1C1916.24 1065.1 1916.72 1064.94 1917.11 1064.64L1917.82 1066.47Z" fill="#DEE3E5"/>
<path d="M1951.57 1056.1H1954.13V1067.07H1951.57V1056.1ZM1951.69 1053.85C1951.37 1053.56 1951.22 1053.19 1951.22 1052.75C1951.22 1052.31 1951.37 1051.95 1951.69 1051.65C1952 1051.36 1952.39 1051.21 1952.86 1051.21C1953.33 1051.21 1953.72 1051.35 1954.03 1051.63C1954.35 1051.91 1954.5 1052.26 1954.5 1052.69C1954.5 1053.14 1954.35 1053.52 1954.04 1053.83C1953.73 1054.14 1953.34 1054.29 1952.86 1054.29C1952.39 1054.29 1952 1054.14 1951.69 1053.85Z" fill="#DEE3E5"/>
<path d="M2000.84 1064.07C2001.45 1063.44 2001.76 1062.61 2001.76 1061.58C2001.76 1060.56 2001.45 1059.73 2000.84 1059.1C2000.22 1058.47 1999.44 1058.15 1998.49 1058.15C1997.55 1058.15 1996.77 1058.47 1996.16 1059.1C1995.55 1059.73 1995.25 1060.56 1995.25 1061.58C1995.25 1062.61 1995.55 1063.44 1996.16 1064.07C1996.77 1064.7 1997.55 1065.01 1998.49 1065.01C1999.44 1065.01 2000.22 1064.7 2000.84 1064.07ZM1995.49 1066.49C1994.6 1066.01 1993.91 1065.35 1993.41 1064.49C1992.91 1063.63 1992.66 1062.67 1992.66 1061.58C1992.66 1060.5 1992.91 1059.54 1993.41 1058.69C1993.91 1057.84 1994.6 1057.17 1995.49 1056.69C1996.38 1056.22 1997.38 1055.98 1998.49 1055.98C1999.62 1055.98 2000.62 1056.22 2001.51 1056.69C2002.4 1057.17 2003.1 1057.84 2003.6 1058.69C2004.1 1059.54 2004.35 1060.5 2004.35 1061.58C2004.35 1062.67 2004.1 1063.63 2003.6 1064.49C2003.1 1065.35 2002.4 1066.01 2001.51 1066.49C2000.62 1066.97 1999.62 1067.21 1998.49 1067.21C1997.38 1067.21 1996.38 1066.97 1995.49 1066.49Z" fill="#DEE3E5"/>
<path d="M2043.65 1057.19C2044.49 1058 2044.91 1059.19 2044.91 1060.78V1067.07H2042.34V1061.11C2042.34 1060.15 2042.11 1059.43 2041.66 1058.94C2041.21 1058.46 2040.57 1058.21 2039.73 1058.21C2038.79 1058.21 2038.04 1058.5 2037.49 1059.07C2036.94 1059.64 2036.67 1060.45 2036.67 1061.52V1067.07H2034.1V1056.1H2036.55V1057.52C2036.97 1057.01 2037.51 1056.63 2038.15 1056.37C2038.79 1056.11 2039.52 1055.98 2040.33 1055.98C2041.71 1055.98 2042.82 1056.38 2043.65 1057.19Z" fill="#DEE3E5"/>
<path d="M2023.81 943.724C2021.21 941.311 2019.9 938.317 2019.9 934.743C2019.9 931.173 2021.21 928.178 2023.81 925.764C2026.42 923.352 2029.8 922.143 2033.95 922.143C2038.1 922.143 2041.48 923.302 2044.09 925.619C2046.7 927.937 2048 930.832 2048 934.309C2048 938.075 2046.7 941.189 2044.09 943.651C2041.48 946.113 2038.1 947.344 2033.95 947.344C2029.8 947.344 2026.42 946.138 2023.81 943.724Z" fill="#DEE3E5"/>
<path d="M838.752 965.966C844.69 971.76 847.659 980.355 847.659 991.747V1033.53C847.659 1035.09 846.392 1036.36 844.828 1036.36H827.895C826.332 1036.36 825.065 1035.09 825.065 1033.53V995.223C825.065 989.045 823.711 984.433 821.009 981.391C818.305 978.35 814.395 976.829 809.278 976.829C803.58 976.829 799.042 978.592 795.664 982.115C792.283 985.642 790.594 990.878 790.594 997.83V1033.53C790.594 1035.09 789.327 1036.36 787.764 1036.36H770.83C769.267 1036.36 768 1035.09 768 1033.53V961.265C768 959.702 769.267 958.435 770.83 958.435H786.75C788.314 958.435 789.581 959.702 789.581 961.265V966.152C789.581 966.662 790.193 966.903 790.555 966.544C793.367 963.75 796.76 961.555 800.733 959.956C805.173 958.17 810.05 957.277 815.361 957.277C825.015 957.277 832.813 960.173 838.752 965.966Z" fill="#4583C1"/>
<path d="M947.61 961.266V1033.53C947.61 1035.09 946.343 1036.36 944.78 1036.36H929.005C927.442 1036.36 926.175 1035.09 926.175 1033.53V1028.53C926.175 1028.01 925.553 1027.77 925.194 1028.14C922.41 1031.01 919.163 1033.24 915.457 1034.84C911.304 1036.62 906.815 1037.51 901.988 1037.51C891.752 1037.51 883.641 1034.57 877.655 1028.68C871.667 1022.79 868.676 1014.05 868.676 1002.47V961.266C868.676 959.702 869.943 958.435 871.506 958.435H888.44C890.003 958.435 891.27 959.702 891.27 961.266V999.133C891.27 1011.69 896.531 1017.96 907.056 1017.96C912.463 1017.96 916.808 1016.2 920.091 1012.68C923.373 1009.15 925.016 1003.91 925.016 996.961V961.266C925.016 959.702 926.283 958.435 927.846 958.435H944.78C946.343 958.435 947.61 959.702 947.61 961.266Z" fill="#4583C1"/>
<path d="M1039.36 965.966C1045.3 971.76 1048.27 980.355 1048.27 991.747V1033.53C1048.27 1035.09 1047 1036.36 1045.44 1036.36H1028.51C1026.94 1036.36 1025.68 1035.09 1025.68 1033.53V995.223C1025.68 989.045 1024.32 984.433 1021.62 981.391C1018.91 978.35 1015 976.829 1009.89 976.829C1004.19 976.829 999.653 978.592 996.274 982.115C992.893 985.642 991.205 990.878 991.205 997.83V1033.53C991.205 1035.09 989.937 1036.36 988.375 1036.36H971.441C969.877 1036.36 968.61 1035.09 968.61 1033.53V961.265C968.61 959.702 969.877 958.435 971.441 958.435H987.361C988.924 958.435 990.191 959.702 990.191 961.265V966.152C990.191 966.662 990.803 966.903 991.165 966.544C993.977 963.75 997.371 961.555 1001.34 959.956C1005.78 958.17 1010.66 957.277 1015.97 957.277C1025.63 957.277 1033.42 960.173 1039.36 965.966Z" fill="#4583C1"/>
<path d="M1084.84 1032.37C1078.22 1028.95 1073.06 1024.19 1069.34 1018.11C1065.62 1012.02 1063.77 1005.12 1063.77 997.395C1063.77 989.672 1065.62 982.767 1069.34 976.684C1073.06 970.601 1078.22 965.847 1084.84 962.418C1091.45 958.992 1098.91 957.277 1107.22 957.277C1115.42 957.277 1122.59 958.992 1128.72 962.418C1134.02 965.382 1138.08 969.444 1140.89 974.607C1141.63 975.968 1141.08 977.677 1139.72 978.411L1126.92 985.283C1125.64 985.975 1124.06 985.554 1123.23 984.355C1119.26 978.662 1113.88 975.816 1107.07 975.816C1101.18 975.816 1096.3 977.748 1092.44 981.608C1088.58 985.471 1086.65 990.733 1086.65 997.395C1086.65 1004.06 1088.58 1009.32 1092.44 1013.18C1096.3 1017.05 1101.18 1018.98 1107.07 1018.98C1113.95 1018.98 1119.33 1016.14 1123.22 1010.48C1124.06 1009.26 1125.65 1008.83 1126.95 1009.54C1130.28 1011.36 1136.35 1014.67 1139.71 1016.5C1141.08 1017.25 1141.61 1018.97 1140.85 1020.33C1138.04 1025.32 1134 1029.31 1128.72 1032.3C1122.59 1035.78 1115.42 1037.51 1107.22 1037.51C1098.91 1037.51 1091.45 1035.8 1084.84 1032.37Z" fill="#4583C1"/>
<path d="M1227.39 965.966C1233.33 971.76 1236.29 980.355 1236.29 991.747V1033.53C1236.29 1035.09 1235.03 1036.36 1233.46 1036.36H1216.53C1214.97 1036.36 1213.7 1035.09 1213.7 1033.53V995.223C1213.7 989.045 1212.35 984.433 1209.65 981.391C1206.94 978.35 1203.03 976.829 1197.91 976.829C1192.22 976.829 1187.68 978.592 1184.3 982.115C1180.92 985.642 1179.23 990.878 1179.23 997.83V1033.53C1179.23 1035.09 1177.96 1036.36 1176.4 1036.36H1159.47C1157.9 1036.36 1156.64 1035.09 1156.64 1033.53V931.719C1156.64 930.156 1157.9 928.889 1159.47 928.889H1176.4C1177.96 928.889 1179.23 930.156 1179.23 931.719V965.198C1179.23 965.706 1179.83 965.958 1180.21 965.615C1183 963.074 1186.29 961.09 1190.09 959.666C1194.34 958.073 1198.97 957.277 1204 957.277C1213.65 957.277 1221.45 960.173 1227.39 965.966Z" fill="#4583C1"/>
<path d="M1257.48 958.435H1274.42C1275.98 958.435 1277.25 959.702 1277.25 961.265V1033.53C1277.25 1035.09 1275.98 1036.36 1274.42 1036.36H1257.48C1255.92 1036.36 1254.65 1035.09 1254.65 1033.53V961.265C1254.65 959.702 1255.92 958.435 1257.48 958.435Z" fill="#4583C1"/>
<path d="M771.656 1066.72C770.753 1066.24 770.047 1065.57 769.541 1064.72C769.034 1063.86 768.781 1062.89 768.781 1061.81C768.781 1060.73 769.034 1059.76 769.541 1058.92C770.047 1058.07 770.749 1057.4 771.646 1056.92C772.543 1056.44 773.566 1056.2 774.717 1056.2C775.798 1056.2 776.747 1056.42 777.562 1056.86C778.376 1057.3 778.989 1057.93 779.4 1058.75L777.428 1059.9C777.113 1059.39 776.719 1059.01 776.247 1058.76C775.775 1058.51 775.258 1058.38 774.696 1058.38C773.737 1058.38 772.943 1058.69 772.314 1059.32C771.684 1059.94 771.369 1060.77 771.369 1061.81C771.369 1062.85 771.68 1063.68 772.303 1064.31C772.926 1064.93 773.724 1065.24 774.696 1065.24C775.258 1065.24 775.775 1065.12 776.247 1064.86C776.719 1064.61 777.113 1064.23 777.428 1063.72L779.4 1064.87C778.976 1065.69 778.356 1066.33 777.541 1066.77C776.727 1067.22 775.785 1067.44 774.717 1067.44C773.58 1067.44 772.56 1067.2 771.656 1066.72Z" fill="#4583C1"/>
<path d="M818.399 1064.3C819.016 1063.67 819.323 1062.84 819.323 1061.81C819.323 1060.78 819.016 1059.96 818.399 1059.33C817.783 1058.7 817.002 1058.38 816.058 1058.38C815.113 1058.38 814.335 1058.7 813.726 1059.33C813.117 1059.96 812.812 1060.78 812.812 1061.81C812.812 1062.84 813.117 1063.67 813.726 1064.3C814.335 1064.93 815.113 1065.24 816.058 1065.24C817.002 1065.24 817.783 1064.93 818.399 1064.3ZM813.059 1066.72C812.169 1066.24 811.474 1065.57 810.974 1064.72C810.474 1063.86 810.224 1062.89 810.224 1061.81C810.224 1060.73 810.474 1059.77 810.974 1058.92C811.474 1058.07 812.169 1057.4 813.059 1056.92C813.949 1056.44 814.948 1056.2 816.058 1056.2C817.181 1056.2 818.187 1056.44 819.077 1056.92C819.967 1057.4 820.662 1058.07 821.162 1058.92C821.662 1059.77 821.912 1060.73 821.912 1061.81C821.912 1062.89 821.662 1063.86 821.162 1064.72C820.662 1065.57 819.967 1066.24 819.077 1066.72C818.187 1067.2 817.181 1067.44 816.058 1067.44C814.948 1067.44 813.949 1067.2 813.059 1066.72Z" fill="#4583C1"/>
<path d="M868.798 1057.41C869.606 1058.21 870.01 1059.41 870.01 1061.01V1067.3H867.442V1061.34C867.442 1060.38 867.23 1059.66 866.806 1059.17C866.381 1058.69 865.772 1058.44 864.978 1058.44C864.115 1058.44 863.424 1058.73 862.904 1059.3C862.382 1059.86 862.123 1060.68 862.123 1061.73V1067.3H859.555V1061.34C859.555 1060.38 859.343 1059.66 858.919 1059.17C858.494 1058.69 857.884 1058.44 857.09 1058.44C856.214 1058.44 855.519 1058.72 855.006 1059.29C854.492 1059.85 854.235 1060.66 854.235 1061.73V1067.3H851.668V1056.33H854.112V1057.72C854.523 1057.23 855.036 1056.85 855.652 1056.59C856.269 1056.33 856.953 1056.2 857.707 1056.2C858.528 1056.2 859.257 1056.36 859.894 1056.67C860.531 1056.97 861.034 1057.43 861.404 1058.03C861.856 1057.46 862.438 1057.01 863.15 1056.69C863.862 1056.37 864.649 1056.2 865.512 1056.2C866.895 1056.2 867.99 1056.6 868.798 1057.41Z" fill="#4583C1"/>
<path d="M910.242 1057.41C911.049 1058.21 911.454 1059.41 911.454 1061.01V1067.3H908.886V1061.34C908.886 1060.38 908.674 1059.66 908.25 1059.17C907.825 1058.69 907.215 1058.44 906.422 1058.44C905.559 1058.44 904.867 1058.73 904.347 1059.3C903.826 1059.86 903.566 1060.68 903.566 1061.73V1067.3H900.999V1061.34C900.999 1060.38 900.786 1059.66 900.362 1059.17C899.937 1058.69 899.328 1058.44 898.534 1058.44C897.658 1058.44 896.962 1058.72 896.449 1059.29C895.936 1059.85 895.679 1060.66 895.679 1061.73V1067.3H893.111V1056.33H895.555V1057.72C895.967 1057.23 896.48 1056.85 897.096 1056.59C897.712 1056.33 898.397 1056.2 899.15 1056.2C899.971 1056.2 900.701 1056.36 901.338 1056.67C901.974 1056.97 902.478 1057.43 902.847 1058.03C903.299 1057.46 903.881 1057.01 904.593 1056.69C905.305 1056.37 906.093 1056.2 906.956 1056.2C908.338 1056.2 909.433 1056.6 910.242 1057.41Z" fill="#4583C1"/>
<path d="M945.257 1056.33V1067.3H942.812V1065.9C942.401 1066.39 941.888 1066.77 941.272 1067.04C940.656 1067.31 939.991 1067.44 939.28 1067.44C937.814 1067.44 936.661 1067.03 935.818 1066.22C934.976 1065.4 934.555 1064.19 934.555 1062.59V1056.33H937.123V1062.24C937.123 1063.23 937.345 1063.97 937.79 1064.45C938.235 1064.94 938.869 1065.18 939.69 1065.18C940.608 1065.18 941.337 1064.9 941.878 1064.33C942.419 1063.76 942.689 1062.94 942.689 1061.87V1056.33H945.257Z" fill="#4583C1"/>
<path d="M985.55 1057.42C986.385 1058.22 986.803 1059.42 986.803 1061.01V1067.3H984.235V1061.34C984.235 1060.38 984.009 1059.66 983.557 1059.17C983.106 1058.69 982.462 1058.44 981.627 1058.44C980.682 1058.44 979.935 1058.73 979.388 1059.3C978.84 1059.86 978.566 1060.68 978.566 1061.75V1067.3H975.998V1056.33H978.443V1057.74C978.868 1057.24 979.401 1056.85 980.045 1056.59C980.689 1056.33 981.414 1056.2 982.222 1056.2C983.605 1056.2 984.714 1056.61 985.55 1057.42Z" fill="#4583C1"/>
<path d="M1017.79 1056.33H1020.36V1067.3H1017.79V1056.33ZM1017.91 1054.08C1017.6 1053.78 1017.44 1053.42 1017.44 1052.98C1017.44 1052.54 1017.6 1052.18 1017.91 1051.88C1018.23 1051.59 1018.62 1051.44 1019.09 1051.44C1019.55 1051.44 1019.94 1051.58 1020.26 1051.86C1020.57 1052.14 1020.73 1052.49 1020.73 1052.92C1020.73 1053.37 1020.57 1053.75 1020.27 1054.06C1019.96 1054.37 1019.56 1054.52 1019.09 1054.52C1018.62 1054.52 1018.23 1054.37 1017.91 1054.08Z" fill="#4583C1"/>
<path d="M1061.76 1066.72C1060.86 1066.24 1060.15 1065.57 1059.65 1064.72C1059.14 1063.86 1058.89 1062.89 1058.89 1061.81C1058.89 1060.73 1059.14 1059.76 1059.65 1058.92C1060.15 1058.07 1060.85 1057.4 1061.75 1056.92C1062.65 1056.44 1063.67 1056.2 1064.82 1056.2C1065.9 1056.2 1066.85 1056.42 1067.67 1056.86C1068.48 1057.3 1069.09 1057.93 1069.51 1058.75L1067.53 1059.9C1067.22 1059.39 1066.82 1059.01 1066.35 1058.76C1065.88 1058.51 1065.36 1058.38 1064.8 1058.38C1063.84 1058.38 1063.05 1058.69 1062.42 1059.32C1061.79 1059.94 1061.47 1060.77 1061.47 1061.81C1061.47 1062.85 1061.79 1063.68 1062.41 1064.31C1063.03 1064.93 1063.83 1065.24 1064.8 1065.24C1065.36 1065.24 1065.88 1065.12 1066.35 1064.86C1066.82 1064.61 1067.22 1064.23 1067.53 1063.72L1069.51 1064.87C1069.08 1065.69 1068.46 1066.33 1067.65 1066.77C1066.83 1067.22 1065.89 1067.44 1064.82 1067.44C1063.69 1067.44 1062.67 1067.2 1061.76 1066.72Z" fill="#4583C1"/>
<path d="M1106.67 1065.13C1107.17 1064.83 1107.52 1064.41 1107.72 1063.87V1062.59H1105.07C1103.6 1062.59 1102.86 1063.08 1102.86 1064.05C1102.86 1064.52 1103.04 1064.89 1103.41 1065.16C1103.78 1065.43 1104.29 1065.57 1104.95 1065.57C1105.59 1065.57 1106.17 1065.42 1106.67 1065.13ZM1109.01 1057.36C1109.86 1058.14 1110.29 1059.31 1110.29 1060.87V1067.3H1107.87V1065.96C1107.55 1066.44 1107.1 1066.81 1106.52 1067.06C1105.94 1067.31 1105.24 1067.44 1104.42 1067.44C1103.6 1067.44 1102.88 1067.3 1102.26 1067.02C1101.64 1066.74 1101.17 1066.35 1100.83 1065.85C1100.5 1065.35 1100.33 1064.78 1100.33 1064.15C1100.33 1063.17 1100.7 1062.38 1101.43 1061.78C1102.16 1061.18 1103.31 1060.89 1104.89 1060.89H1107.72V1060.72C1107.72 1059.96 1107.5 1059.37 1107.04 1058.96C1106.58 1058.55 1105.9 1058.34 1104.99 1058.34C1104.38 1058.34 1103.77 1058.44 1103.17 1058.63C1102.58 1058.82 1102.08 1059.09 1101.67 1059.43L1100.66 1057.56C1101.23 1057.12 1101.92 1056.79 1102.73 1056.55C1103.54 1056.32 1104.4 1056.2 1105.3 1056.2C1106.92 1056.2 1108.15 1056.59 1109.01 1057.36Z" fill="#4583C1"/>
<path d="M1149.82 1066.7C1149.52 1066.95 1149.16 1067.13 1148.73 1067.25C1148.29 1067.38 1147.84 1067.44 1147.36 1067.44C1146.15 1067.44 1145.22 1067.12 1144.57 1066.49C1143.91 1065.87 1143.58 1064.95 1143.58 1063.74V1058.46H1141.77V1056.41H1143.58V1053.9H1146.15V1056.41H1149.09V1058.46H1146.15V1063.68C1146.15 1064.21 1146.28 1064.62 1146.54 1064.9C1146.8 1065.18 1147.17 1065.32 1147.67 1065.32C1148.24 1065.32 1148.72 1065.17 1149.11 1064.87L1149.82 1066.7Z" fill="#4583C1"/>
<path d="M1183.57 1056.33H1186.13V1067.3H1183.57V1056.33ZM1183.69 1054.08C1183.37 1053.78 1183.22 1053.42 1183.22 1052.98C1183.22 1052.54 1183.37 1052.18 1183.69 1051.88C1184 1051.59 1184.39 1051.44 1184.86 1051.44C1185.33 1051.44 1185.72 1051.58 1186.03 1051.86C1186.35 1052.14 1186.5 1052.49 1186.5 1052.92C1186.5 1053.37 1186.35 1053.75 1186.04 1054.06C1185.73 1054.37 1185.34 1054.52 1184.86 1054.52C1184.39 1054.52 1184 1054.37 1183.69 1054.08Z" fill="#4583C1"/>
<path d="M1232.84 1064.3C1233.45 1063.67 1233.76 1062.84 1233.76 1061.81C1233.76 1060.78 1233.45 1059.96 1232.84 1059.33C1232.22 1058.7 1231.44 1058.38 1230.49 1058.38C1229.55 1058.38 1228.77 1058.7 1228.16 1059.33C1227.55 1059.96 1227.25 1060.78 1227.25 1061.81C1227.25 1062.84 1227.55 1063.67 1228.16 1064.3C1228.77 1064.93 1229.55 1065.24 1230.49 1065.24C1231.44 1065.24 1232.22 1064.93 1232.84 1064.3ZM1227.49 1066.72C1226.6 1066.24 1225.91 1065.57 1225.41 1064.72C1224.91 1063.86 1224.66 1062.89 1224.66 1061.81C1224.66 1060.73 1224.91 1059.77 1225.41 1058.92C1225.91 1058.07 1226.6 1057.4 1227.49 1056.92C1228.38 1056.44 1229.38 1056.2 1230.49 1056.2C1231.62 1056.2 1232.62 1056.44 1233.51 1056.92C1234.4 1057.4 1235.1 1058.07 1235.6 1058.92C1236.1 1059.77 1236.35 1060.73 1236.35 1061.81C1236.35 1062.89 1236.1 1063.86 1235.6 1064.72C1235.1 1065.57 1234.4 1066.24 1233.51 1066.72C1232.62 1067.2 1231.62 1067.44 1230.49 1067.44C1229.38 1067.44 1228.38 1067.2 1227.49 1066.72Z" fill="#4583C1"/>
<path d="M1275.65 1057.42C1276.49 1058.22 1276.91 1059.42 1276.91 1061.01V1067.3H1274.34V1061.34C1274.34 1060.38 1274.11 1059.66 1273.66 1059.17C1273.21 1058.69 1272.57 1058.44 1271.73 1058.44C1270.79 1058.44 1270.04 1058.73 1269.49 1059.3C1268.94 1059.86 1268.67 1060.68 1268.67 1061.75V1067.3H1266.1V1056.33H1268.55V1057.74C1268.97 1057.24 1269.51 1056.85 1270.15 1056.59C1270.79 1056.33 1271.52 1056.2 1272.33 1056.2C1273.71 1056.2 1274.82 1056.61 1275.65 1057.42Z" fill="#4583C1"/>
<path d="M1255.81 943.952C1253.21 941.539 1251.9 938.546 1251.9 934.972C1251.9 931.401 1253.21 928.407 1255.81 925.992C1258.42 923.58 1261.8 922.371 1265.95 922.371C1270.1 922.371 1273.48 923.53 1276.09 925.847C1278.7 928.165 1280 931.061 1280 934.538C1280 938.303 1278.7 941.417 1276.09 943.879C1273.48 946.341 1270.1 947.572 1265.95 947.572C1261.8 947.572 1258.42 946.367 1255.81 943.952Z" fill="#4583C1"/>
<path d="M70.7518 965.738C76.69 971.531 79.6587 980.127 79.6587 991.519V1033.3C79.6587 1034.86 78.3916 1036.13 76.8285 1036.13H59.8949C58.3318 1036.13 57.0647 1034.86 57.0647 1033.3V994.994C57.0647 988.816 55.7112 984.204 53.0093 981.162C50.3051 978.121 46.3948 976.601 41.2781 976.601C35.5797 976.601 31.0422 978.363 27.6636 981.887C24.2825 985.413 22.5944 990.649 22.5944 997.602V1033.3C22.5944 1034.86 21.3269 1036.13 19.7642 1036.13H2.83019C1.26705 1036.13 0 1034.86 0 1033.3V961.037C0 959.474 1.26705 958.207 2.83019 958.207H18.7505C20.3136 958.207 21.5807 959.474 21.5807 961.037V965.924C21.5807 966.434 22.1926 966.674 22.5545 966.315C25.3669 963.522 28.7605 961.326 32.7327 959.728C37.1727 957.942 42.0496 957.048 47.361 957.048C57.0148 957.048 64.8131 959.944 70.7518 965.738Z" fill="#E94C8E"/>
<path d="M179.61 961.037V1033.3C179.61 1034.86 178.343 1036.13 176.78 1036.13H161.005C159.442 1036.13 158.175 1034.86 158.175 1033.3V1028.3C158.175 1027.79 157.553 1027.55 157.194 1027.92C154.41 1030.78 151.163 1033.01 147.457 1034.61C143.304 1036.39 138.815 1037.29 133.988 1037.29C123.752 1037.29 115.641 1034.34 109.655 1028.45C103.667 1022.56 100.676 1013.82 100.676 1002.24V961.037C100.676 959.474 101.943 958.207 103.506 958.207H120.44C122.003 958.207 123.27 959.474 123.27 961.037V998.905C123.27 1011.46 128.531 1017.73 139.056 1017.73C144.463 1017.73 148.808 1015.97 152.091 1012.45C155.373 1008.92 157.016 1003.68 157.016 996.733V961.037C157.016 959.474 158.283 958.207 159.846 958.207H176.78C178.343 958.207 179.61 959.474 179.61 961.037Z" fill="#E94C8E"/>
<path d="M271.362 965.738C277.3 971.531 280.269 980.127 280.269 991.519V1033.3C280.269 1034.86 279.002 1036.13 277.439 1036.13H260.505C258.942 1036.13 257.675 1034.86 257.675 1033.3V994.994C257.675 988.816 256.323 984.204 253.62 981.162C250.915 978.121 247.005 976.601 241.888 976.601C236.19 976.601 231.653 978.363 228.274 981.887C224.893 985.413 223.205 990.649 223.205 997.602V1033.3C223.205 1034.86 221.937 1036.13 220.375 1036.13H203.441C201.877 1036.13 200.61 1034.86 200.61 1033.3V961.037C200.61 959.474 201.877 958.207 203.441 958.207H219.361C220.924 958.207 222.191 959.474 222.191 961.037V965.924C222.191 966.434 222.803 966.674 223.165 966.315C225.977 963.522 229.371 961.326 233.343 959.728C237.783 957.942 242.659 957.048 247.971 957.048C257.626 957.048 265.424 959.944 271.362 965.738Z" fill="#E94C8E"/>
<path d="M316.839 1032.14C310.224 1028.72 305.057 1023.96 301.341 1017.88C297.623 1011.79 295.766 1004.89 295.766 997.166C295.766 989.444 297.623 982.538 301.341 976.456C305.057 970.373 310.224 965.618 316.839 962.19C323.451 958.764 330.91 957.048 339.216 957.048C347.421 957.048 354.591 958.764 360.724 962.19C366.022 965.153 370.077 969.215 372.889 974.379C373.629 975.739 373.081 977.449 371.716 978.182L358.923 985.055C357.636 985.746 356.062 985.325 355.227 984.126C351.265 978.434 345.878 975.587 339.071 975.587C333.18 975.587 328.303 977.52 324.443 981.38C320.58 985.243 318.649 990.504 318.649 997.166C318.649 1003.83 320.58 1009.09 324.443 1012.95C328.303 1016.82 333.18 1018.75 339.071 1018.75C345.947 1018.75 351.331 1015.92 355.224 1010.25C356.061 1009.04 357.651 1008.6 358.947 1009.31C362.281 1011.13 368.35 1014.44 371.714 1016.28C373.079 1017.02 373.613 1018.74 372.85 1020.1C370.04 1025.09 365.998 1029.08 360.724 1032.07C354.591 1035.55 347.421 1037.29 339.216 1037.29C330.91 1037.29 323.451 1035.57 316.839 1032.14Z" fill="#E94C8E"/>
<path d="M459.388 965.738C465.325 971.531 468.295 980.127 468.295 991.519V1033.3C468.295 1034.86 467.028 1036.13 465.464 1036.13H448.531C446.968 1036.13 445.701 1034.86 445.701 1033.3V994.994C445.701 988.816 444.348 984.204 441.645 981.162C438.94 978.121 435.03 976.601 429.914 976.601C424.216 976.601 419.678 978.363 416.299 981.887C412.918 985.413 411.23 990.649 411.23 997.602V1033.3C411.23 1034.86 409.963 1036.13 408.4 1036.13H391.466C389.903 1036.13 388.636 1034.86 388.636 1033.3V931.491C388.636 929.927 389.903 928.66 391.466 928.66H408.4C409.963 928.66 411.23 929.927 411.23 931.491V964.97C411.23 965.478 411.83 965.729 412.205 965.387C414.998 962.846 418.295 960.862 422.093 959.438C426.341 957.844 430.975 957.048 435.996 957.048C445.651 957.048 453.449 959.944 459.388 965.738Z" fill="#E94C8E"/>
<path d="M489.484 958.207H506.418C507.981 958.207 509.248 959.474 509.248 961.037V1033.3C509.248 1034.86 507.981 1036.13 506.418 1036.13H489.484C487.921 1036.13 486.654 1034.86 486.654 1033.3V961.037C486.654 959.474 487.921 958.207 489.484 958.207Z" fill="#E94C8E"/>
<path d="M3.65642 1066.49C2.75276 1066.01 2.04713 1065.35 1.5405 1064.49C1.03387 1063.63 0.780564 1062.67 0.780564 1061.58C0.780564 1060.5 1.03387 1059.54 1.5405 1058.69C2.04713 1057.84 2.74891 1057.17 3.64584 1056.69C4.54277 1056.22 5.56612 1055.98 6.71685 1055.98C7.79836 1055.98 8.74672 1056.19 9.56194 1056.63C10.3762 1057.07 10.9891 1057.7 11.4 1058.52L9.42784 1059.67C9.113 1059.17 8.71932 1058.79 8.2473 1058.53C7.7748 1058.28 7.2576 1058.15 6.69618 1058.15C5.73724 1058.15 4.94317 1058.46 4.3135 1059.09C3.68382 1059.71 3.3685 1060.54 3.3685 1061.58C3.3685 1062.62 3.67997 1063.46 4.30292 1064.08C4.92635 1064.7 5.72378 1065.01 6.69618 1065.01C7.2576 1065.01 7.7748 1064.89 8.2473 1064.63C8.71932 1064.38 9.113 1064 9.42784 1063.49L11.4 1064.64C10.9756 1065.47 10.3555 1066.1 9.54127 1066.54C8.72654 1066.99 7.7849 1067.21 6.71685 1067.21C5.58006 1067.21 4.56008 1066.97 3.65642 1066.49Z" fill="#E94C8E"/>
<path d="M50.3995 1064.07C51.0157 1063.44 51.3233 1062.61 51.3233 1061.58C51.3233 1060.56 51.0157 1059.73 50.3995 1059.1C49.7828 1058.47 49.0022 1058.15 48.0577 1058.15C47.1127 1058.15 46.3354 1058.47 45.7264 1059.1C45.1169 1059.73 44.8122 1060.56 44.8122 1061.58C44.8122 1062.61 45.1169 1063.44 45.7264 1064.07C46.3354 1064.7 47.1127 1065.01 48.0577 1065.01C49.0022 1065.01 49.7828 1064.7 50.3995 1064.07ZM45.0587 1066.49C44.1685 1066.01 43.474 1065.35 42.9741 1064.49C42.4737 1063.63 42.2242 1062.67 42.2242 1061.58C42.2242 1060.5 42.4737 1059.54 42.9741 1058.69C43.474 1057.84 44.1685 1057.17 45.0587 1056.69C45.949 1056.22 46.9483 1055.98 48.0577 1055.98C49.1805 1055.98 50.1866 1056.22 51.0768 1056.69C51.967 1057.17 52.6615 1057.84 53.1619 1058.69C53.6618 1059.54 53.9118 1060.5 53.9118 1061.58C53.9118 1062.67 53.6618 1063.63 53.1619 1064.49C52.6615 1065.35 51.967 1066.01 51.0768 1066.49C50.1866 1066.97 49.1805 1067.21 48.0577 1067.21C46.9483 1067.21 45.949 1066.97 45.0587 1066.49Z" fill="#E94C8E"/>
<path d="M100.798 1057.18C101.606 1057.98 102.01 1059.18 102.01 1060.78V1067.07H99.4425V1061.11C99.4425 1060.15 99.23 1059.43 98.8061 1058.94C98.3811 1058.46 97.7717 1058.21 96.9781 1058.21C96.1153 1058.21 95.4236 1058.5 94.9035 1059.07C94.3825 1059.64 94.1229 1060.45 94.1229 1061.5V1067.07H91.5552V1061.11C91.5552 1060.15 91.3427 1059.43 90.9187 1058.94C90.4938 1058.46 89.8844 1058.21 89.0903 1058.21C88.214 1058.21 87.519 1058.5 87.0056 1059.06C86.4922 1059.62 86.2351 1060.43 86.2351 1061.5V1067.07H83.6678V1056.1H86.1116V1057.5C86.523 1057 87.0364 1056.63 87.6521 1056.37C88.2688 1056.11 88.9533 1055.98 89.7065 1055.98C90.528 1055.98 91.2571 1056.13 91.894 1056.44C92.5309 1056.75 93.0342 1057.2 93.4038 1057.8C93.8557 1057.23 94.4377 1056.78 95.1496 1056.46C95.862 1056.14 96.6493 1055.98 97.5121 1055.98C98.895 1055.98 99.99 1056.38 100.798 1057.18Z" fill="#E94C8E"/>
<path d="M142.242 1057.18C143.049 1057.98 143.454 1059.18 143.454 1060.78V1067.07H140.886V1061.11C140.886 1060.15 140.674 1059.43 140.25 1058.94C139.825 1058.46 139.215 1058.21 138.422 1058.21C137.559 1058.21 136.867 1058.5 136.347 1059.07C135.826 1059.64 135.566 1060.45 135.566 1061.5V1067.07H132.999V1061.11C132.999 1060.15 132.786 1059.43 132.362 1058.94C131.937 1058.46 131.328 1058.21 130.534 1058.21C129.658 1058.21 128.962 1058.5 128.449 1059.06C127.936 1059.62 127.679 1060.43 127.679 1061.5V1067.07H125.111V1056.1H127.555V1057.5C127.967 1057 128.48 1056.63 129.096 1056.37C129.712 1056.11 130.397 1055.98 131.15 1055.98C131.971 1055.98 132.701 1056.13 133.338 1056.44C133.974 1056.75 134.478 1057.2 134.847 1057.8C135.299 1057.23 135.881 1056.78 136.593 1056.46C137.305 1056.14 138.093 1055.98 138.956 1055.98C140.338 1055.98 141.433 1056.38 142.242 1057.18Z" fill="#E94C8E"/>
<path d="M177.257 1056.1V1067.07H174.812V1065.67C174.401 1066.16 173.888 1066.54 173.272 1066.81C172.656 1067.08 171.991 1067.21 171.28 1067.21C169.814 1067.21 168.661 1066.8 167.818 1065.99C166.976 1065.17 166.555 1063.97 166.555 1062.36V1056.1H169.123V1062.01C169.123 1063 169.345 1063.74 169.79 1064.22C170.235 1064.71 170.869 1064.95 171.69 1064.95C172.608 1064.95 173.337 1064.67 173.878 1064.1C174.419 1063.53 174.689 1062.71 174.689 1061.64V1056.1H177.257Z" fill="#E94C8E"/>
<path d="M217.55 1057.19C218.385 1058 218.803 1059.19 218.803 1060.78V1067.07H216.235V1061.11C216.235 1060.15 216.009 1059.43 215.557 1058.94C215.106 1058.46 214.462 1058.21 213.627 1058.21C212.682 1058.21 211.935 1058.5 211.388 1059.07C210.84 1059.64 210.566 1060.45 210.566 1061.52V1067.07H207.998V1056.1H210.443V1057.52C210.868 1057.01 211.401 1056.63 212.045 1056.37C212.689 1056.11 213.414 1055.98 214.222 1055.98C215.605 1055.98 216.714 1056.38 217.55 1057.19Z" fill="#E94C8E"/>
<path d="M249.791 1056.1H252.359V1067.07H249.791V1056.1ZM249.915 1053.85C249.599 1053.56 249.442 1053.19 249.442 1052.75C249.442 1052.31 249.599 1051.95 249.915 1051.65C250.229 1051.36 250.62 1051.21 251.085 1051.21C251.551 1051.21 251.941 1051.35 252.256 1051.63C252.571 1051.91 252.729 1052.26 252.729 1052.69C252.729 1053.14 252.574 1053.52 252.267 1053.83C251.958 1054.14 251.565 1054.29 251.085 1054.29C250.62 1054.29 250.229 1054.14 249.915 1053.85Z" fill="#E94C8E"/>
<path d="M293.762 1066.49C292.858 1066.01 292.152 1065.35 291.646 1064.49C291.139 1063.63 290.886 1062.67 290.886 1061.58C290.886 1060.5 291.139 1059.54 291.646 1058.69C292.152 1057.84 292.854 1057.17 293.751 1056.69C294.648 1056.22 295.672 1055.98 296.822 1055.98C297.904 1055.98 298.852 1056.19 299.667 1056.63C300.481 1057.07 301.094 1057.7 301.505 1058.52L299.533 1059.67C299.218 1059.17 298.824 1058.79 298.352 1058.53C297.88 1058.28 297.363 1058.15 296.801 1058.15C295.842 1058.15 295.048 1058.46 294.419 1059.09C293.789 1059.71 293.474 1060.54 293.474 1061.58C293.474 1062.62 293.785 1063.46 294.408 1064.08C295.032 1064.7 295.829 1065.01 296.801 1065.01C297.363 1065.01 297.88 1064.89 298.352 1064.63C298.824 1064.38 299.218 1064 299.533 1063.49L301.505 1064.64C301.081 1065.47 300.461 1066.1 299.646 1066.54C298.832 1066.99 297.89 1067.21 296.822 1067.21C295.685 1067.21 294.665 1066.97 293.762 1066.49Z" fill="#E94C8E"/>
<path d="M338.666 1064.9C339.166 1064.61 339.519 1064.19 339.724 1063.64V1062.36H337.074C335.595 1062.36 334.856 1062.85 334.856 1063.82C334.856 1064.29 335.041 1064.66 335.411 1064.93C335.78 1065.21 336.294 1065.34 336.951 1065.34C337.594 1065.34 338.166 1065.2 338.666 1064.9ZM341.008 1057.14C341.864 1057.91 342.292 1059.08 342.292 1060.64V1067.07H339.868V1065.73C339.553 1066.21 339.104 1066.58 338.523 1066.83C337.94 1067.08 337.239 1067.21 336.417 1067.21C335.595 1067.21 334.877 1067.07 334.26 1066.79C333.644 1066.51 333.168 1066.12 332.833 1065.62C332.497 1065.12 332.33 1064.55 332.33 1063.93C332.33 1062.94 332.695 1062.15 333.428 1061.55C334.161 1060.96 335.315 1060.66 336.889 1060.66H339.724V1060.49C339.724 1059.73 339.495 1059.14 339.036 1058.73C338.577 1058.32 337.896 1058.11 336.992 1058.11C336.376 1058.11 335.77 1058.21 335.174 1058.4C334.579 1058.59 334.076 1058.86 333.665 1059.2L332.658 1057.33C333.233 1056.89 333.925 1056.56 334.733 1056.33C335.541 1056.09 336.397 1055.98 337.3 1055.98C338.916 1055.98 340.152 1056.36 341.008 1057.14Z" fill="#E94C8E"/>
<path d="M381.825 1066.47C381.523 1066.72 381.157 1066.9 380.726 1067.03C380.294 1067.15 379.839 1067.21 379.36 1067.21C378.155 1067.21 377.224 1066.9 376.567 1066.27C375.909 1065.64 375.58 1064.72 375.58 1063.51V1058.23H373.773V1056.18H375.58V1053.68H378.148V1056.18H381.085V1058.23H378.148V1063.45C378.148 1063.99 378.277 1064.39 378.539 1064.67C378.798 1064.96 379.175 1065.1 379.668 1065.1C380.243 1065.1 380.722 1064.94 381.106 1064.64L381.825 1066.47Z" fill="#E94C8E"/>
<path d="M415.566 1056.1H418.133V1067.07H415.566V1056.1ZM415.689 1053.85C415.374 1053.56 415.216 1053.19 415.216 1052.75C415.216 1052.31 415.374 1051.95 415.689 1051.65C416.004 1051.36 416.394 1051.21 416.86 1051.21C417.325 1051.21 417.716 1051.35 418.03 1051.63C418.345 1051.91 418.503 1052.26 418.503 1052.69C418.503 1053.14 418.349 1053.52 418.041 1053.83C417.732 1054.14 417.339 1054.29 416.86 1054.29C416.394 1054.29 416.004 1054.14 415.689 1053.85Z" fill="#E94C8E"/>
<path d="M464.835 1064.07C465.451 1063.44 465.759 1062.61 465.759 1061.58C465.759 1060.56 465.451 1059.73 464.835 1059.1C464.218 1058.47 463.438 1058.15 462.493 1058.15C461.548 1058.15 460.771 1058.47 460.162 1059.1C459.553 1059.73 459.248 1060.56 459.248 1061.58C459.248 1062.61 459.553 1063.44 460.162 1064.07C460.771 1064.7 461.548 1065.01 462.493 1065.01C463.438 1065.01 464.218 1064.7 464.835 1064.07ZM459.494 1066.49C458.604 1066.01 457.91 1065.35 457.41 1064.49C456.909 1063.63 456.66 1062.67 456.66 1061.58C456.66 1060.5 456.909 1059.54 457.41 1058.69C457.91 1057.84 458.604 1057.17 459.494 1056.69C460.385 1056.22 461.384 1055.98 462.493 1055.98C463.616 1055.98 464.622 1056.22 465.512 1056.69C466.403 1057.17 467.097 1057.84 467.598 1058.69C468.097 1059.54 468.347 1060.5 468.347 1061.58C468.347 1062.67 468.097 1063.63 467.598 1064.49C467.097 1065.35 466.403 1066.01 465.512 1066.49C464.622 1066.97 463.616 1067.21 462.493 1067.21C461.384 1067.21 460.385 1066.97 459.494 1066.49Z" fill="#E94C8E"/>
<path d="M507.655 1057.19C508.49 1058 508.908 1059.19 508.908 1060.78V1067.07H506.34V1061.11C506.34 1060.15 506.114 1059.43 505.662 1058.94C505.211 1058.46 504.566 1058.21 503.732 1058.21C502.787 1058.21 502.04 1058.5 501.493 1059.07C500.945 1059.64 500.671 1060.45 500.671 1061.52V1067.07H498.104V1056.1H500.548V1057.52C500.972 1057.01 501.506 1056.63 502.15 1056.37C502.794 1056.11 503.519 1055.98 504.327 1055.98C505.71 1055.98 506.819 1056.38 507.655 1057.19Z" fill="#E94C8E"/>
<path d="M487.813 943.724C485.206 941.311 483.902 938.317 483.902 934.743C483.902 931.173 485.206 928.178 487.813 925.764C490.42 923.352 493.798 922.143 497.952 922.143C502.102 922.143 505.483 923.302 508.09 925.619C510.697 927.937 512 930.832 512 934.309C512 938.075 510.697 941.189 508.09 943.651C505.483 946.113 502.102 947.344 497.952 947.344C493.798 947.344 490.42 946.138 487.813 943.724Z" fill="#E94C8E"/>
<path d="M2374.75 594.367C2380.69 600.16 2383.66 608.755 2383.66 620.147V661.926C2383.66 663.489 2382.39 664.756 2380.83 664.756H2363.89C2362.33 664.756 2361.06 663.489 2361.06 661.926V623.623C2361.06 617.445 2359.71 612.833 2357.01 609.791C2354.31 606.75 2350.39 605.229 2345.28 605.229C2339.58 605.229 2335.04 606.992 2331.66 610.516C2328.28 614.042 2326.59 619.278 2326.59 626.23V661.926C2326.59 663.489 2325.33 664.756 2323.76 664.756H2306.83C2305.27 664.756 2304 663.489 2304 661.926V589.666C2304 588.102 2305.27 586.835 2306.83 586.835H2322.75C2324.31 586.835 2325.58 588.102 2325.58 589.666V594.553C2325.58 595.063 2326.19 595.303 2326.55 594.944C2329.37 592.151 2332.76 589.955 2336.73 588.356C2341.17 586.571 2346.05 585.677 2351.36 585.677C2361.01 585.677 2368.81 588.573 2374.75 594.367Z" fill="black"/>
<path d="M2483.61 589.666V661.926C2483.61 663.489 2482.34 664.756 2480.78 664.756H2465C2463.44 664.756 2462.17 663.489 2462.17 661.926V656.929C2462.17 656.414 2461.55 656.175 2461.19 656.544C2458.41 659.411 2455.16 661.64 2451.46 663.235C2447.3 665.021 2442.81 665.915 2437.99 665.915C2427.75 665.915 2419.64 662.97 2413.66 657.08C2407.67 651.192 2404.68 642.452 2404.68 630.865V589.666C2404.68 588.103 2405.94 586.836 2407.51 586.836H2424.44C2426 586.836 2427.27 588.103 2427.27 589.666V627.533C2427.27 640.086 2432.53 646.362 2443.06 646.362C2448.46 646.362 2452.81 644.602 2456.09 641.076C2459.37 637.552 2461.02 632.313 2461.02 625.361V589.666C2461.02 588.103 2462.28 586.836 2463.85 586.836H2480.78C2482.34 586.836 2483.61 588.103 2483.61 589.666Z" fill="black"/>
<path d="M2575.36 594.367C2581.3 600.16 2584.27 608.755 2584.27 620.147V661.926C2584.27 663.489 2583 664.756 2581.44 664.756H2564.51C2562.94 664.756 2561.68 663.489 2561.68 661.926V623.623C2561.68 617.445 2560.32 612.833 2557.62 609.791C2554.91 606.75 2551 605.229 2545.89 605.229C2540.19 605.229 2535.65 606.992 2532.27 610.516C2528.89 614.042 2527.2 619.278 2527.2 626.23V661.926C2527.2 663.489 2525.94 664.756 2524.37 664.756H2507.44C2505.88 664.756 2504.61 663.489 2504.61 661.926V589.666C2504.61 588.102 2505.88 586.835 2507.44 586.835H2523.36C2524.92 586.835 2526.19 588.102 2526.19 589.666V594.553C2526.19 595.063 2526.8 595.303 2527.16 594.944C2529.98 592.151 2533.37 589.955 2537.34 588.356C2541.78 586.571 2546.66 585.677 2551.97 585.677C2561.63 585.677 2569.42 588.573 2575.36 594.367Z" fill="black"/>
<path d="M2620.84 660.773C2614.22 657.347 2609.06 652.59 2605.34 646.507C2601.62 640.423 2599.77 633.521 2599.77 625.795C2599.77 618.072 2601.62 611.167 2605.34 605.084C2609.06 599.002 2614.22 594.247 2620.84 590.819C2627.45 587.392 2634.91 585.677 2643.22 585.677C2651.42 585.677 2658.59 587.392 2664.72 590.819C2670.02 593.782 2674.08 597.844 2676.89 603.007C2677.63 604.368 2677.08 606.077 2675.72 606.811L2662.92 613.684C2661.64 614.375 2660.06 613.954 2659.23 612.755C2655.26 607.062 2649.88 604.216 2643.07 604.216C2637.18 604.216 2632.3 606.148 2628.44 610.008C2624.58 613.872 2622.65 619.133 2622.65 625.795C2622.65 632.458 2624.58 637.722 2628.44 641.582C2632.3 645.445 2637.18 647.376 2643.07 647.376C2649.95 647.376 2655.33 644.545 2659.22 638.881C2660.06 637.664 2661.65 637.233 2662.95 637.941C2666.28 639.759 2672.35 643.07 2675.71 644.905C2677.08 645.649 2677.61 647.37 2676.85 648.725C2674.04 653.718 2670 657.71 2664.72 660.7C2658.59 664.176 2651.42 665.914 2643.22 665.914C2634.91 665.914 2627.45 664.201 2620.84 660.773Z" fill="black"/>
<path d="M2763.39 594.367C2769.33 600.16 2772.29 608.755 2772.29 620.147V661.926C2772.29 663.489 2771.03 664.756 2769.46 664.756H2752.53C2750.97 664.756 2749.7 663.489 2749.7 661.926V623.623C2749.7 617.445 2748.35 612.833 2745.65 609.791C2742.94 606.75 2739.03 605.229 2733.91 605.229C2728.22 605.229 2723.68 606.992 2720.3 610.516C2716.92 614.042 2715.23 619.278 2715.23 626.23V661.926C2715.23 663.489 2713.96 664.756 2712.4 664.756H2695.47C2693.9 664.756 2692.64 663.489 2692.64 661.926V560.119C2692.64 558.556 2693.9 557.289 2695.47 557.289H2712.4C2713.96 557.289 2715.23 558.556 2715.23 560.119V593.598C2715.23 594.107 2715.83 594.358 2716.21 594.016C2719 591.474 2722.29 589.491 2726.09 588.066C2730.34 586.473 2734.97 585.677 2740 585.677C2749.65 585.677 2757.45 588.573 2763.39 594.367Z" fill="black"/>
<path d="M2793.48 586.836H2810.42C2811.98 586.836 2813.25 588.103 2813.25 589.666V661.926C2813.25 663.489 2811.98 664.756 2810.42 664.756H2793.48C2791.92 664.756 2790.65 663.489 2790.65 661.926V589.666C2790.65 588.103 2791.92 586.836 2793.48 586.836Z" fill="black"/>
<path d="M2791.81 572.352C2789.21 569.94 2787.9 566.946 2787.9 563.372C2787.9 559.801 2789.21 556.807 2791.81 554.392C2794.42 551.98 2797.8 550.772 2801.95 550.772C2806.1 550.772 2809.48 551.93 2812.09 554.247C2814.7 556.566 2816 559.461 2816 562.938C2816 566.703 2814.7 569.818 2812.09 572.28C2809.48 574.742 2806.1 575.973 2801.95 575.973C2797.8 575.973 2794.42 574.767 2791.81 572.352Z" fill="black"/>
<path d="M1606.75 594.367C1612.69 600.16 1615.66 608.755 1615.66 620.147V661.926C1615.66 663.489 1614.39 664.756 1612.83 664.756H1595.89C1594.33 664.756 1593.06 663.489 1593.06 661.926V623.623C1593.06 617.445 1591.71 612.833 1589.01 609.791C1586.31 606.75 1582.39 605.229 1577.28 605.229C1571.58 605.229 1567.04 606.992 1563.66 610.516C1560.28 614.042 1558.59 619.278 1558.59 626.23V661.926C1558.59 663.489 1557.33 664.756 1555.76 664.756H1538.83C1537.27 664.756 1536 663.489 1536 661.926V589.666C1536 588.102 1537.27 586.835 1538.83 586.835H1554.75C1556.31 586.835 1557.58 588.102 1557.58 589.666V594.553C1557.58 595.063 1558.19 595.303 1558.55 594.944C1561.37 592.151 1564.76 589.955 1568.73 588.356C1573.17 586.571 1578.05 585.677 1583.36 585.677C1593.01 585.677 1600.81 588.573 1606.75 594.367Z" fill="#DEE3E5"/>
<path d="M1715.61 589.666V661.926C1715.61 663.489 1714.34 664.756 1712.78 664.756H1697C1695.44 664.756 1694.17 663.489 1694.17 661.926V656.929C1694.17 656.414 1693.55 656.175 1693.19 656.544C1690.41 659.411 1687.16 661.64 1683.46 663.235C1679.3 665.021 1674.81 665.915 1669.99 665.915C1659.75 665.915 1651.64 662.97 1645.66 657.08C1639.67 651.192 1636.68 642.452 1636.68 630.865V589.666C1636.68 588.103 1637.94 586.836 1639.51 586.836H1656.44C1658 586.836 1659.27 588.103 1659.27 589.666V627.533C1659.27 640.086 1664.53 646.362 1675.06 646.362C1680.46 646.362 1684.81 644.602 1688.09 641.076C1691.37 637.552 1693.02 632.313 1693.02 625.361V589.666C1693.02 588.103 1694.28 586.836 1695.85 586.836H1712.78C1714.34 586.836 1715.61 588.103 1715.61 589.666Z" fill="#DEE3E5"/>
<path d="M1807.36 594.367C1813.3 600.16 1816.27 608.755 1816.27 620.147V661.926C1816.27 663.489 1815 664.756 1813.44 664.756H1796.51C1794.94 664.756 1793.68 663.489 1793.68 661.926V623.623C1793.68 617.445 1792.32 612.833 1789.62 609.791C1786.91 606.75 1783 605.229 1777.89 605.229C1772.19 605.229 1767.65 606.992 1764.27 610.516C1760.89 614.042 1759.2 619.278 1759.2 626.23V661.926C1759.2 663.489 1757.94 664.756 1756.37 664.756H1739.44C1737.88 664.756 1736.61 663.489 1736.61 661.926V589.666C1736.61 588.102 1737.88 586.835 1739.44 586.835H1755.36C1756.92 586.835 1758.19 588.102 1758.19 589.666V594.553C1758.19 595.063 1758.8 595.303 1759.16 594.944C1761.98 592.151 1765.37 589.955 1769.34 588.356C1773.78 586.571 1778.66 585.677 1783.97 585.677C1793.63 585.677 1801.42 588.573 1807.36 594.367Z" fill="#DEE3E5"/>
<path d="M1852.84 660.773C1846.22 657.347 1841.06 652.59 1837.34 646.507C1833.62 640.423 1831.77 633.521 1831.77 625.795C1831.77 618.072 1833.62 611.167 1837.34 605.084C1841.06 599.002 1846.22 594.247 1852.84 590.819C1859.45 587.392 1866.91 585.677 1875.22 585.677C1883.42 585.677 1890.59 587.392 1896.72 590.819C1902.02 593.782 1906.08 597.844 1908.89 603.007C1909.63 604.368 1909.08 606.077 1907.72 606.811L1894.92 613.684C1893.64 614.375 1892.06 613.954 1891.23 612.755C1887.26 607.062 1881.88 604.216 1875.07 604.216C1869.18 604.216 1864.3 606.148 1860.44 610.008C1856.58 613.872 1854.65 619.133 1854.65 625.795C1854.65 632.458 1856.58 637.722 1860.44 641.582C1864.3 645.445 1869.18 647.376 1875.07 647.376C1881.95 647.376 1887.33 644.545 1891.22 638.881C1892.06 637.664 1893.65 637.233 1894.95 637.941C1898.28 639.759 1904.35 643.07 1907.71 644.905C1909.08 645.649 1909.61 647.37 1908.85 648.725C1906.04 653.718 1902 657.71 1896.72 660.7C1890.59 664.176 1883.42 665.914 1875.22 665.914C1866.91 665.914 1859.45 664.201 1852.84 660.773Z" fill="#DEE3E5"/>
<path d="M1995.39 594.367C2001.33 600.16 2004.29 608.755 2004.29 620.147V661.926C2004.29 663.489 2003.03 664.756 2001.46 664.756H1984.53C1982.97 664.756 1981.7 663.489 1981.7 661.926V623.623C1981.7 617.445 1980.35 612.833 1977.65 609.791C1974.94 606.75 1971.03 605.229 1965.91 605.229C1960.22 605.229 1955.68 606.992 1952.3 610.516C1948.92 614.042 1947.23 619.278 1947.23 626.23V661.926C1947.23 663.489 1945.96 664.756 1944.4 664.756H1927.47C1925.9 664.756 1924.64 663.489 1924.64 661.926V560.119C1924.64 558.556 1925.9 557.289 1927.47 557.289H1944.4C1945.96 557.289 1947.23 558.556 1947.23 560.119V593.598C1947.23 594.107 1947.83 594.358 1948.21 594.016C1951 591.474 1954.29 589.491 1958.09 588.066C1962.34 586.473 1966.97 585.677 1972 585.677C1981.65 585.677 1989.45 588.573 1995.39 594.367Z" fill="#DEE3E5"/>
<path d="M2025.48 586.836H2042.42C2043.98 586.836 2045.25 588.103 2045.25 589.666V661.926C2045.25 663.489 2043.98 664.756 2042.42 664.756H2025.48C2023.92 664.756 2022.65 663.489 2022.65 661.926V589.666C2022.65 588.103 2023.92 586.836 2025.48 586.836Z" fill="#DEE3E5"/>
<path d="M2023.81 572.352C2021.21 569.94 2019.9 566.946 2019.9 563.372C2019.9 559.801 2021.21 556.807 2023.81 554.392C2026.42 551.98 2029.8 550.772 2033.95 550.772C2038.1 550.772 2041.48 551.93 2044.09 554.247C2046.7 556.566 2048 559.461 2048 562.938C2048 566.703 2046.7 569.818 2044.09 572.28C2041.48 574.742 2038.1 575.973 2033.95 575.973C2029.8 575.973 2026.42 574.767 2023.81 572.352Z" fill="#DEE3E5"/>
<path d="M838.752 594.385C844.69 600.178 847.659 608.774 847.659 620.166V661.944C847.659 663.507 846.392 664.774 844.828 664.774H827.895C826.332 664.774 825.065 663.507 825.065 661.944V623.641C825.065 617.463 823.711 612.851 821.009 609.809C818.305 606.768 814.395 605.248 809.278 605.248C803.58 605.248 799.042 607.01 795.664 610.534C792.283 614.06 790.594 619.296 790.594 626.249V661.944C790.594 663.507 789.327 664.774 787.764 664.774H770.83C769.267 664.774 768 663.507 768 661.944V589.684C768 588.121 769.267 586.854 770.83 586.854H786.75C788.314 586.854 789.581 588.121 789.581 589.684V594.571C789.581 595.081 790.193 595.321 790.555 594.962C793.367 592.169 796.76 589.973 800.733 588.375C805.173 586.589 810.05 585.695 815.361 585.695C825.015 585.695 832.813 588.591 838.752 594.385Z" fill="#4583C1"/>
<path d="M947.61 589.684V661.944C947.61 663.507 946.343 664.774 944.78 664.774H929.005C927.442 664.774 926.175 663.507 926.175 661.944V656.947C926.175 656.432 925.553 656.193 925.194 656.563C922.41 659.429 919.163 661.659 915.457 663.254C911.304 665.039 906.815 665.933 901.988 665.933C891.752 665.933 883.641 662.989 877.655 657.098C871.667 651.21 868.676 642.47 868.676 630.884V589.684C868.676 588.121 869.943 586.854 871.506 586.854H888.44C890.003 586.854 891.27 588.121 891.27 589.684V627.552C891.27 640.105 896.531 646.381 907.056 646.381C912.463 646.381 916.808 644.62 920.091 641.094C923.373 637.57 925.016 632.331 925.016 625.38V589.684C925.016 588.121 926.283 586.854 927.846 586.854H944.78C946.343 586.854 947.61 588.121 947.61 589.684Z" fill="#4583C1"/>
<path d="M1039.36 594.385C1045.3 600.178 1048.27 608.774 1048.27 620.166V661.944C1048.27 663.507 1047 664.774 1045.44 664.774H1028.51C1026.94 664.774 1025.68 663.507 1025.68 661.944V623.641C1025.68 617.463 1024.32 612.851 1021.62 609.809C1018.91 606.768 1015 605.248 1009.89 605.248C1004.19 605.248 999.653 607.01 996.274 610.534C992.893 614.06 991.205 619.296 991.205 626.249V661.944C991.205 663.507 989.937 664.774 988.375 664.774H971.441C969.877 664.774 968.61 663.507 968.61 661.944V589.684C968.61 588.121 969.877 586.854 971.441 586.854H987.361C988.924 586.854 990.191 588.121 990.191 589.684V594.571C990.191 595.081 990.803 595.321 991.165 594.962C993.977 592.169 997.371 589.973 1001.34 588.375C1005.78 586.589 1010.66 585.695 1015.97 585.695C1025.63 585.695 1033.42 588.591 1039.36 594.385Z" fill="#4583C1"/>
<path d="M1084.84 660.791C1078.22 657.365 1073.06 652.608 1069.34 646.525C1065.62 640.442 1063.77 633.54 1063.77 625.813C1063.77 618.09 1065.62 611.185 1069.34 605.103C1073.06 599.02 1078.22 594.265 1084.84 590.837C1091.45 587.411 1098.91 585.695 1107.22 585.695C1115.42 585.695 1122.59 587.411 1128.72 590.837C1134.02 593.8 1138.08 597.862 1140.89 603.026C1141.63 604.386 1141.08 606.096 1139.72 606.829L1126.92 613.702C1125.64 614.393 1124.06 613.972 1123.23 612.773C1119.26 607.081 1113.88 604.234 1107.07 604.234C1101.18 604.234 1096.3 606.166 1092.44 610.027C1088.58 613.89 1086.65 619.151 1086.65 625.813C1086.65 632.476 1088.58 637.74 1092.44 641.601C1096.3 645.464 1101.18 647.394 1107.07 647.394C1113.95 647.394 1119.33 644.563 1123.22 638.899C1124.06 637.682 1125.65 637.251 1126.95 637.959C1130.28 639.777 1136.35 643.088 1139.71 644.923C1141.08 645.667 1141.61 647.388 1140.85 648.744C1138.04 653.737 1134 657.728 1128.72 660.719C1122.59 664.194 1115.42 665.933 1107.22 665.933C1098.91 665.933 1091.45 664.219 1084.84 660.791Z" fill="#4583C1"/>
<path d="M1227.39 594.385C1233.33 600.178 1236.29 608.774 1236.29 620.166V661.944C1236.29 663.507 1235.03 664.774 1233.46 664.774H1216.53C1214.97 664.774 1213.7 663.507 1213.7 661.944V623.641C1213.7 617.463 1212.35 612.851 1209.65 609.809C1206.94 606.768 1203.03 605.248 1197.91 605.248C1192.22 605.248 1187.68 607.01 1184.3 610.534C1180.92 614.06 1179.23 619.296 1179.23 626.249V661.944C1179.23 663.507 1177.96 664.774 1176.4 664.774H1159.47C1157.9 664.774 1156.64 663.507 1156.64 661.944V560.138C1156.64 558.574 1157.9 557.307 1159.47 557.307H1176.4C1177.96 557.307 1179.23 558.574 1179.23 560.138V593.617C1179.23 594.125 1179.83 594.376 1180.21 594.034C1183 591.493 1186.29 589.509 1190.09 588.085C1194.34 586.491 1198.97 585.695 1204 585.695C1213.65 585.695 1221.45 588.591 1227.39 594.385Z" fill="#4583C1"/>
<path d="M1257.48 586.854H1274.42C1275.98 586.854 1277.25 588.121 1277.25 589.684V661.944C1277.25 663.507 1275.98 664.774 1274.42 664.774H1257.48C1255.92 664.774 1254.65 663.507 1254.65 661.944V589.684C1254.65 588.121 1255.92 586.854 1257.48 586.854Z" fill="#4583C1"/>
<path d="M1255.81 572.371C1253.21 569.958 1251.9 566.964 1251.9 563.39C1251.9 559.82 1253.21 556.825 1255.81 554.411C1258.42 551.999 1261.8 550.79 1265.95 550.79C1270.1 550.79 1273.48 551.949 1276.09 554.266C1278.7 556.584 1280 559.479 1280 562.956C1280 566.722 1278.7 569.836 1276.09 572.298C1273.48 574.76 1270.1 575.991 1265.95 575.991C1261.8 575.991 1258.42 574.785 1255.81 572.371Z" fill="#4583C1"/>
<path d="M70.7518 594.595C76.69 600.388 79.6587 608.984 79.6587 620.376V662.154C79.6587 663.717 78.3916 664.984 76.8285 664.984H59.8949C58.3318 664.984 57.0647 663.717 57.0647 662.154V623.851C57.0647 617.673 55.7112 613.061 53.0093 610.019C50.3051 606.978 46.3948 605.458 41.2781 605.458C35.5797 605.458 31.0422 607.22 27.6636 610.744C24.2825 614.27 22.5944 619.506 22.5944 626.459V662.154C22.5944 663.717 21.3269 664.984 19.7642 664.984H2.83019C1.26705 664.984 0 663.717 0 662.154V589.894C0 588.331 1.26705 587.064 2.83019 587.064H18.7505C20.3136 587.064 21.5807 588.331 21.5807 589.894V594.781C21.5807 595.291 22.1926 595.531 22.5545 595.172C25.3669 592.379 28.7605 590.183 32.7327 588.585C37.1727 586.799 42.0496 585.905 47.361 585.905C57.0148 585.905 64.8131 588.801 70.7518 594.595Z" fill="#E94C8E"/>
<path d="M179.61 589.894V662.154C179.61 663.717 178.343 664.985 176.78 664.985H161.005C159.442 664.985 158.175 663.717 158.175 662.154V657.157C158.175 656.642 157.553 656.403 157.194 656.773C154.41 659.639 151.163 661.869 147.457 663.464C143.304 665.249 138.815 666.143 133.988 666.143C123.752 666.143 115.641 663.199 109.655 657.308C103.667 651.42 100.676 642.68 100.676 631.094V589.894C100.676 588.331 101.943 587.064 103.506 587.064H120.44C122.003 587.064 123.27 588.331 123.27 589.894V627.762C123.27 640.315 128.531 646.591 139.056 646.591C144.463 646.591 148.808 644.83 152.091 641.304C155.373 637.78 157.016 632.541 157.016 625.59V589.894C157.016 588.331 158.283 587.064 159.846 587.064H176.78C178.343 587.064 179.61 588.331 179.61 589.894Z" fill="#E94C8E"/>
<path d="M271.362 594.595C277.3 600.388 280.269 608.984 280.269 620.376V662.154C280.269 663.717 279.002 664.984 277.439 664.984H260.505C258.942 664.984 257.675 663.717 257.675 662.154V623.851C257.675 617.673 256.323 613.061 253.62 610.019C250.915 606.978 247.005 605.458 241.888 605.458C236.19 605.458 231.653 607.22 228.274 610.744C224.893 614.27 223.205 619.506 223.205 626.459V662.154C223.205 663.717 221.937 664.984 220.375 664.984H203.441C201.877 664.984 200.61 663.717 200.61 662.154V589.894C200.61 588.331 201.877 587.064 203.441 587.064H219.361C220.924 587.064 222.191 588.331 222.191 589.894V594.781C222.191 595.291 222.803 595.531 223.165 595.172C225.977 592.379 229.371 590.183 233.343 588.585C237.783 586.799 242.659 585.905 247.971 585.905C257.626 585.905 265.424 588.801 271.362 594.595Z" fill="#E94C8E"/>
<path d="M316.839 661.001C310.224 657.575 305.057 652.818 301.341 646.736C297.623 640.652 295.766 633.75 295.766 626.023C295.766 618.301 297.623 611.395 301.341 605.313C305.057 599.23 310.224 594.475 316.839 591.047C323.451 587.621 330.91 585.905 339.216 585.905C347.421 585.905 354.591 587.621 360.724 591.047C366.022 594.01 370.077 598.072 372.889 603.236C373.629 604.596 373.081 606.306 371.716 607.039L358.923 613.912C357.636 614.603 356.062 614.182 355.227 612.983C351.265 607.291 345.878 604.444 339.071 604.444C333.18 604.444 328.303 606.377 324.443 610.237C320.58 614.1 318.649 619.361 318.649 626.023C318.649 632.686 320.58 637.95 324.443 641.811C328.303 645.674 333.18 647.604 339.071 647.604C345.947 647.604 351.331 644.773 355.224 639.109C356.061 637.892 357.651 637.462 358.947 638.169C362.281 639.987 368.35 643.298 371.714 645.133C373.079 645.878 373.613 647.598 372.85 648.954C370.04 653.947 365.998 657.938 360.724 660.929C354.591 664.405 347.421 666.143 339.216 666.143C330.91 666.143 323.451 664.43 316.839 661.001Z" fill="#E94C8E"/>
<path d="M459.388 594.595C465.325 600.388 468.295 608.984 468.295 620.376V662.154C468.295 663.717 467.028 664.984 465.464 664.984H448.531C446.968 664.984 445.701 663.717 445.701 662.154V623.851C445.701 617.673 444.348 613.061 441.645 610.019C438.94 606.978 435.03 605.458 429.914 605.458C424.216 605.458 419.678 607.22 416.299 610.744C412.918 614.27 411.23 619.506 411.23 626.459V662.154C411.23 663.717 409.963 664.984 408.4 664.984H391.466C389.903 664.984 388.636 663.717 388.636 662.154V560.348C388.636 558.785 389.903 557.518 391.466 557.518H408.4C409.963 557.518 411.23 558.785 411.23 560.348V593.827C411.23 594.335 411.83 594.586 412.205 594.244C414.998 591.703 418.295 589.719 422.093 588.295C426.341 586.701 430.975 585.905 435.996 585.905C445.651 585.905 453.449 588.801 459.388 594.595Z" fill="#E94C8E"/>
<path d="M489.484 587.064H506.418C507.981 587.064 509.248 588.331 509.248 589.894V662.154C509.248 663.717 507.981 664.985 506.418 664.985H489.484C487.921 664.985 486.654 663.717 486.654 662.154V589.894C486.654 588.331 487.921 587.064 489.484 587.064Z" fill="#E94C8E"/>
<path d="M487.813 572.581C485.206 570.168 483.902 567.175 483.902 563.6C483.902 560.03 485.206 557.035 487.813 554.621C490.42 552.209 493.798 551 497.952 551C502.102 551 505.483 552.159 508.09 554.476C510.697 556.794 512 559.69 512 563.166C512 566.932 510.697 570.046 508.09 572.508C505.483 574.97 502.102 576.201 497.952 576.201C493.798 576.201 490.42 574.996 487.813 572.581Z" fill="#E94C8E"/>
<path d="M2729.21 112.725C2730.16 114.367 2731.04 116.05 2731.84 117.774C2731.04 116.051 2730.16 114.367 2729.21 112.725ZM2689.47 80.8026C2691.37 81.3948 2693.24 82.0405 2695.06 82.7856C2693.24 82.041 2691.37 81.3948 2689.47 80.8026ZM2682.78 79.0652C2684.69 79.459 2686.58 79.929 2688.43 80.4758C2686.58 79.929 2684.69 79.459 2682.78 79.0652ZM2444.51 216.826C2446.53 217.023 2448.59 217.106 2450.66 217.127C2448.59 217.106 2446.53 217.023 2444.51 216.826ZM2385.48 170.501C2386.14 172.378 2386.9 174.205 2387.71 176.005C2386.9 174.205 2386.14 172.378 2385.48 170.501ZM2383.75 164.723C2384.25 166.671 2384.81 168.597 2385.47 170.476C2384.81 168.597 2384.25 166.671 2383.75 164.723ZM2418.53 208.953C2416.86 208.059 2415.22 207.102 2413.64 206.079C2415.22 207.101 2416.86 208.059 2418.53 208.953ZM2437.22 215.707C2435.31 215.313 2433.43 214.844 2431.58 214.298C2433.43 214.843 2435.31 215.313 2437.22 215.707ZM2815.93 151.897C2816.03 148.75 2815.99 145.629 2815.89 142.524C2813.43 65.4011 2751.39 2.48511 2673.19 0.071167C2646.33 -0.75827 2620.94 5.69598 2598.86 17.5947V12.8686C2598.86 5.7623 2593.1 0.000823975 2585.99 0.000823975H2585.9L2585.89 0.000213623H2534.01C2526.9 0.000213623 2521.14 5.76169 2521.14 12.868V17.6476V148.013C2521.14 175.185 2500.28 205.149 2474.41 213.468C2466.32 216.068 2458.35 217.204 2450.66 217.127C2448.58 217.106 2446.51 217.022 2444.47 216.823C2444.45 216.821 2444.43 216.821 2444.4 216.818C2442.33 216.613 2440.3 216.291 2438.29 215.909C2437.94 215.844 2437.6 215.784 2437.26 215.714C2435.3 215.312 2433.37 214.831 2431.48 214.269C2431.21 214.187 2430.94 214.096 2430.66 214.011C2426.64 212.759 2422.76 211.166 2419.09 209.241C2419 209.194 2418.91 209.149 2418.82 209.102C2397.57 197.847 2382.85 175.917 2381.74 150.452C2381.71 149.681 2381.66 148.915 2381.62 148.145V146.54V12.868C2381.62 5.76111 2375.86 0.000213623 2368.76 0.000213623H2318.96C2310.7 0.000213623 2304 6.6976 2304 14.9591L2304.07 142.875C2303.97 146.023 2304.01 149.143 2304.11 152.248C2306.57 229.37 2368.61 292.287 2446.81 294.7C2473.68 295.53 2499.06 289.076 2521.14 277.177V281.903C2521.14 289.01 2526.9 294.771 2534.01 294.771H2534.1C2534.1 294.771 2534.1 294.771 2534.11 294.771H2585.99C2593.1 294.771 2598.86 289.011 2598.86 281.904V277.125V146.76C2598.86 119.586 2619.72 89.6225 2645.59 81.304C2653.68 78.704 2661.65 77.5686 2669.34 77.6448C2671.43 77.6651 2673.5 77.7489 2675.54 77.9496C2675.56 77.9513 2675.58 77.9513 2675.59 77.953C2677.67 78.1584 2679.7 78.4806 2681.72 78.8633C2682.06 78.9279 2682.4 78.9878 2682.74 79.0582C2684.7 79.4607 2686.63 79.9418 2688.52 80.5048C2688.79 80.5857 2689.06 80.6747 2689.33 80.7584C2693.36 82.0108 2697.24 83.6063 2700.92 85.5345C2701 85.5793 2701.09 85.6224 2701.18 85.6684C2722.43 96.922 2737.15 118.853 2738.26 144.321C2738.29 145.091 2738.34 145.856 2738.38 146.626V148.232V281.904C2738.38 289.011 2744.14 294.771 2751.24 294.771H2801.04C2809.3 294.771 2816 288.075 2816 279.813L2815.93 151.897Z" fill="black"/>
<path d="M1961.21 112.725C1962.16 114.367 1963.04 116.05 1963.84 117.774C1963.04 116.051 1962.16 114.367 1961.21 112.725ZM1921.47 80.8026C1923.37 81.3948 1925.24 82.0405 1927.06 82.7856C1925.24 82.041 1923.37 81.3948 1921.47 80.8026ZM1914.78 79.0652C1916.69 79.459 1918.58 79.929 1920.43 80.4758C1918.58 79.929 1916.69 79.459 1914.78 79.0652ZM1676.51 216.826C1678.53 217.023 1680.59 217.106 1682.66 217.127C1680.59 217.106 1678.53 217.023 1676.51 216.826ZM1617.48 170.501C1618.14 172.378 1618.9 174.205 1619.71 176.005C1618.9 174.205 1618.14 172.378 1617.48 170.501ZM1615.75 164.723C1616.25 166.671 1616.81 168.597 1617.47 170.476C1616.81 168.597 1616.25 166.671 1615.75 164.723ZM1650.53 208.953C1648.86 208.059 1647.22 207.102 1645.64 206.079C1647.22 207.101 1648.86 208.059 1650.53 208.953ZM1669.22 215.707C1667.31 215.313 1665.43 214.844 1663.58 214.298C1665.43 214.843 1667.31 215.313 1669.22 215.707ZM2047.93 151.897C2048.03 148.75 2047.99 145.629 2047.89 142.524C2045.43 65.4011 1983.39 2.48511 1905.19 0.071167C1878.33 -0.75827 1852.94 5.69598 1830.86 17.5947V12.8686C1830.86 5.7623 1825.1 0.000823975 1817.99 0.000823975H1817.9L1817.89 0.000213623H1766.01C1758.9 0.000213623 1753.14 5.76169 1753.14 12.868V17.6476V148.013C1753.14 175.185 1732.28 205.149 1706.41 213.468C1698.32 216.068 1690.35 217.204 1682.66 217.127C1680.58 217.106 1678.51 217.022 1676.47 216.823C1676.45 216.821 1676.43 216.821 1676.4 216.818C1674.33 216.613 1672.3 216.291 1670.29 215.909C1669.94 215.844 1669.6 215.784 1669.26 215.714C1667.3 215.312 1665.37 214.831 1663.48 214.269C1663.21 214.187 1662.94 214.096 1662.66 214.011C1658.64 212.759 1654.76 211.166 1651.09 209.241C1651 209.194 1650.91 209.149 1650.82 209.102C1629.57 197.847 1614.85 175.917 1613.74 150.452C1613.71 149.681 1613.66 148.915 1613.62 148.145V146.54V12.868C1613.62 5.76111 1607.86 0.000213623 1600.76 0.000213623H1550.96C1542.7 0.000213623 1536 6.6976 1536 14.9591L1536.07 142.875C1535.97 146.023 1536.01 149.143 1536.11 152.248C1538.57 229.37 1600.61 292.287 1678.81 294.7C1705.68 295.53 1731.06 289.076 1753.14 277.177V281.903C1753.14 289.01 1758.9 294.771 1766.01 294.771H1766.1C1766.1 294.771 1766.1 294.771 1766.11 294.771H1817.99C1825.1 294.771 1830.86 289.011 1830.86 281.904V277.125V146.76C1830.86 119.586 1851.72 89.6225 1877.59 81.304C1885.68 78.704 1893.65 77.5686 1901.34 77.6448C1903.43 77.6651 1905.5 77.7489 1907.54 77.9496C1907.56 77.9513 1907.58 77.9513 1907.59 77.953C1909.67 78.1584 1911.7 78.4806 1913.72 78.8633C1914.06 78.9279 1914.4 78.9878 1914.74 79.0582C1916.7 79.4607 1918.63 79.9418 1920.52 80.5048C1920.79 80.5857 1921.06 80.6747 1921.33 80.7584C1925.36 82.0108 1929.24 83.6063 1932.92 85.5345C1933 85.5793 1933.09 85.6224 1933.18 85.6684C1954.43 96.922 1969.15 118.853 1970.26 144.321C1970.29 145.091 1970.34 145.856 1970.38 146.626V148.232V281.904C1970.38 289.011 1976.14 294.771 1983.24 294.771H2033.04C2041.3 294.771 2048 288.075 2048 279.813L2047.93 151.897Z" fill="#DEE3E5"/>
<path d="M1193.21 112.743C1194.16 114.386 1195.04 116.069 1195.84 117.792C1195.04 116.069 1194.16 114.385 1193.21 112.743ZM1153.47 80.8209C1155.37 81.4131 1157.24 82.0588 1159.06 82.8039C1157.24 82.0594 1155.37 81.4131 1153.47 80.8209ZM1146.78 79.0835C1148.69 79.4773 1150.58 79.9473 1152.43 80.4941C1150.58 79.9473 1148.69 79.4773 1146.78 79.0835ZM908.506 216.844C910.531 217.041 912.587 217.125 914.658 217.146C912.587 217.125 910.531 217.041 908.506 216.844ZM849.476 170.519C850.135 172.396 850.896 174.224 851.708 176.023C850.896 174.224 850.135 172.397 849.476 170.519ZM847.754 164.741C848.253 166.689 848.808 168.616 849.466 170.494C848.807 168.616 848.253 166.689 847.754 164.741ZM882.53 208.972C880.857 208.077 879.224 207.12 877.636 206.097C879.224 207.119 880.857 208.077 882.53 208.972ZM901.22 215.725C899.309 215.332 897.427 214.862 895.575 214.316C897.426 214.862 899.309 215.332 901.22 215.725ZM1279.93 151.915C1280.03 148.768 1279.99 145.648 1279.89 142.543C1277.43 65.4194 1215.39 2.50342 1137.19 0.0894775C1110.33 -0.73996 1084.94 5.71429 1062.86 17.613V12.8869C1062.86 5.78061 1057.1 0.0191345 1049.99 0.0191345H1049.9L1049.89 0.0185242H998.005C990.899 0.0185242 985.138 5.78 985.138 12.8863V17.6659V148.031C985.138 175.204 964.279 205.167 938.41 213.486C930.323 216.087 922.347 217.222 914.66 217.146C912.577 217.125 910.509 217.04 908.474 216.842C908.451 216.839 908.426 216.839 908.402 216.836C906.332 216.632 904.298 216.309 902.285 215.927C901.943 215.862 901.598 215.802 901.258 215.732C899.302 215.33 897.375 214.849 895.483 214.287C895.207 214.205 894.935 214.114 894.661 214.029C890.636 212.777 886.764 211.184 883.09 209.259C883 209.212 882.909 209.167 882.819 209.12C861.571 197.865 846.85 175.935 845.741 150.47C845.707 149.699 845.657 148.934 845.624 148.163V146.558V12.8863C845.624 5.77942 839.863 0.0185242 832.756 0.0185242H782.959C774.697 0.0185242 768 6.71591 768 14.9774L768.072 142.893C767.974 146.041 768.011 149.161 768.11 152.266C770.57 229.389 832.614 292.305 910.807 294.719C937.676 295.548 963.064 289.095 985.138 277.195V281.921C985.138 289.028 990.899 294.789 998.005 294.789H998.1C998.103 294.789 998.104 294.79 998.106 294.79H1049.99C1057.1 294.79 1062.86 289.029 1062.86 281.923V277.143V146.778C1062.86 119.605 1083.72 89.6408 1109.59 81.3223C1117.68 78.7223 1125.65 77.5869 1133.34 77.6631C1135.43 77.6834 1137.5 77.7672 1139.54 77.9679C1139.56 77.9696 1139.58 77.9696 1139.59 77.9713C1141.67 78.1767 1143.7 78.4989 1145.72 78.8817C1146.06 78.9462 1146.4 79.0061 1146.74 79.0765C1148.7 79.479 1150.63 79.9601 1152.52 80.5231C1152.79 80.604 1153.06 80.693 1153.33 80.7767C1157.36 82.0291 1161.24 83.6246 1164.92 85.5529C1165 85.5976 1165.09 85.6407 1165.18 85.6867C1186.43 96.9403 1201.15 118.872 1202.26 144.339C1202.29 145.109 1202.34 145.875 1202.38 146.645V148.25V281.923C1202.38 289.029 1208.14 294.79 1215.24 294.79H1265.04C1273.3 294.79 1280 288.093 1280 279.831L1279.93 151.915Z" fill="#4583C1"/>
<path d="M425.215 112.953C426.158 114.596 427.035 116.279 427.845 118.002C427.036 116.279 426.157 114.595 425.215 112.953ZM385.473 81.031C387.367 81.6232 389.237 82.2689 391.058 83.014C389.237 82.2694 387.367 81.6232 385.473 81.031ZM378.78 79.2936C380.693 79.6874 382.577 80.1574 384.43 80.7041C382.577 80.1574 380.693 79.6874 378.78 79.2936ZM140.506 217.054C142.531 217.251 144.587 217.335 146.658 217.356C144.587 217.335 142.531 217.251 140.506 217.054ZM81.476 170.729C82.135 172.606 82.8964 174.434 83.7079 176.233C82.8959 174.434 82.135 172.607 81.476 170.729ZM79.7543 164.951C80.2533 166.899 80.8077 168.826 81.4661 170.705C80.8071 168.826 80.2533 166.899 79.7543 164.951ZM114.53 209.182C112.857 208.288 111.224 207.33 109.636 206.308C111.224 207.33 112.857 208.288 114.53 209.182ZM133.22 215.935C131.309 215.542 129.427 215.072 127.575 214.526C129.426 215.072 131.309 215.542 133.22 215.935ZM511.929 152.125C512.026 148.978 511.99 145.858 511.89 142.753C509.431 65.6295 447.386 2.7135 369.194 0.299561C342.325 -0.529877 316.937 5.92438 294.862 17.8231V13.097C294.862 5.99069 289.101 0.229218 281.995 0.229218H281.9L281.894 0.228607H230.005C222.899 0.228607 217.138 5.99008 217.138 13.0964V17.876V148.241C217.138 175.414 196.279 205.377 170.41 213.696C162.323 216.297 154.347 217.432 146.66 217.356C144.577 217.335 142.509 217.251 140.474 217.052C140.451 217.049 140.426 217.049 140.402 217.046C138.332 216.842 136.298 216.519 134.285 216.137C133.943 216.072 133.598 216.012 133.258 215.942C131.302 215.54 129.375 215.059 127.483 214.497C127.207 214.415 126.935 214.324 126.661 214.239C122.636 212.987 118.764 211.394 115.09 209.47C115 209.422 114.909 209.377 114.819 209.33C93.5707 198.075 78.8498 176.146 77.7405 150.68C77.7068 149.909 77.6568 149.144 77.6236 148.374V146.768V13.0964C77.6236 5.9895 71.8627 0.228607 64.7559 0.228607H14.9589C6.6974 0.228607 0 6.92599 0 15.1875L0.071573 143.103C-0.0255663 146.251 0.0110668 149.371 0.109951 152.476C2.56984 229.599 64.6139 292.515 142.807 294.929C169.676 295.758 195.064 289.305 217.138 277.405V282.131C217.138 289.238 222.899 294.999 230.005 294.999H230.1C230.103 294.999 230.104 295 230.106 295H281.995C289.101 295 294.862 289.239 294.862 282.133V277.353V146.988C294.862 119.815 315.722 89.8509 341.59 81.5324C349.676 78.9324 357.65 77.797 365.336 77.8732C367.425 77.8935 369.5 77.9773 371.541 78.1779C371.558 78.1797 371.576 78.1797 371.594 78.1814C373.666 78.3867 375.701 78.709 377.716 79.0917C378.058 79.1563 378.402 79.2162 378.742 79.2866C380.7 79.6891 382.629 80.1702 384.522 80.7332C384.794 80.8141 385.061 80.9031 385.332 80.9868C389.361 82.2392 393.239 83.8347 396.917 85.7629C397.003 85.8077 397.091 85.8508 397.177 85.8967C418.428 97.1504 433.15 119.082 434.26 144.549C434.293 145.319 434.343 146.085 434.376 146.855V148.46V282.133C434.376 289.239 440.137 295 447.244 295H497.042C505.303 295 512 288.303 512 280.041L511.929 152.125Z" fill="#E94C8E"/>
</svg>
