<svg width="5856" height="1080" viewBox="0 0 5856 1080" fill="none" xmlns="http://www.w3.org/2000/svg">
<rect width="1080" height="1080" transform="translate(4776)" fill="black"/>
<path d="M5566.97 487.262C5568.37 489.698 5569.67 492.194 5570.87 494.75C5569.67 492.195 5568.37 489.698 5566.97 487.262ZM5508.03 439.917C5510.84 440.795 5513.61 441.753 5516.31 442.858C5513.61 441.753 5510.84 440.795 5508.03 439.917ZM5498.1 437.34C5500.94 437.924 5503.73 438.621 5506.48 439.432C5503.73 438.621 5500.94 437.924 5498.1 437.34ZM5144.71 641.66C5147.71 641.952 5150.76 642.076 5153.83 642.107C5150.76 642.076 5147.71 641.952 5144.71 641.66ZM5057.15 572.953C5058.13 575.736 5059.26 578.447 5060.46 581.116C5059.26 578.447 5058.13 575.737 5057.15 572.953ZM5054.6 564.383C5055.34 567.272 5056.16 570.13 5057.14 572.916C5056.16 570.13 5055.34 567.272 5054.6 564.383ZM5106.18 629.984C5103.7 628.658 5101.28 627.238 5098.92 625.721C5101.28 627.237 5103.7 628.658 5106.18 629.984ZM5133.9 640.001C5131.06 639.417 5128.27 638.72 5125.53 637.91C5128.27 638.719 5131.06 639.417 5133.9 640.001ZM5695.58 545.36C5695.73 540.692 5695.67 536.065 5695.52 531.46C5691.88 417.074 5599.86 323.76 5483.88 320.179C5444.03 318.949 5406.38 328.522 5373.64 346.169V339.16C5373.64 328.62 5365.09 320.075 5354.55 320.075H5354.41L5354.4 320.074H5277.45C5266.91 320.074 5258.36 328.619 5258.36 339.159V346.248V539.599C5258.36 579.901 5227.42 624.342 5189.06 636.679C5177.06 640.536 5165.23 642.22 5153.83 642.107C5150.74 642.076 5147.68 641.951 5144.66 641.656C5144.62 641.653 5144.59 641.653 5144.55 641.648C5141.48 641.345 5138.46 640.867 5135.48 640.3C5134.97 640.203 5134.46 640.114 5133.95 640.011C5131.05 639.415 5128.2 638.701 5125.39 637.867C5124.98 637.745 5124.58 637.611 5124.17 637.485C5118.2 635.628 5112.46 633.265 5107.01 630.411C5106.87 630.341 5106.74 630.274 5106.61 630.204C5075.09 613.511 5053.26 580.986 5051.61 543.217C5051.56 542.074 5051.49 540.938 5051.44 539.796V537.415V339.159C5051.44 328.618 5042.9 320.074 5032.36 320.074H4958.5C4946.25 320.074 4936.31 330.007 4936.31 342.26L4936.42 531.979C4936.27 536.648 4936.33 541.276 4936.48 545.881C4940.12 660.266 5032.14 753.581 5148.12 757.16C5187.97 758.39 5225.62 748.818 5258.36 731.17V738.18C5258.36 748.72 5266.91 757.264 5277.45 757.264H5277.59C5277.59 757.264 5277.59 757.265 5277.6 757.265H5354.55C5365.09 757.265 5373.64 748.721 5373.64 738.181V731.092V537.741C5373.64 497.439 5404.58 452.998 5442.94 440.66C5454.94 436.804 5466.76 435.12 5478.16 435.233C5481.26 435.263 5484.34 435.387 5487.36 435.685C5487.39 435.688 5487.42 435.688 5487.44 435.69C5490.52 435.995 5493.54 436.473 5496.52 437.04C5497.03 437.136 5497.54 437.225 5498.05 437.329C5500.95 437.926 5503.81 438.64 5506.62 439.475C5507.02 439.595 5507.42 439.727 5507.82 439.851C5513.8 441.708 5519.55 444.075 5525 446.935C5525.13 447.001 5525.26 447.065 5525.39 447.133C5556.91 463.824 5578.74 496.352 5580.39 534.124C5580.44 535.266 5580.51 536.401 5580.56 537.543V539.925V738.181C5580.56 748.721 5589.1 757.265 5599.64 757.265H5673.5C5685.76 757.265 5695.69 747.333 5695.69 735.08L5695.58 545.36Z" fill="#E94C8E"/>
<rect width="1080" height="1080" transform="translate(3184)" fill="#DEE3E5"/>
<path d="M3974.66 487.997C3976.06 490.433 3977.36 492.929 3978.56 495.485C3977.36 492.929 3976.06 490.432 3974.66 487.997ZM3915.72 440.651C3918.52 441.529 3921.3 442.487 3924 443.592C3921.3 442.488 3918.52 441.529 3915.72 440.651ZM3905.79 438.074C3908.63 438.658 3911.42 439.355 3914.17 440.166C3911.42 439.355 3908.63 438.658 3905.79 438.074ZM3552.39 642.394C3555.39 642.686 3558.44 642.811 3561.52 642.842C3558.45 642.811 3555.39 642.686 3552.39 642.394ZM3464.84 573.687C3465.82 576.471 3466.95 579.181 3468.15 581.851C3466.95 579.181 3465.82 576.472 3464.84 573.687ZM3462.29 565.118C3463.03 568.007 3463.85 570.864 3464.83 573.651C3463.85 570.864 3463.03 568.007 3462.29 565.118ZM3513.87 630.718C3511.38 629.392 3508.96 627.972 3506.61 626.455C3508.96 627.971 3511.38 629.392 3513.87 630.718ZM3541.59 640.735C3538.75 640.151 3535.96 639.455 3533.21 638.645C3535.96 639.454 3538.75 640.151 3541.59 640.735ZM4103.27 546.095C4103.41 541.427 4103.36 536.799 4103.21 532.194C4099.56 417.808 4007.54 324.494 3891.57 320.914C3851.72 319.684 3814.07 329.256 3781.33 346.904V339.894C3781.33 329.355 3772.78 320.809 3762.24 320.809H3762.1L3762.09 320.809H3685.13C3674.59 320.809 3666.05 329.354 3666.05 339.893V346.982V540.334C3666.05 580.635 3635.11 625.076 3596.74 637.414C3584.75 641.271 3572.92 642.955 3561.52 642.842C3558.43 642.811 3555.36 642.686 3552.35 642.391C3552.31 642.387 3552.27 642.387 3552.24 642.383C3549.17 642.079 3546.15 641.601 3543.17 641.034C3542.66 640.938 3542.15 640.849 3541.64 640.745C3538.74 640.149 3535.88 639.436 3533.08 638.601C3532.67 638.48 3532.26 638.345 3531.86 638.219C3525.89 636.363 3520.14 634 3514.7 631.145C3514.56 631.075 3514.43 631.008 3514.29 630.938C3482.78 614.245 3460.95 581.72 3459.3 543.951C3459.25 542.808 3459.18 541.673 3459.13 540.53V538.149V339.893C3459.13 329.353 3450.58 320.809 3440.04 320.809H3366.19C3353.93 320.809 3344 330.742 3344 342.995L3344.11 532.713C3343.96 537.382 3344.02 542.01 3344.16 546.615C3347.81 661 3439.83 754.315 3555.8 757.894C3595.66 759.125 3633.31 749.553 3666.05 731.904V738.914C3666.05 749.455 3674.59 757.999 3685.13 757.999H3685.27C3685.28 757.999 3685.28 758 3685.28 758H3762.24C3772.78 758 3781.33 749.455 3781.33 738.916V731.827V538.475C3781.33 498.173 3812.26 453.732 3850.63 441.395C3862.62 437.538 3874.45 435.854 3885.85 435.967C3888.95 435.998 3892.02 436.122 3895.05 436.419C3895.08 436.422 3895.1 436.422 3895.13 436.425C3898.2 436.729 3901.22 437.207 3904.21 437.775C3904.72 437.87 3905.23 437.959 3905.73 438.064C3908.64 438.661 3911.5 439.374 3914.31 440.209C3914.71 440.329 3915.1 440.461 3915.51 440.585C3921.48 442.443 3927.23 444.809 3932.69 447.669C3932.82 447.736 3932.95 447.799 3933.08 447.868C3964.59 464.558 3986.43 497.086 3988.07 534.858C3988.12 536 3988.2 537.136 3988.25 538.278V540.659V738.916C3988.25 749.455 3996.79 758 4007.33 758H4081.19C4093.44 758 4103.38 748.067 4103.38 735.814L4103.27 546.095Z" fill="#E94C8E"/>
<rect width="1080" height="1080" transform="translate(1592)" fill="#4583C1"/>
<path d="M2382.97 487.262C2384.37 489.698 2385.67 492.194 2386.87 494.75C2385.67 492.195 2384.37 489.698 2382.97 487.262ZM2324.03 439.917C2326.84 440.795 2329.61 441.753 2332.31 442.858C2329.61 441.753 2326.84 440.795 2324.03 439.917ZM2314.1 437.34C2316.94 437.924 2319.73 438.621 2322.48 439.432C2319.73 438.621 2316.94 437.924 2314.1 437.34ZM1960.71 641.66C1963.71 641.952 1966.76 642.076 1969.83 642.107C1966.76 642.076 1963.71 641.952 1960.71 641.66ZM1873.15 572.953C1874.13 575.736 1875.26 578.447 1876.46 581.116C1875.26 578.447 1874.13 575.737 1873.15 572.953ZM1870.6 564.383C1871.34 567.272 1872.16 570.13 1873.14 572.916C1872.16 570.13 1871.34 567.272 1870.6 564.383ZM1922.18 629.984C1919.7 628.658 1917.28 627.238 1914.92 625.721C1917.28 627.237 1919.7 628.658 1922.18 629.984ZM1949.9 640.001C1947.06 639.417 1944.27 638.72 1941.53 637.91C1944.27 638.719 1947.06 639.417 1949.9 640.001ZM2511.58 545.36C2511.73 540.692 2511.67 536.065 2511.52 531.46C2507.88 417.074 2415.86 323.76 2299.88 320.179C2260.03 318.949 2222.38 328.522 2189.64 346.169V339.16C2189.64 328.62 2181.09 320.075 2170.55 320.075H2170.41L2170.4 320.074H2093.45C2082.91 320.074 2074.36 328.619 2074.36 339.159V346.248V539.599C2074.36 579.901 2043.42 624.342 2005.06 636.679C1993.06 640.536 1981.23 642.22 1969.83 642.107C1966.74 642.076 1963.68 641.951 1960.66 641.656C1960.62 641.653 1960.59 641.653 1960.55 641.648C1957.48 641.345 1954.46 640.867 1951.48 640.3C1950.97 640.203 1950.46 640.114 1949.95 640.011C1947.05 639.415 1944.2 638.701 1941.39 637.867C1940.98 637.745 1940.58 637.611 1940.17 637.485C1934.2 635.628 1928.46 633.265 1923.01 630.411C1922.87 630.341 1922.74 630.274 1922.61 630.204C1891.09 613.511 1869.26 580.986 1867.61 543.217C1867.56 542.074 1867.49 540.938 1867.44 539.796V537.415V339.159C1867.44 328.618 1858.9 320.074 1848.36 320.074H1774.5C1762.25 320.074 1752.31 330.007 1752.31 342.26L1752.42 531.979C1752.27 536.648 1752.33 541.276 1752.48 545.881C1756.12 660.266 1848.14 753.581 1964.12 757.16C2003.97 758.39 2041.62 748.818 2074.36 731.17V738.18C2074.36 748.72 2082.91 757.264 2093.45 757.264H2093.59C2093.59 757.264 2093.59 757.265 2093.6 757.265H2170.55C2181.09 757.265 2189.64 748.721 2189.64 738.181V731.092V537.741C2189.64 497.439 2220.58 452.998 2258.94 440.66C2270.94 436.804 2282.76 435.12 2294.16 435.233C2297.26 435.263 2300.34 435.387 2303.36 435.685C2303.39 435.688 2303.42 435.688 2303.44 435.69C2306.52 435.995 2309.54 436.473 2312.52 437.04C2313.03 437.136 2313.54 437.225 2314.05 437.329C2316.95 437.926 2319.81 438.64 2322.62 439.475C2323.02 439.595 2323.42 439.727 2323.82 439.851C2329.8 441.708 2335.55 444.075 2341 446.935C2341.13 447.001 2341.26 447.065 2341.39 447.133C2372.91 463.824 2394.74 496.352 2396.39 534.124C2396.44 535.266 2396.51 536.401 2396.56 537.543V539.925V738.181C2396.56 748.721 2405.1 757.265 2415.64 757.265H2489.5C2501.76 757.265 2511.69 747.333 2511.69 735.08L2511.58 545.36Z" fill="#DEE3E5"/>
<rect width="1080" height="1080" fill="#E94C8E"/>
<path d="M790.971 487.262C792.371 489.698 793.672 492.194 794.872 494.75C793.672 492.195 792.37 489.698 790.971 487.262ZM732.028 439.917C734.837 440.795 737.611 441.753 740.312 442.858C737.611 441.753 734.837 440.795 732.028 439.917ZM722.101 437.34C724.938 437.924 727.733 438.621 730.481 439.432C727.734 438.621 724.938 437.924 722.101 437.34ZM368.705 641.66C371.707 641.952 374.757 642.076 377.829 642.107C374.758 642.076 371.707 641.952 368.705 641.66ZM281.154 572.953C282.131 575.736 283.261 578.447 284.464 581.116C283.26 578.447 282.131 575.737 281.154 572.953ZM278.6 564.383C279.341 567.272 280.163 570.13 281.139 572.916C280.162 570.13 279.341 567.272 278.6 564.383ZM330.178 629.984C327.696 628.658 325.276 627.238 322.919 625.721C325.276 627.237 327.697 628.658 330.178 629.984ZM357.899 640.001C355.064 639.417 352.272 638.72 349.526 637.91C352.271 638.719 355.064 639.417 357.899 640.001ZM919.582 545.36C919.726 540.692 919.672 536.065 919.524 531.46C915.877 417.074 823.855 323.76 707.884 320.179C668.033 318.949 630.379 328.522 597.639 346.169V339.16C597.639 328.62 589.095 320.075 578.554 320.075H578.413L578.405 320.074H501.446C490.905 320.074 482.361 328.619 482.361 339.159V346.248V539.599C482.361 579.901 451.424 624.342 413.057 636.679C401.062 640.536 389.233 642.22 377.832 642.107C374.742 642.076 371.676 641.951 368.658 641.656C368.622 641.653 368.586 641.653 368.551 641.648C365.48 641.345 362.464 640.867 359.479 640.3C358.97 640.203 358.459 640.114 357.954 640.011C355.054 639.415 352.196 638.701 349.39 637.867C348.98 637.745 348.577 637.611 348.17 637.485C342.201 635.628 336.457 633.265 331.008 630.411C330.875 630.341 330.74 630.274 330.607 630.204C299.092 613.511 277.259 580.986 275.614 543.217C275.564 542.074 275.489 540.938 275.44 539.796V537.415V339.159C275.44 328.618 266.896 320.074 256.355 320.074H182.499C170.246 320.074 160.312 330.007 160.312 342.26L160.419 531.979C160.275 536.648 160.329 541.276 160.476 545.881C164.124 660.266 256.145 753.581 372.117 757.16C411.968 758.39 449.622 748.818 482.361 731.17V738.18C482.361 748.72 490.905 757.264 501.446 757.264H501.587C501.59 757.264 501.593 757.265 501.595 757.265H578.554C589.095 757.265 597.639 748.721 597.639 738.181V731.092V537.741C597.639 497.439 628.576 452.998 666.944 440.66C678.936 436.804 690.763 435.12 702.162 435.233C705.261 435.263 708.337 435.387 711.365 435.685C711.391 435.688 711.417 435.688 711.443 435.69C714.516 435.995 717.536 436.473 720.523 437.04C721.03 437.136 721.541 437.225 722.046 437.329C724.95 437.926 727.81 438.64 730.619 439.475C731.021 439.595 731.417 439.727 731.819 439.851C737.795 441.708 743.546 444.075 749.002 446.935C749.13 447.001 749.26 447.065 749.388 447.133C780.906 463.824 802.741 496.352 804.387 534.124C804.436 535.266 804.511 536.401 804.56 537.543V539.925V738.181C804.56 748.721 813.104 757.265 823.645 757.265H897.502C909.755 757.265 919.688 747.333 919.688 735.08L919.582 545.36Z" fill="#DEE3E5"/>
</svg>
