<svg width="1080" height="1080" viewBox="0 0 1080 1080" fill="none" xmlns="http://www.w3.org/2000/svg">
<rect width="1080" height="1080" fill="#DEE3E5"/>
<path d="M790.659 487.997C792.058 490.433 793.359 492.929 794.56 495.485C793.36 492.929 792.057 490.432 790.659 487.997ZM731.716 440.651C734.525 441.529 737.298 442.487 740 443.592C737.298 442.488 734.525 441.529 731.716 440.651ZM721.789 438.074C724.626 438.658 727.42 439.355 730.169 440.166C727.421 439.355 724.626 438.658 721.789 438.074ZM368.393 642.394C371.395 642.686 374.445 642.811 377.517 642.842C374.446 642.811 371.395 642.686 368.393 642.394ZM280.841 573.687C281.819 576.471 282.948 579.181 284.152 581.851C282.947 579.181 281.819 576.472 280.841 573.687ZM278.288 565.118C279.028 568.007 279.85 570.864 280.827 573.651C279.849 570.864 279.028 568.007 278.288 565.118ZM329.866 630.718C327.384 629.392 324.963 627.972 322.607 626.455C324.963 627.971 327.385 629.392 329.866 630.718ZM357.586 640.735C354.752 640.151 351.96 639.455 349.214 638.645C351.959 639.454 354.752 640.151 357.586 640.735ZM919.27 546.095C919.413 541.427 919.359 536.799 919.212 532.194C915.564 417.808 823.543 324.494 707.571 320.914C667.721 319.684 630.066 329.256 597.326 346.904V339.894C597.326 329.355 588.782 320.809 578.241 320.809H578.101L578.092 320.809H501.134C490.593 320.809 482.049 329.354 482.049 339.893V346.982V540.334C482.049 580.635 451.112 625.076 412.745 637.414C400.75 641.271 388.921 642.955 377.519 642.842C374.43 642.811 371.363 642.686 368.345 642.391C368.31 642.387 368.274 642.387 368.238 642.383C365.168 642.079 362.151 641.601 359.166 641.034C358.658 640.938 358.146 640.849 357.642 640.745C354.741 640.149 351.883 639.436 349.077 638.601C348.668 638.48 348.265 638.345 347.858 638.219C341.889 636.363 336.145 634 330.696 631.145C330.562 631.075 330.427 631.008 330.295 630.938C298.78 614.245 276.946 581.72 275.301 543.951C275.251 542.808 275.177 541.673 275.128 540.53V538.149V339.893C275.128 329.353 266.584 320.809 256.043 320.809H182.186C169.933 320.809 160 330.742 160 342.995L160.106 532.713C159.962 537.382 160.016 542.01 160.163 546.615C163.811 661 255.832 754.315 371.805 757.894C411.655 759.125 449.31 749.553 482.049 731.904V738.914C482.049 749.455 490.593 757.999 501.134 757.999H501.274C501.278 757.999 501.28 758 501.283 758H578.241C588.782 758 597.326 749.455 597.326 738.916V731.827V538.475C597.326 498.173 628.264 453.732 666.631 441.395C678.624 437.538 690.451 435.854 701.85 435.967C704.948 435.998 708.025 436.122 711.052 436.419C711.078 436.422 711.105 436.422 711.131 436.425C714.204 436.729 717.223 437.207 720.211 437.775C720.718 437.87 721.229 437.959 721.733 438.064C724.637 438.661 727.498 439.374 730.306 440.209C730.709 440.329 731.105 440.461 731.506 440.585C737.483 442.443 743.234 444.809 748.69 447.669C748.817 447.736 748.948 447.799 749.075 447.868C780.593 464.558 802.429 497.086 804.075 534.858C804.124 536 804.198 537.136 804.247 538.278V540.659V738.916C804.247 749.455 812.792 758 823.332 758H897.19C909.443 758 919.375 748.067 919.375 735.814L919.27 546.095Z" fill="#E94C8E"/>
</svg>
