<svg width="1080" height="1080" viewBox="0 0 1080 1080" fill="none" xmlns="http://www.w3.org/2000/svg">
<rect width="1080" height="1080" fill="black"/>
<path d="M790.971 487.262C792.371 489.698 793.672 492.194 794.872 494.75C793.672 492.195 792.37 489.698 790.971 487.262ZM732.028 439.917C734.837 440.795 737.611 441.753 740.312 442.858C737.611 441.753 734.837 440.795 732.028 439.917ZM722.101 437.34C724.938 437.924 727.733 438.621 730.481 439.432C727.734 438.621 724.938 437.924 722.101 437.34ZM368.705 641.66C371.707 641.952 374.757 642.076 377.829 642.107C374.758 642.076 371.707 641.952 368.705 641.66ZM281.154 572.953C282.131 575.736 283.261 578.447 284.464 581.116C283.26 578.447 282.131 575.737 281.154 572.953ZM278.6 564.383C279.341 567.272 280.163 570.13 281.139 572.916C280.162 570.13 279.341 567.272 278.6 564.383ZM330.178 629.984C327.696 628.658 325.276 627.238 322.919 625.721C325.276 627.237 327.697 628.658 330.178 629.984ZM357.899 640.001C355.064 639.417 352.272 638.72 349.526 637.91C352.271 638.719 355.064 639.417 357.899 640.001ZM919.582 545.36C919.726 540.692 919.672 536.065 919.524 531.46C915.877 417.074 823.855 323.76 707.884 320.179C668.033 318.949 630.379 328.522 597.639 346.169V339.16C597.639 328.62 589.095 320.075 578.554 320.075H578.413L578.405 320.074H501.446C490.905 320.074 482.361 328.619 482.361 339.159V346.248V539.599C482.361 579.901 451.424 624.342 413.057 636.679C401.062 640.536 389.233 642.22 377.832 642.107C374.742 642.076 371.676 641.951 368.658 641.656C368.622 641.653 368.586 641.653 368.551 641.648C365.48 641.345 362.464 640.867 359.479 640.3C358.97 640.203 358.459 640.114 357.954 640.011C355.054 639.415 352.196 638.701 349.39 637.867C348.98 637.745 348.577 637.611 348.17 637.485C342.201 635.628 336.457 633.265 331.008 630.411C330.875 630.341 330.74 630.274 330.607 630.204C299.092 613.511 277.259 580.986 275.614 543.217C275.564 542.074 275.489 540.938 275.44 539.796V537.415V339.159C275.44 328.618 266.896 320.074 256.355 320.074H182.499C170.246 320.074 160.312 330.007 160.312 342.26L160.419 531.979C160.275 536.648 160.329 541.276 160.476 545.881C164.124 660.266 256.145 753.581 372.117 757.16C411.968 758.39 449.622 748.818 482.361 731.17V738.18C482.361 748.72 490.905 757.264 501.446 757.264H501.587C501.59 757.264 501.593 757.265 501.595 757.265H578.554C589.095 757.265 597.639 748.721 597.639 738.181V731.092V537.741C597.639 497.439 628.576 452.998 666.944 440.66C678.936 436.804 690.763 435.12 702.162 435.233C705.261 435.263 708.337 435.387 711.365 435.685C711.391 435.688 711.417 435.688 711.443 435.69C714.516 435.995 717.536 436.473 720.523 437.04C721.03 437.136 721.541 437.225 722.046 437.329C724.95 437.926 727.81 438.64 730.619 439.475C731.021 439.595 731.417 439.727 731.819 439.851C737.795 441.708 743.546 444.075 749.002 446.935C749.13 447.001 749.26 447.065 749.388 447.133C780.906 463.824 802.741 496.352 804.387 534.124C804.436 535.266 804.511 536.401 804.56 537.543V539.925V738.181C804.56 748.721 813.104 757.265 823.645 757.265H897.502C909.755 757.265 919.688 747.333 919.688 735.08L919.582 545.36Z" fill="#E94C8E"/>
</svg>
