<svg width="512" height="512" viewBox="0 0 512 512" fill="none" xmlns="http://www.w3.org/2000/svg">
<rect width="512" height="512" rx="128" fill="#E94C8E"/>
<path d="M374.979 230.998C375.642 232.153 376.259 233.337 376.828 234.548C376.26 233.337 375.642 232.153 374.979 230.998ZM347.036 208.553C348.367 208.969 349.682 209.423 350.963 209.947C349.682 209.424 348.367 208.969 347.036 208.553ZM342.329 207.331C343.675 207.608 344.999 207.939 346.302 208.323C345 207.939 343.675 207.608 342.329 207.331ZM174.794 304.194C176.217 304.333 177.663 304.392 179.119 304.406C177.663 304.392 176.217 304.333 174.794 304.194ZM133.288 271.622C133.751 272.942 134.287 274.227 134.857 275.492C134.286 274.227 133.751 272.942 133.288 271.622ZM132.077 267.559C132.428 268.929 132.818 270.284 133.281 271.605C132.817 270.284 132.428 268.929 132.077 267.559ZM156.529 298.659C155.352 298.03 154.205 297.357 153.088 296.638C154.205 297.357 155.353 298.03 156.529 298.659ZM169.671 303.408C168.327 303.131 167.003 302.801 165.701 302.417C167.003 302.8 168.327 303.131 169.671 303.408ZM435.95 258.541C436.018 256.328 435.993 254.134 435.923 251.951C434.194 197.724 390.568 153.486 335.589 151.789C316.697 151.206 298.846 155.744 283.325 164.11V160.787C283.325 155.79 279.274 151.739 274.277 151.739H274.211L274.207 151.739H237.723C232.726 151.739 228.675 155.79 228.675 160.787V164.147V255.81C228.675 274.916 214.009 295.984 195.82 301.833C190.133 303.662 184.525 304.46 179.12 304.406C177.656 304.392 176.202 304.332 174.771 304.193C174.754 304.191 174.737 304.191 174.72 304.189C173.265 304.045 171.835 303.818 170.419 303.55C170.179 303.504 169.936 303.462 169.697 303.413C168.322 303.13 166.967 302.792 165.637 302.396C165.442 302.339 165.251 302.275 165.058 302.215C162.229 301.335 159.506 300.215 156.922 298.861C156.859 298.828 156.795 298.796 156.732 298.763C141.792 290.85 131.441 275.43 130.661 257.525C130.638 256.983 130.602 256.445 130.579 255.903V254.774V160.787C130.579 155.789 126.528 151.739 121.531 151.739H86.518C80.7091 151.739 76 156.448 76 162.257L76.0503 252.197C75.982 254.411 76.0078 256.605 76.0773 258.788C77.8069 313.015 121.432 357.253 176.411 358.95C195.303 359.533 213.154 354.995 228.675 346.629V349.952C228.675 354.949 232.726 358.999 237.723 358.999H237.789C237.791 358.999 237.792 359 237.793 359H274.277C279.274 359 283.325 354.949 283.325 349.953V346.592V254.929C283.325 235.823 297.992 214.755 316.181 208.906C321.866 207.077 327.473 206.279 332.877 206.333C334.346 206.347 335.804 206.406 337.24 206.547C337.252 206.548 337.265 206.548 337.277 206.549C338.734 206.694 340.165 206.92 341.581 207.189C341.822 207.235 342.064 207.277 342.303 207.327C343.68 207.61 345.036 207.948 346.367 208.344C346.558 208.401 346.746 208.463 346.936 208.522C349.77 209.403 352.496 210.524 355.082 211.88C355.143 211.912 355.205 211.942 355.265 211.974C370.207 219.887 380.559 235.307 381.339 253.214C381.362 253.756 381.398 254.294 381.421 254.835V255.964V349.953C381.421 354.949 385.472 359 390.469 359H425.482C431.291 359 436 354.291 436 348.482L435.95 258.541Z" fill="#DEE3E5"/>
</svg>
