<svg width="512" height="295" viewBox="0 0 512 295" fill="none" xmlns="http://www.w3.org/2000/svg">
<path d="M425.215 112.743C426.158 114.386 427.035 116.069 427.845 117.792C427.036 116.069 426.157 114.385 425.215 112.743ZM385.473 80.8209C387.367 81.4131 389.237 82.0588 391.058 82.8039C389.237 82.0594 387.367 81.4131 385.473 80.8209ZM378.78 79.0835C380.693 79.4773 382.577 79.9473 384.43 80.4941C382.577 79.9473 380.693 79.4773 378.78 79.0835ZM140.506 216.844C142.531 217.041 144.587 217.125 146.658 217.146C144.587 217.125 142.531 217.041 140.506 216.844ZM81.476 170.519C82.135 172.396 82.8964 174.224 83.7079 176.023C82.8959 174.224 82.135 172.397 81.476 170.519ZM79.7543 164.741C80.2533 166.689 80.8077 168.616 81.4661 170.494C80.8071 168.616 80.2533 166.689 79.7543 164.741ZM114.53 208.972C112.857 208.077 111.224 207.12 109.636 206.097C111.224 207.119 112.857 208.077 114.53 208.972ZM133.22 215.725C131.309 215.332 129.427 214.862 127.575 214.316C129.426 214.862 131.309 215.332 133.22 215.725ZM511.929 151.915C512.026 148.768 511.99 145.648 511.89 142.543C509.431 65.4194 447.386 2.50342 369.194 0.0894775C342.325 -0.73996 316.937 5.71429 294.862 17.613V12.8869C294.862 5.78061 289.101 0.0191345 281.995 0.0191345H281.9L281.894 0.0185242H230.005C222.899 0.0185242 217.138 5.78 217.138 12.8863V17.6659V148.031C217.138 175.204 196.279 205.167 170.41 213.486C162.323 216.087 154.347 217.222 146.66 217.146C144.577 217.125 142.509 217.04 140.474 216.842C140.451 216.839 140.426 216.839 140.402 216.836C138.332 216.632 136.298 216.309 134.285 215.927C133.943 215.862 133.598 215.802 133.258 215.732C131.302 215.33 129.375 214.849 127.483 214.287C127.207 214.205 126.935 214.114 126.661 214.029C122.636 212.777 118.764 211.184 115.09 209.259C115 209.212 114.909 209.167 114.819 209.12C93.5707 197.865 78.8498 175.935 77.7405 150.47C77.7068 149.699 77.6568 148.934 77.6236 148.163V146.558V12.8863C77.6236 5.77942 71.8627 0.0185242 64.7559 0.0185242H14.9589C6.6974 0.0185242 0 6.71591 0 14.9774L0.071573 142.893C-0.0255663 146.041 0.0110668 149.161 0.109951 152.266C2.56984 229.389 64.6139 292.305 142.807 294.719C169.676 295.548 195.064 289.095 217.138 277.195V281.921C217.138 289.028 222.899 294.789 230.005 294.789H230.1C230.103 294.789 230.104 294.79 230.106 294.79H281.995C289.101 294.79 294.862 289.029 294.862 281.923V277.143V146.778C294.862 119.605 315.722 89.6408 341.59 81.3223C349.676 78.7223 357.65 77.5869 365.336 77.6631C367.425 77.6834 369.5 77.7672 371.541 77.9679C371.558 77.9696 371.576 77.9696 371.594 77.9713C373.666 78.1767 375.701 78.4989 377.716 78.8817C378.058 78.9462 378.402 79.0061 378.742 79.0765C380.7 79.479 382.629 79.9601 384.522 80.5231C384.794 80.604 385.061 80.693 385.332 80.7767C389.361 82.0291 393.239 83.6246 396.917 85.5529C397.003 85.5976 397.091 85.6407 397.177 85.6867C418.428 96.9403 433.15 118.872 434.26 144.339C434.293 145.109 434.343 145.875 434.376 146.645V148.25V281.923C434.376 289.029 440.137 294.79 447.244 294.79H497.042C505.303 294.79 512 288.093 512 279.831L511.929 151.915Z" fill="#4583C1"/>
</svg>
