<svg width="512" height="295" viewBox="0 0 512 295" fill="none" xmlns="http://www.w3.org/2000/svg">
<path d="M425.215 112.725C426.158 114.367 427.035 116.05 427.845 117.774C427.036 116.051 426.157 114.367 425.215 112.725ZM385.473 80.8026C387.367 81.3948 389.237 82.0405 391.058 82.7856C389.237 82.041 387.367 81.3948 385.473 80.8026ZM378.78 79.0652C380.693 79.459 382.577 79.929 384.43 80.4758C382.577 79.929 380.693 79.459 378.78 79.0652ZM140.506 216.826C142.531 217.023 144.587 217.106 146.658 217.127C144.587 217.106 142.531 217.023 140.506 216.826ZM81.476 170.501C82.135 172.378 82.8964 174.205 83.7079 176.005C82.8959 174.205 82.135 172.378 81.476 170.501ZM79.7543 164.723C80.2533 166.671 80.8077 168.597 81.4661 170.476C80.8071 168.597 80.2533 166.671 79.7543 164.723ZM114.53 208.953C112.857 208.059 111.224 207.102 109.636 206.079C111.224 207.101 112.857 208.059 114.53 208.953ZM133.22 215.707C131.309 215.313 129.427 214.844 127.575 214.298C129.426 214.843 131.309 215.313 133.22 215.707ZM511.929 151.897C512.026 148.75 511.99 145.629 511.89 142.524C509.431 65.4011 447.386 2.48511 369.194 0.071167C342.325 -0.75827 316.937 5.69598 294.862 17.5947V12.8686C294.862 5.7623 289.101 0.000823975 281.995 0.000823975H281.9L281.894 0.000213623H230.005C222.899 0.000213623 217.138 5.76169 217.138 12.868V17.6476V148.013C217.138 175.185 196.279 205.149 170.41 213.468C162.323 216.068 154.347 217.204 146.66 217.127C144.577 217.106 142.509 217.022 140.474 216.823C140.451 216.821 140.426 216.821 140.402 216.818C138.332 216.613 136.298 216.291 134.285 215.909C133.943 215.844 133.598 215.784 133.258 215.714C131.302 215.312 129.375 214.831 127.483 214.269C127.207 214.187 126.935 214.096 126.661 214.011C122.636 212.759 118.764 211.166 115.09 209.241C115 209.194 114.909 209.149 114.819 209.102C93.5707 197.847 78.8498 175.917 77.7405 150.452C77.7068 149.681 77.6568 148.915 77.6236 148.145V146.54V12.868C77.6236 5.76111 71.8627 0.000213623 64.7559 0.000213623H14.9589C6.6974 0.000213623 0 6.6976 0 14.9591L0.071573 142.875C-0.0255663 146.023 0.0110668 149.143 0.109951 152.248C2.56984 229.37 64.6139 292.287 142.807 294.7C169.676 295.53 195.064 289.076 217.138 277.177V281.903C217.138 289.01 222.899 294.771 230.005 294.771H230.1C230.103 294.771 230.104 294.771 230.106 294.771H281.995C289.101 294.771 294.862 289.011 294.862 281.904V277.125V146.76C294.862 119.586 315.722 89.6225 341.59 81.304C349.676 78.704 357.65 77.5686 365.336 77.6448C367.425 77.6651 369.5 77.7489 371.541 77.9496C371.558 77.9513 371.576 77.9513 371.594 77.953C373.666 78.1584 375.701 78.4806 377.716 78.8633C378.058 78.9279 378.402 78.9878 378.742 79.0582C380.7 79.4607 382.629 79.9418 384.522 80.5048C384.794 80.5857 385.061 80.6747 385.332 80.7584C389.361 82.0108 393.239 83.6063 396.917 85.5345C397.003 85.5793 397.091 85.6224 397.177 85.6684C418.428 96.922 433.15 118.853 434.26 144.321C434.293 145.091 434.343 145.856 434.376 146.626V148.232V281.904C434.376 289.011 440.137 294.771 447.244 294.771H497.042C505.303 294.771 512 288.075 512 279.813L511.929 151.897Z" fill="#DEE3E5"/>
</svg>
