<svg width="512" height="116" viewBox="0 0 512 116" fill="none" xmlns="http://www.w3.org/2000/svg">
<path d="M70.7518 44.3666C76.69 50.1601 79.6587 58.7555 79.6587 70.1473V111.926C79.6587 113.489 78.3916 114.756 76.8285 114.756H59.8949C58.3318 114.756 57.0647 113.489 57.0647 111.926V73.6231C57.0647 67.445 55.7112 62.833 53.0093 59.7908C50.3051 56.7501 46.3948 55.2292 41.2781 55.2292C35.5797 55.2292 31.0422 56.9919 27.6636 60.5157C24.2825 64.0419 22.5944 69.2778 22.5944 76.2302V111.926C22.5944 113.489 21.3269 114.756 19.7642 114.756H2.83019C1.26705 114.756 0 113.489 0 111.926V39.6656C0 38.1025 1.26705 36.8354 2.83019 36.8354H18.7505C20.3136 36.8354 21.5807 38.1025 21.5807 39.6656V44.5526C21.5807 45.0626 22.1926 45.3029 22.5545 44.9439C25.3669 42.1507 28.7605 39.955 32.7327 38.3563C37.1727 36.5706 42.0496 35.677 47.361 35.677C57.0148 35.677 64.8131 38.5731 70.7518 44.3666Z" fill="black"/>
<path d="M179.61 39.6658V111.926C179.61 113.489 178.343 114.756 176.78 114.756H161.005C159.442 114.756 158.175 113.489 158.175 111.926V106.929C158.175 106.414 157.553 106.175 157.194 106.544C154.409 109.411 151.163 111.64 147.457 113.235C143.304 115.021 138.815 115.915 133.988 115.915C123.752 115.915 115.641 112.97 109.655 107.08C103.667 101.192 100.676 92.4516 100.676 80.8655V39.6658C100.676 38.1026 101.943 36.8356 103.506 36.8356H120.44C122.003 36.8356 123.27 38.1026 123.27 39.6658V77.5335C123.27 90.0862 128.531 96.3623 139.056 96.3623C144.462 96.3623 148.808 94.6016 152.091 91.0759C155.373 87.5516 157.016 82.3128 157.016 75.3613V39.6658C157.016 38.1026 158.283 36.8356 159.846 36.8356H176.78C178.343 36.8356 179.61 38.1026 179.61 39.6658Z" fill="black"/>
<path d="M271.362 44.3666C277.3 50.1601 280.269 58.7555 280.269 70.1473V111.926C280.269 113.489 279.002 114.756 277.439 114.756H260.505C258.942 114.756 257.675 113.489 257.675 111.926V73.6231C257.675 67.445 256.322 62.833 253.62 59.7908C250.915 56.7501 247.005 55.2292 241.888 55.2292C236.19 55.2292 231.653 56.9919 228.274 60.5157C224.893 64.0419 223.205 69.2778 223.205 76.2302V111.926C223.205 113.489 221.937 114.756 220.375 114.756H203.441C201.877 114.756 200.61 113.489 200.61 111.926V39.6656C200.61 38.1025 201.877 36.8354 203.441 36.8354H219.361C220.924 36.8354 222.191 38.1025 222.191 39.6656V44.5526C222.191 45.0626 222.803 45.3029 223.165 44.9439C225.977 42.1507 229.371 39.955 233.343 38.3563C237.783 36.5706 242.659 35.677 247.971 35.677C257.626 35.677 265.423 38.5731 271.362 44.3666Z" fill="black"/>
<path d="M316.839 110.773C310.224 107.347 305.057 102.59 301.341 96.5072C297.623 90.4233 295.766 83.5214 295.766 75.7951C295.766 68.0721 297.623 61.1668 301.341 55.0844C305.057 49.0015 310.224 44.2467 316.839 40.8186C323.451 37.3924 330.91 35.6769 339.216 35.6769C347.421 35.6769 354.591 37.3924 360.724 40.8186C366.022 43.7819 370.077 47.8441 372.889 53.0075C373.629 54.3678 373.081 56.0775 371.716 56.811L358.923 63.6836C357.636 64.3748 356.062 63.9538 355.228 62.755C351.265 57.0624 345.878 54.2159 339.071 54.2159C333.181 54.2159 328.303 56.1481 324.443 60.0084C320.58 63.8716 318.649 69.133 318.649 75.7951C318.649 82.4576 320.58 87.722 324.443 91.5822C328.303 95.4454 333.181 97.3757 339.071 97.3757C345.947 97.3757 351.331 94.5451 355.225 88.8809C356.061 87.6638 357.651 87.2331 358.947 87.9407C362.281 89.759 368.35 93.0699 371.714 94.9046C373.079 95.6492 373.613 97.37 372.85 98.7255C370.04 103.718 365.998 107.71 360.724 110.7C354.591 114.176 347.421 115.914 339.216 115.914C330.91 115.914 323.451 114.201 316.839 110.773Z" fill="black"/>
<path d="M459.388 44.3666C465.326 50.1601 468.295 58.7555 468.295 70.1474V111.926C468.295 113.489 467.028 114.756 465.464 114.756H448.531C446.968 114.756 445.701 113.489 445.701 111.926V73.6231C445.701 67.445 444.348 62.833 441.645 59.7908C438.941 56.7501 435.03 55.2293 429.914 55.2293C424.216 55.2293 419.678 56.9919 416.299 60.5157C412.918 64.0419 411.23 69.2778 411.23 76.2303V111.926C411.23 113.489 409.963 114.756 408.4 114.756H391.466C389.903 114.756 388.636 113.489 388.636 111.926V10.1193C388.636 8.55615 389.903 7.28911 391.466 7.28911H408.4C409.963 7.28911 411.23 8.55615 411.23 10.1193V43.5985C411.23 44.1066 411.83 44.3579 412.205 44.0157C414.998 41.4744 418.295 39.4907 422.093 38.0664C426.341 36.473 430.975 35.677 435.996 35.677C445.651 35.677 453.449 38.5731 459.388 44.3666Z" fill="black"/>
<path d="M489.484 36.8356H506.418C507.981 36.8356 509.248 38.1027 509.248 39.6658V111.926C509.248 113.489 507.981 114.756 506.418 114.756H489.484C487.921 114.756 486.654 113.489 486.654 111.926V39.6658C486.654 38.1027 487.921 36.8356 489.484 36.8356Z" fill="black"/>
<path d="M487.813 22.3523C485.205 19.9398 483.902 16.9462 483.902 13.3719C483.902 9.80147 485.205 6.80688 487.813 4.39247C490.42 1.98046 493.798 0.771597 497.952 0.771597C502.101 0.771597 505.483 1.93047 508.09 4.24731C510.697 6.56558 512 9.46115 512 12.9378C512 16.7034 510.697 19.8177 508.09 22.2797C505.483 24.7417 502.101 25.9727 497.952 25.9727C493.798 25.9727 490.42 24.7671 487.813 22.3523Z" fill="black"/>
</svg>
