<svg width="512" height="116" viewBox="0 0 512 116" fill="none" xmlns="http://www.w3.org/2000/svg">
<path d="M70.7518 44.3849C76.69 50.1784 79.6587 58.7738 79.6587 70.1657V111.944C79.6587 113.507 78.3916 114.774 76.8285 114.774H59.8949C58.3318 114.774 57.0647 113.507 57.0647 111.944V73.6414C57.0647 67.4633 55.7112 62.8513 53.0093 59.8091C50.3051 56.7684 46.3948 55.2476 41.2781 55.2476C35.5797 55.2476 31.0422 57.0102 27.6636 60.534C24.2825 64.0602 22.5944 69.2961 22.5944 76.2486V111.944C22.5944 113.507 21.3269 114.774 19.7642 114.774H2.83019C1.26705 114.774 0 113.507 0 111.944V39.6839C0 38.1208 1.26705 36.8538 2.83019 36.8538H18.7505C20.3136 36.8538 21.5807 38.1208 21.5807 39.6839V44.5709C21.5807 45.0809 22.1926 45.3212 22.5545 44.9622C25.3669 42.169 28.7605 39.9733 32.7327 38.3746C37.1727 36.5889 42.0496 35.6953 47.361 35.6953C57.0148 35.6953 64.8131 38.5914 70.7518 44.3849Z" fill="#4583C1"/>
<path d="M179.61 39.6841V111.944C179.61 113.507 178.343 114.774 176.78 114.774H161.005C159.442 114.774 158.175 113.507 158.175 111.944V106.947C158.175 106.432 157.553 106.193 157.194 106.563C154.41 109.429 151.163 111.659 147.457 113.254C143.304 115.039 138.815 115.933 133.988 115.933C123.752 115.933 115.641 112.989 109.655 107.098C103.667 101.21 100.676 92.4699 100.676 80.8838V39.6841C100.676 38.1209 101.943 36.8539 103.506 36.8539H120.44C122.003 36.8539 123.27 38.1209 123.27 39.6841V77.5518C123.27 90.1045 128.531 96.3806 139.056 96.3806C144.463 96.3806 148.808 94.6199 152.091 91.0942C155.373 87.5699 157.016 82.3311 157.016 75.3796V39.6841C157.016 38.1209 158.283 36.8539 159.846 36.8539H176.78C178.343 36.8539 179.61 38.1209 179.61 39.6841Z" fill="#4583C1"/>
<path d="M271.362 44.3849C277.3 50.1784 280.269 58.7738 280.269 70.1657V111.944C280.269 113.507 279.002 114.774 277.439 114.774H260.505C258.942 114.774 257.675 113.507 257.675 111.944V73.6414C257.675 67.4633 256.322 62.8513 253.62 59.8091C250.915 56.7684 247.005 55.2476 241.888 55.2476C236.19 55.2476 231.653 57.0102 228.274 60.534C224.893 64.0602 223.205 69.2961 223.205 76.2486V111.944C223.205 113.507 221.937 114.774 220.375 114.774H203.441C201.877 114.774 200.61 113.507 200.61 111.944V39.6839C200.61 38.1208 201.877 36.8538 203.441 36.8538H219.361C220.924 36.8538 222.191 38.1208 222.191 39.6839V44.5709C222.191 45.0809 222.803 45.3212 223.165 44.9622C225.977 42.169 229.371 39.9733 233.343 38.3746C237.783 36.5889 242.659 35.6953 247.971 35.6953C257.626 35.6953 265.423 38.5914 271.362 44.3849Z" fill="#4583C1"/>
<path d="M316.839 110.791C310.224 107.365 305.057 102.608 301.341 96.5255C297.623 90.4416 295.766 83.5397 295.766 75.8134C295.766 68.0905 297.623 61.1852 301.341 55.1027C305.057 49.0199 310.224 44.2651 316.839 40.8369C323.451 37.4107 330.91 35.6952 339.216 35.6952C347.421 35.6952 354.591 37.4107 360.724 40.8369C366.022 43.8002 370.077 47.8624 372.889 53.0258C373.629 54.3861 373.081 56.0958 371.716 56.8293L358.923 63.7019C357.636 64.3932 356.062 63.9721 355.227 62.7733C351.265 57.0807 345.878 54.2342 339.071 54.2342C333.18 54.2342 328.303 56.1664 324.443 60.0267C320.58 63.8899 318.649 69.1513 318.649 75.8134C318.649 82.476 320.58 87.7403 324.443 91.6005C328.303 95.4637 333.18 97.3941 339.071 97.3941C345.947 97.3941 351.331 94.5634 355.224 88.8992C356.061 87.6821 357.651 87.2514 358.947 87.959C362.281 89.7773 368.35 93.0882 371.714 94.9229C373.079 95.6675 373.613 97.3883 372.85 98.7438C370.04 103.737 365.998 107.728 360.724 110.719C354.591 114.194 347.421 115.933 339.216 115.933C330.91 115.933 323.451 114.219 316.839 110.791Z" fill="#4583C1"/>
<path d="M459.388 44.3849C465.325 50.1784 468.295 58.7738 468.295 70.1657V111.944C468.295 113.507 467.028 114.774 465.464 114.774H448.531C446.968 114.774 445.701 113.507 445.701 111.944V73.6414C445.701 67.4633 444.348 62.8513 441.645 59.8091C438.94 56.7684 435.03 55.2476 429.914 55.2476C424.216 55.2476 419.678 57.0102 416.299 60.534C412.918 64.0602 411.23 69.2961 411.23 76.2486V111.944C411.23 113.507 409.963 114.774 408.4 114.774H391.466C389.903 114.774 388.636 113.507 388.636 111.944V10.1376C388.636 8.57446 389.903 7.30742 391.466 7.30742H408.4C409.963 7.30742 411.23 8.57446 411.23 10.1376V43.6168C411.23 44.1249 411.83 44.3762 412.205 44.034C414.998 41.4927 418.295 39.509 422.093 38.0847C426.341 36.4913 430.975 35.6953 435.996 35.6953C445.651 35.6953 453.449 38.5914 459.388 44.3849Z" fill="#4583C1"/>
<path d="M489.484 36.8539H506.418C507.981 36.8539 509.248 38.121 509.248 39.6841V111.944C509.248 113.507 507.981 114.774 506.418 114.774H489.484C487.921 114.774 486.654 113.507 486.654 111.944V39.6841C486.654 38.121 487.921 36.8539 489.484 36.8539Z" fill="#4583C1"/>
<path d="M487.813 22.3706C485.206 19.9581 483.902 16.9645 483.902 13.3902C483.902 9.81978 485.206 6.82519 487.813 4.41078C490.42 1.99878 493.799 0.789907 497.952 0.789907C502.102 0.789907 505.483 1.94878 508.09 4.26562C510.697 6.58389 512 9.47946 512 12.9562C512 16.7217 510.697 19.836 508.09 22.298C505.483 24.76 502.102 25.991 497.952 25.991C493.799 25.991 490.42 24.7855 487.813 22.3706Z" fill="#4583C1"/>
</svg>
