<svg width="512" height="146" viewBox="0 0 512 146" fill="none" xmlns="http://www.w3.org/2000/svg">
<path d="M70.7518 43.9663C76.69 49.7598 79.6587 58.3552 79.6587 69.7471V111.526C79.6587 113.089 78.3916 114.356 76.8285 114.356H59.8949C58.3318 114.356 57.0647 113.089 57.0647 111.526V73.2228C57.0647 67.0448 55.7112 62.4327 53.0093 59.3905C50.3051 56.3498 46.3948 54.829 41.2781 54.829C35.5797 54.829 31.0422 56.5916 27.6636 60.1154C24.2825 63.6416 22.5944 68.8776 22.5944 75.83V111.526C22.5944 113.089 21.3269 114.356 19.7642 114.356H2.83019C1.26705 114.356 0 113.089 0 111.526V39.2654C0 37.7022 1.26705 36.4352 2.83019 36.4352H18.7505C20.3136 36.4352 21.5807 37.7022 21.5807 39.2654V44.1523C21.5807 44.6623 22.1926 44.9026 22.5545 44.5436C25.3669 41.7504 28.7605 39.5547 32.7327 37.956C37.1727 36.1703 42.0496 35.2767 47.361 35.2767C57.0148 35.2767 64.8131 38.1728 70.7518 43.9663Z" fill="#4583C1"/>
<path d="M179.61 39.2655V111.526C179.61 113.088 178.343 114.356 176.78 114.356H161.005C159.442 114.356 158.175 113.088 158.175 111.526V106.529C158.175 106.014 157.553 105.774 157.194 106.144C154.41 109.011 151.163 111.24 147.457 112.835C143.304 114.62 138.815 115.514 133.988 115.514C123.752 115.514 115.641 112.57 109.655 106.68C103.667 100.791 100.676 92.0513 100.676 80.4652V39.2655C100.676 37.7024 101.943 36.4353 103.506 36.4353H120.44C122.003 36.4353 123.27 37.7024 123.27 39.2655V77.1332C123.27 89.6859 128.531 95.962 139.056 95.962C144.463 95.962 148.808 94.2014 152.091 90.6756C155.373 87.1514 157.016 81.9125 157.016 74.9611V39.2655C157.016 37.7024 158.283 36.4353 159.846 36.4353H176.78C178.343 36.4353 179.61 37.7024 179.61 39.2655Z" fill="#4583C1"/>
<path d="M271.362 43.9663C277.3 49.7598 280.269 58.3552 280.269 69.7471V111.526C280.269 113.089 279.002 114.356 277.439 114.356H260.505C258.942 114.356 257.675 113.089 257.675 111.526V73.2228C257.675 67.0448 256.322 62.4327 253.62 59.3905C250.915 56.3498 247.005 54.829 241.888 54.829C236.19 54.829 231.653 56.5916 228.274 60.1154C224.893 63.6416 223.205 68.8776 223.205 75.83V111.526C223.205 113.089 221.937 114.356 220.375 114.356H203.441C201.877 114.356 200.61 113.089 200.61 111.526V39.2654C200.61 37.7022 201.877 36.4352 203.441 36.4352H219.361C220.924 36.4352 222.191 37.7022 222.191 39.2654V44.1523C222.191 44.6623 222.803 44.9026 223.165 44.5436C225.977 41.7504 229.371 39.5547 233.343 37.956C237.783 36.1703 242.659 35.2767 247.971 35.2767C257.626 35.2767 265.423 38.1728 271.362 43.9663Z" fill="#4583C1"/>
<path d="M316.839 110.373C310.224 106.947 305.057 102.189 301.341 96.107C297.623 90.0231 295.766 83.1212 295.766 75.3949C295.766 67.6719 297.623 60.7666 301.341 54.6842C305.057 48.6013 310.224 43.8465 316.839 40.4184C323.451 36.9922 330.91 35.2766 339.216 35.2766C347.421 35.2766 354.591 36.9922 360.724 40.4184C366.022 43.3817 370.077 47.4439 372.889 52.6073C373.629 53.9676 373.081 55.6773 371.716 56.4108L358.923 63.2834C357.636 63.9746 356.062 63.5536 355.227 62.3548C351.265 56.6622 345.878 53.8157 339.071 53.8157C333.18 53.8157 328.303 55.7479 324.443 59.6082C320.58 63.4713 318.649 68.7328 318.649 75.3949C318.649 82.0574 320.58 87.3218 324.443 91.182C328.303 95.0452 333.18 96.9755 339.071 96.9755C345.947 96.9755 351.331 94.1449 355.224 88.4806C356.061 87.2636 357.651 86.8329 358.947 87.5405C362.281 89.3588 368.35 92.6697 371.714 94.5044C373.079 95.249 373.613 96.9698 372.85 98.3253C370.04 103.318 365.998 107.309 360.724 110.3C354.591 113.776 347.421 115.514 339.216 115.514C330.91 115.514 323.451 113.801 316.839 110.373Z" fill="#4583C1"/>
<path d="M459.388 43.9663C465.325 49.7598 468.295 58.3552 468.295 69.7471V111.526C468.295 113.089 467.028 114.356 465.464 114.356H448.531C446.968 114.356 445.701 113.089 445.701 111.526V73.2228C445.701 67.0448 444.348 62.4327 441.645 59.3905C438.94 56.3498 435.03 54.829 429.914 54.829C424.216 54.829 419.678 56.5916 416.299 60.1154C412.918 63.6416 411.23 68.8776 411.23 75.83V111.526C411.23 113.089 409.963 114.356 408.4 114.356H391.466C389.903 114.356 388.636 113.089 388.636 111.526V9.71902C388.636 8.15588 389.903 6.88884 391.466 6.88884H408.4C409.963 6.88884 411.23 8.15588 411.23 9.71902V43.1982C411.23 43.7063 411.83 43.9577 412.205 43.6154C414.998 41.0741 418.295 39.0904 422.093 37.6662C426.341 36.0727 430.975 35.2767 435.996 35.2767C445.651 35.2767 453.449 38.1728 459.388 43.9663Z" fill="#4583C1"/>
<path d="M489.484 36.4353H506.418C507.981 36.4353 509.248 37.7024 509.248 39.2655V111.526C509.248 113.088 507.981 114.356 506.418 114.356H489.484C487.921 114.356 486.654 113.088 486.654 111.526V39.2655C486.654 37.7024 487.921 36.4353 489.484 36.4353Z" fill="#4583C1"/>
<path d="M3.65643 144.721C2.75277 144.241 2.04714 143.574 1.54052 142.718C1.03389 141.863 0.780579 140.894 0.780579 139.812C0.780579 138.73 1.03389 137.765 1.54052 136.915C2.04714 136.066 2.74892 135.402 3.64586 134.923C4.54279 134.444 5.56614 134.204 6.71686 134.204C7.79837 134.204 8.74674 134.423 9.56196 134.862C10.3762 135.3 10.9891 135.929 11.4 136.751L9.42785 137.901C9.11301 137.395 8.71933 137.015 8.24731 136.761C7.77482 136.508 7.25762 136.381 6.6962 136.381C5.73726 136.381 4.94319 136.693 4.31351 137.316C3.68383 137.939 3.36851 138.771 3.36851 139.812C3.36851 140.853 3.67999 141.684 4.30293 142.307C4.92636 142.931 5.7238 143.242 6.6962 143.242C7.25762 143.242 7.77482 143.115 8.24731 142.862C8.71933 142.609 9.11301 142.228 9.42785 141.722L11.4 142.872C10.9756 143.694 10.3555 144.327 9.54129 144.772C8.72655 145.217 7.78491 145.44 6.71686 145.44C5.58008 145.44 4.56009 145.2 3.65643 144.721Z" fill="#4583C1"/>
<path d="M50.3995 142.297C51.0157 141.667 51.3233 140.839 51.3233 139.812C51.3233 138.785 51.0157 137.956 50.3995 137.326C49.7828 136.697 49.0022 136.381 48.0577 136.381C47.1127 136.381 46.3354 136.697 45.7264 137.326C45.1169 137.956 44.8122 138.785 44.8122 139.812C44.8122 140.839 45.1169 141.667 45.7264 142.297C46.3354 142.927 47.1127 143.242 48.0577 143.242C49.0022 143.242 49.7828 142.927 50.3995 142.297ZM45.0587 144.721C44.1685 144.242 43.474 143.574 42.9741 142.718C42.4737 141.862 42.2242 140.894 42.2242 139.812C42.2242 138.73 42.4737 137.765 42.9741 136.915C43.474 136.066 44.1685 135.403 45.0587 134.923C45.9489 134.444 46.9483 134.204 48.0577 134.204C49.1805 134.204 50.1865 134.444 51.0768 134.923C51.967 135.403 52.6615 136.066 53.1619 136.915C53.6618 137.765 53.9118 138.73 53.9118 139.812C53.9118 140.894 53.6618 141.862 53.1619 142.718C52.6615 143.574 51.967 144.242 51.0768 144.721C50.1865 145.2 49.1805 145.44 48.0577 145.44C46.9483 145.44 45.9489 145.2 45.0587 144.721Z" fill="#4583C1"/>
<path d="M100.798 135.406C101.606 136.207 102.01 137.408 102.01 139.011V145.296H99.4425V139.339C99.4425 138.381 99.23 137.658 98.8061 137.172C98.3812 136.686 97.7717 136.443 96.9781 136.443C96.1153 136.443 95.4236 136.727 94.9035 137.296C94.3825 137.864 94.1229 138.676 94.1229 139.73V145.296H91.5552V139.339C91.5552 138.381 91.3427 137.658 90.9187 137.172C90.4938 136.686 89.8844 136.443 89.0903 136.443C88.214 136.443 87.519 136.723 87.0056 137.285C86.4923 137.847 86.2351 138.661 86.2351 139.73V145.296H83.6678V134.327H86.1116V135.724C86.523 135.231 87.0364 134.855 87.6521 134.594C88.2688 134.335 88.9533 134.204 89.7065 134.204C90.528 134.204 91.2571 134.358 91.894 134.666C92.5309 134.974 93.0342 135.43 93.4038 136.032C93.8557 135.457 94.4377 135.009 95.1496 134.687C95.862 134.365 96.6493 134.204 97.5121 134.204C98.895 134.204 99.99 134.605 100.798 135.406Z" fill="#4583C1"/>
<path d="M142.242 135.406C143.049 136.207 143.454 137.408 143.454 139.011V145.296H140.886V139.339C140.886 138.381 140.674 137.658 140.25 137.172C139.825 136.686 139.215 136.443 138.422 136.443C137.559 136.443 136.867 136.727 136.347 137.296C135.826 137.864 135.566 138.676 135.566 139.73V145.296H132.999V139.339C132.999 138.381 132.786 137.658 132.362 137.172C131.937 136.686 131.328 136.443 130.534 136.443C129.658 136.443 128.962 136.723 128.449 137.285C127.936 137.847 127.679 138.661 127.679 139.73V145.296H125.111V134.327H127.555V135.724C127.967 135.231 128.48 134.855 129.096 134.594C129.712 134.335 130.397 134.204 131.15 134.204C131.971 134.204 132.701 134.358 133.338 134.666C133.974 134.974 134.478 135.43 134.847 136.032C135.299 135.457 135.881 135.009 136.593 134.687C137.305 134.365 138.093 134.204 138.956 134.204C140.338 134.204 141.433 134.605 142.242 135.406Z" fill="#4583C1"/>
<path d="M177.257 134.327V145.296H174.812V143.899C174.401 144.392 173.888 144.772 173.272 145.039C172.656 145.306 171.991 145.44 171.28 145.44C169.814 145.44 168.661 145.032 167.818 144.217C166.976 143.403 166.555 142.194 166.555 140.592V134.327H169.123V140.243C169.123 141.229 169.345 141.965 169.79 142.451C170.235 142.937 170.869 143.18 171.69 143.18C172.608 143.18 173.337 142.896 173.878 142.328C174.419 141.76 174.689 140.941 174.689 139.873V134.327H177.257Z" fill="#4583C1"/>
<path d="M217.55 135.416C218.385 136.225 218.803 137.422 218.803 139.011V145.296H216.235V139.339C216.235 138.381 216.009 137.658 215.557 137.172C215.106 136.686 214.462 136.443 213.627 136.443C212.682 136.443 211.935 136.727 211.388 137.296C210.84 137.864 210.566 138.682 210.566 139.75V145.296H207.998V134.327H210.443V135.745C210.868 135.238 211.401 134.855 212.045 134.594C212.689 134.335 213.414 134.204 214.222 134.204C215.605 134.204 216.714 134.609 217.55 135.416Z" fill="#4583C1"/>
<path d="M249.791 134.328H252.359V145.296H249.791V134.328ZM249.915 132.078C249.599 131.784 249.442 131.418 249.442 130.979C249.442 130.541 249.599 130.175 249.915 129.88C250.229 129.586 250.62 129.439 251.085 129.439C251.551 129.439 251.941 129.579 252.256 129.86C252.571 130.14 252.729 130.493 252.729 130.918C252.729 131.37 252.574 131.75 252.267 132.057C251.958 132.366 251.565 132.52 251.085 132.52C250.62 132.52 250.229 132.373 249.915 132.078Z" fill="#4583C1"/>
<path d="M293.762 144.721C292.858 144.241 292.152 143.574 291.646 142.718C291.139 141.863 290.886 140.894 290.886 139.812C290.886 138.73 291.139 137.765 291.646 136.915C292.152 136.066 292.854 135.402 293.751 134.923C294.648 134.444 295.672 134.204 296.822 134.204C297.904 134.204 298.852 134.423 299.667 134.862C300.481 135.3 301.094 135.929 301.505 136.751L299.533 137.901C299.218 137.395 298.824 137.015 298.352 136.761C297.88 136.508 297.363 136.381 296.801 136.381C295.842 136.381 295.048 136.693 294.419 137.316C293.789 137.939 293.474 138.771 293.474 139.812C293.474 140.853 293.785 141.684 294.408 142.307C295.032 142.931 295.829 143.242 296.801 143.242C297.363 143.242 297.88 143.115 298.352 142.862C298.824 142.609 299.218 142.228 299.533 141.722L301.505 142.872C301.081 143.694 300.461 144.327 299.646 144.772C298.832 145.217 297.89 145.44 296.822 145.44C295.685 145.44 294.665 145.2 293.762 144.721Z" fill="#4583C1"/>
<path d="M338.666 143.129C339.166 142.834 339.519 142.414 339.724 141.866V140.592H337.074C335.595 140.592 334.856 141.078 334.856 142.05C334.856 142.516 335.041 142.886 335.411 143.16C335.78 143.434 336.294 143.57 336.951 143.57C337.594 143.57 338.166 143.424 338.666 143.129ZM341.008 135.364C341.864 136.138 342.292 137.306 342.292 138.867V145.296H339.868V143.961C339.553 144.441 339.104 144.806 338.523 145.06C337.94 145.313 337.239 145.44 336.417 145.44C335.595 145.44 334.877 145.299 334.26 145.019C333.644 144.738 333.168 144.348 332.833 143.848C332.497 143.348 332.33 142.783 332.33 142.153C332.33 141.168 332.696 140.376 333.429 139.781C334.161 139.185 335.315 138.887 336.889 138.887H339.724V138.723C339.724 137.956 339.495 137.367 339.036 136.956C338.577 136.546 337.896 136.34 336.992 136.34C336.376 136.34 335.77 136.436 335.174 136.628C334.579 136.819 334.076 137.087 333.665 137.428L332.659 135.56C333.233 135.122 333.925 134.786 334.733 134.554C335.541 134.32 336.397 134.204 337.3 134.204C338.916 134.204 340.152 134.591 341.008 135.364Z" fill="#4583C1"/>
<path d="M381.825 144.7C381.523 144.947 381.157 145.131 380.726 145.255C380.294 145.378 379.839 145.44 379.36 145.44C378.155 145.44 377.224 145.125 376.567 144.495C375.909 143.865 375.58 142.947 375.58 141.742V136.463H373.773V134.409H375.58V131.904H378.148V134.409H381.085V136.463H378.148V141.681C378.148 142.215 378.277 142.622 378.538 142.903C378.798 143.183 379.175 143.324 379.668 143.324C380.243 143.324 380.722 143.173 381.106 142.872L381.825 144.7Z" fill="#4583C1"/>
<path d="M415.566 134.328H418.133V145.296H415.566V134.328ZM415.689 132.078C415.374 131.784 415.217 131.418 415.217 130.979C415.217 130.541 415.374 130.175 415.689 129.88C416.004 129.586 416.394 129.439 416.86 129.439C417.325 129.439 417.716 129.579 418.03 129.86C418.345 130.14 418.503 130.493 418.503 130.918C418.503 131.37 418.349 131.75 418.041 132.057C417.732 132.366 417.339 132.52 416.86 132.52C416.394 132.52 416.004 132.373 415.689 132.078Z" fill="#4583C1"/>
<path d="M464.835 142.297C465.451 141.667 465.759 140.839 465.759 139.812C465.759 138.785 465.451 137.956 464.835 137.326C464.218 136.697 463.438 136.381 462.493 136.381C461.548 136.381 460.771 136.697 460.162 137.326C459.553 137.956 459.248 138.785 459.248 139.812C459.248 140.839 459.553 141.667 460.162 142.297C460.771 142.927 461.548 143.242 462.493 143.242C463.438 143.242 464.218 142.927 464.835 142.297ZM459.494 144.721C458.604 144.242 457.91 143.574 457.41 142.718C456.909 141.862 456.66 140.894 456.66 139.812C456.66 138.73 456.909 137.765 457.41 136.915C457.91 136.066 458.604 135.403 459.494 134.923C460.385 134.444 461.384 134.204 462.493 134.204C463.616 134.204 464.622 134.444 465.512 134.923C466.403 135.403 467.097 136.066 467.598 136.915C468.097 137.765 468.347 138.73 468.347 139.812C468.347 140.894 468.097 141.862 467.598 142.718C467.097 143.574 466.403 144.242 465.512 144.721C464.622 145.2 463.616 145.44 462.493 145.44C461.384 145.44 460.385 145.2 459.494 144.721Z" fill="#4583C1"/>
<path d="M507.655 135.416C508.49 136.225 508.908 137.422 508.908 139.011V145.296H506.34V139.339C506.34 138.381 506.114 137.658 505.662 137.172C505.211 136.686 504.566 136.443 503.731 136.443C502.786 136.443 502.04 136.727 501.493 137.296C500.945 137.864 500.671 138.682 500.671 139.75V145.296H498.104V134.327H500.547V135.745C500.972 135.238 501.506 134.855 502.15 134.594C502.794 134.335 503.519 134.204 504.327 134.204C505.71 134.204 506.819 134.609 507.655 135.416Z" fill="#4583C1"/>
<path d="M487.813 21.952C485.206 19.5395 483.902 16.5459 483.902 12.9716C483.902 9.4012 485.206 6.40661 487.813 3.9922C490.42 1.5802 493.799 0.371328 497.952 0.371328C502.102 0.371328 505.483 1.5302 508.09 3.84704C510.697 6.16531 512 9.06088 512 12.5376C512 16.3031 510.697 19.4174 508.09 21.8794C505.483 24.3414 502.102 25.5724 497.952 25.5724C493.799 25.5724 490.42 24.3669 487.813 21.952Z" fill="#4583C1"/>
</svg>
